<svg width="510" height="175" viewBox="0 0 510 175" fill="none" xmlns="http://www.w3.org/2000/svg">
<path d="M29.1233 163.746C27.8842 160.781 26.2469 155.692 26.2469 154.896C26.2469 154.365 26.0699 153.79 25.8044 153.657C25.2291 153.303 25.2291 140.956 25.7601 139.098C27.5302 133.212 28.6365 129.937 28.9463 129.76C29.1233 129.627 29.3888 129.008 29.5658 128.344C29.9199 126.928 33.3716 121.662 34.8762 120.246C35.4957 119.671 35.9825 118.962 35.9825 118.608C35.9825 118.299 36.1595 118.033 36.425 118.033C36.6463 118.033 37.6641 117.281 38.6377 116.396C41.2044 113.962 41.6469 113.608 42.1337 113.608C42.3992 113.608 42.7532 113.342 42.9302 113.077C43.1072 112.767 43.6825 112.28 44.1693 111.971C47.5768 109.891 48.8158 109.315 49.0371 109.625C49.3026 110.023 48.5946 110.599 43.5498 114.05C41.5584 115.378 39.8325 116.838 39.6998 117.281C39.567 117.679 39.213 118.033 38.9032 118.033C38.5934 118.033 37.6641 118.874 36.8676 119.936C36.0268 120.954 35.0975 122.104 34.7877 122.458C31.2917 126.22 28.1055 134.053 27.0877 141.31C26.4239 146.09 27.0877 154.498 28.4153 157.817C29.2561 159.985 30.1411 162.463 30.5394 163.746C30.6722 164.233 30.5394 164.499 30.0969 164.499C29.7429 164.499 29.3003 164.145 29.1233 163.746Z" fill="black"/>
<path d="M32.8412 161.535C28.8585 157.287 27.5751 148.702 29.5223 138.834C30.4516 133.922 32.4872 129.275 35.8062 124.363C38.1958 120.823 46.1613 113.167 47.4447 113.167C47.6659 113.167 48.0642 112.901 48.2412 112.636C48.4182 112.326 49.259 111.618 50.0556 111.043C51.2947 110.202 51.5159 110.113 51.7372 110.733C52.0027 111.397 50.4096 113.123 49.4803 113.167C48.02 113.211 36.9567 123.832 36.8682 125.248C36.8682 125.469 36.3815 126.266 35.7619 127.062C34.1688 129.186 31.1154 136.4 30.6286 139.276C29.0797 148.658 30.4073 157.154 33.9918 160.517C35.0539 161.491 35.4964 163.173 34.7441 163.173C34.5671 163.173 33.682 162.42 32.8412 161.535Z" fill="black"/>
<path d="M24.3446 159.765C22.2205 151.888 22.3975 138.346 24.6544 131.664C26.2918 126.796 28.5044 122.327 30.363 120.247C30.7613 119.76 31.1153 119.229 31.1153 119.096C31.1153 118.167 38.063 112.326 41.9573 109.936C44.9665 108.166 48.8165 106.396 49.1262 106.705C49.5688 107.148 48.6837 107.9 46.2055 109.095C38.4613 112.857 32.0004 119.096 28.5044 126.221C25.805 131.708 25.0527 134.275 24.4331 140.426C23.8136 145.958 24.5216 155.915 25.6722 158.791C26.0262 159.72 26.2475 160.915 26.159 161.446C25.8935 163.393 25.0969 162.685 24.3446 159.765Z" fill="black"/>
<path d="M35.8964 157.286C33.7722 155.295 33.0199 153.701 32.4004 150.029C31.4268 144.408 32.7987 137.151 36.1619 130.557C39.1711 124.495 43.2423 119.538 49.0395 114.715C50.4998 113.476 51.7831 112.414 51.9159 112.281C53.2877 110.909 56.1199 110.732 54.9693 112.104C54.6596 112.458 54.6596 112.723 54.9251 112.723C55.1464 112.723 55.5889 112.414 55.9429 112.015C56.3412 111.529 56.9165 111.396 57.8015 111.573C58.5096 111.706 59.4389 111.617 59.9257 111.396C60.5452 111.042 60.7665 111.086 60.7665 111.44C60.7665 111.75 61.1205 111.838 61.7843 111.617C62.3153 111.484 63.3774 111.263 64.0854 111.174C64.8377 111.086 66.0326 110.865 66.7406 110.688C67.9797 110.422 67.9354 110.555 65.3688 113.21C60.9877 117.857 56.7837 124.096 56.7837 125.999C56.7837 126.442 56.4739 127.017 56.1199 127.327C55.6774 127.681 55.4561 128.654 55.4561 130.203C55.4561 133.257 56.4297 134.186 59.0849 133.788C62.4481 133.257 66.6964 132.106 68.378 131.265C69.3073 130.779 70.4136 130.424 70.8561 130.424C71.3429 130.424 71.9624 130.159 72.228 129.805C72.4935 129.451 73.5998 128.964 74.7061 128.699C75.7682 128.433 76.7418 128.035 76.8745 127.814C77.3613 127.061 75.9895 126.973 74.2636 127.637C73.29 127.991 71.6084 128.477 70.5021 128.654C69.3958 128.876 67.9797 129.185 67.3159 129.318C65.7228 129.716 63.1119 128.787 62.2711 127.504C60.855 125.38 62.4038 118.786 65.059 115.644C65.7228 114.803 67.0061 113.299 67.8469 112.237C70.9004 108.387 73.4228 106.085 74.5734 106.085C75.1929 106.085 76.0337 105.731 76.432 105.245C76.8745 104.758 78.0693 104.315 79.3527 104.138C80.5475 103.961 81.6538 103.651 81.7866 103.43C82.4061 102.412 96.567 102.058 101.922 102.943C103.515 103.253 106.48 103.651 108.56 103.917C110.639 104.138 113.649 104.669 115.242 105.023C120.419 106.174 121.039 104.669 115.994 103.253C114.445 102.811 110.728 101.572 107.675 100.465C103.249 98.8722 101.081 98.3411 96.8326 97.8544C88.867 97.0136 86.6987 96.748 86.0349 96.5268C85.6366 96.394 86.3004 95.509 87.982 93.8716L90.5487 91.4377L89.0883 89.9331C88.2475 89.0923 87.4067 88.3843 87.1854 88.3843C86.9199 88.3843 85.7693 87.7647 84.5745 87.0124C82.4061 85.7291 81.1228 85.5078 80.813 86.3929C80.7245 86.6584 81.2113 87.1894 81.9193 87.5877C83.8665 88.7383 85.5481 90.6412 85.5481 91.659C85.5481 93.0751 84.3975 96.0843 83.778 96.2613C83.3354 96.4383 83.2469 95.863 83.5124 93.9601C83.6895 92.4113 83.601 91.0837 83.2912 90.5526C82.3619 88.7825 77.5383 86.1716 71.8739 84.3572C67.2716 82.8969 65.5015 82.5429 61.8728 82.4101C57.89 82.2331 57.713 82.2774 60.1027 82.6314C61.563 82.8969 63.2446 83.2509 63.8642 83.4722C64.4837 83.6934 65.767 84.0032 66.7406 84.1802C69.2188 84.5785 74.6619 86.9239 75.5912 87.9417C76.0337 88.4285 76.609 88.8268 76.9188 88.8268C78.0693 88.8268 81.1228 93.5176 81.1228 95.2434C81.1228 96.5268 80.0607 95.686 78.9544 93.5176C77.7153 91.1279 75.8124 89.4906 72.051 87.5877C69.5728 86.3486 68.2895 85.9503 62.9791 84.844C57.4918 83.7377 50.5883 83.8705 48.951 85.1095C48.2872 85.5963 48.951 85.6848 53.4647 85.6848C59.0406 85.6848 61.9613 86.0831 65.236 87.2779C66.2981 87.6762 67.9797 88.2957 68.9975 88.6498C70.7676 89.3136 77.14 94.3141 77.4941 95.3762C77.8923 96.571 75.901 95.7745 74.0423 93.9159C72.3607 92.2343 66.5193 88.8268 65.2803 88.8268C65.059 88.8268 63.5987 88.4285 62.0941 87.9417C59.0849 86.9682 51.0751 86.7469 47.7119 87.4992C46.7383 87.7205 45.1452 88.0745 44.1274 88.2957C41.959 88.7383 38.3303 90.4641 37.1354 91.5705C36.6487 92.013 35.8964 92.367 35.4981 92.367C35.0556 92.367 34.613 92.544 34.436 92.7653C34.3033 93.0308 32.9314 94.1371 31.4268 95.2877C28.0636 97.8544 24.0366 101.704 24.0366 102.368C24.0366 102.988 22.9303 103.519 22.532 103.12C21.9124 102.501 22.3992 101.572 24.5676 99.2705C25.851 97.8986 27.2228 96.7923 27.6653 96.7923C28.1079 96.7923 28.4619 96.5268 28.4619 96.2613C28.5061 95.3762 32.6659 92.367 37.8877 89.4463C41.2067 87.5434 39.9676 87.7205 36.0734 89.7118C34.1262 90.6854 32.3119 91.482 32.0906 91.482C31.8693 91.482 31.3826 91.9245 31.0285 92.4555C30.6303 93.0751 30.1435 93.2963 29.6567 93.1193C28.4619 92.6768 28.7716 92.1457 30.8073 91.0837C31.8251 90.5084 33.4624 89.5791 34.436 89.0038C37.932 86.9682 38.463 86.7026 40.9412 85.9946C42.313 85.5963 43.5964 85.0653 43.7291 84.844C44.1716 84.136 41.7377 84.3572 40.9854 85.0653C40.2774 85.8176 39.5251 85.5963 39.5251 84.5785C39.5251 84.2245 39.8791 83.959 40.3216 83.959C40.7642 83.959 41.2952 83.782 41.5165 83.6049C41.782 83.3837 43.7291 82.8526 45.8975 82.4101C48.951 81.7906 49.8803 81.4366 50.0573 80.7728C50.3228 79.6222 51.7831 79.4009 57.0492 79.6222C61.209 79.7992 61.74 79.7549 62.1383 79.0026C62.6693 77.9848 63.9527 77.9848 67.4044 79.0912C68.909 79.5779 71.7854 80.1532 73.7768 80.3745C77.14 80.7728 83.4682 82.6756 84.4418 83.5607C84.663 83.782 85.2826 83.959 85.8579 83.959C86.4331 83.959 88.4245 84.7998 90.2831 85.7733C92.186 86.7912 96.213 88.9153 99.2665 90.5084C102.32 92.0572 105.993 94.0044 107.453 94.8009C108.914 95.6417 110.816 96.4825 111.657 96.748C112.542 97.0136 113.693 97.6331 114.224 98.1199C114.755 98.6509 117.543 99.9785 120.419 101.085C123.252 102.191 125.995 103.253 126.482 103.43C126.969 103.651 127.854 103.961 128.473 104.094C129.093 104.271 130.597 104.891 131.881 105.466C135.288 107.059 141.262 109.183 142.236 109.183C142.679 109.183 143.077 109.36 143.077 109.537C143.077 109.758 144.139 110.157 145.422 110.511C147.546 111.042 148.52 111.396 150.157 112.369C150.511 112.546 151.131 112.856 151.485 112.989C152.281 113.254 155.777 114.892 157.016 115.511C157.503 115.777 158.919 116.485 160.114 117.104C163.123 118.653 167.15 122.193 168.699 124.672C170.779 127.946 170.956 130.424 169.097 130.424C168.345 130.424 168.257 130.203 168.434 129.23C168.788 127.548 167.195 124.406 165.026 122.37C164.053 121.485 163.123 120.822 163.035 120.954C162.902 121.043 163.256 121.928 163.831 122.901C164.982 124.937 164.761 127.504 163.345 128.256C162.061 128.964 160.158 128.566 159.981 127.592C159.849 126.929 159.981 126.796 160.911 127.061C162.991 127.548 163.61 124.937 161.929 122.503C160.557 120.512 157.725 117.857 157.37 118.166C157.238 118.299 157.547 119.317 158.079 120.423C159.141 122.547 158.919 123.521 157.149 124.627C156.087 125.291 151.618 125.424 150.998 124.804C150.157 123.964 150.998 123.433 152.812 123.654C154.583 123.919 157.238 123.123 157.238 122.37C157.238 121.397 155.91 119.007 154.937 118.211C154.361 117.768 153.742 117.016 153.565 116.618C153.211 115.6 152.724 115.6 152.016 116.706C151.573 117.458 151.573 117.635 152.149 117.857C153.078 118.211 152.989 119.538 151.927 120.468C151.175 121.131 150.556 121.22 147.502 120.999C143.785 120.689 142.811 120.335 140.687 118.609L139.404 117.547L140.687 117.857C141.395 117.989 143.121 118.52 144.493 118.963C149.051 120.468 151.485 119.937 150.467 117.68C149.272 115.024 144.803 112.192 145.422 114.493C145.555 114.936 145.378 115.688 145.112 116.087C144.183 117.326 138.784 116.662 135.996 114.98C135.642 114.759 134.27 114.139 132.987 113.653C131.04 112.856 130.111 112.723 127.057 112.945C125.066 113.077 123.075 113.476 122.543 113.874C122.012 114.228 120.596 114.493 119.18 114.493C117.853 114.493 115.109 114.892 113.073 115.379C111.038 115.865 108.515 116.264 107.453 116.264C105.949 116.264 105.285 116.529 104.444 117.37C103.736 118.166 102.231 118.83 99.2665 119.583C96.9653 120.202 93.3366 121.22 91.2124 121.884C87.805 122.946 87.3182 123.211 87.3182 124.096C87.3182 124.804 87.0527 125.114 86.4331 125.114C85.5923 125.114 83.6895 125.911 80.1492 127.814C79.2642 128.256 78.1136 128.654 77.6711 128.654C77.1843 128.654 76.5647 128.964 76.255 129.318C75.9452 129.672 75.5027 129.982 75.2814 129.982C74.6619 129.982 69.4843 132.239 68.9533 132.77C68.732 132.991 69.263 132.858 70.1923 132.46C71.7412 131.841 71.8297 131.841 71.8297 132.681C71.8297 133.212 71.3872 133.699 70.6349 134.009C69.9268 134.23 67.8027 135.292 65.8555 136.31C58.3768 140.204 55.6774 141.266 51.7831 141.797C50.367 141.974 49.9688 141.842 48.8624 140.647C48.1544 139.895 47.4906 138.656 47.4021 137.859C47.1366 136.045 48.1101 130.38 48.951 128.787C49.3492 128.123 50.1015 126.619 50.6326 125.468C51.1636 124.273 51.7831 123.344 52.0044 123.344C52.1814 123.344 52.3584 122.99 52.3584 122.547C52.3584 122.149 52.7567 121.53 53.2435 121.22C53.7303 120.91 54.1285 120.512 54.1285 120.291C54.1285 119.892 56.3854 117.193 58.9078 114.582C59.4389 114.051 59.8814 113.476 59.8814 113.343C59.8814 112.281 52.9337 118.83 50.5883 122.149C48.0216 125.734 46.6498 128.168 44.2159 133.699C43.2423 135.868 43.0653 136.93 43.0653 140.426C43.0653 144.364 43.1096 144.585 44.1716 145.293C46.163 146.621 49.7475 145.913 54.7481 143.302C57.9785 141.62 59.0406 141.222 58.9078 141.753C58.6866 142.948 52.8452 146.134 48.4642 147.418C46.4285 148.037 45.8975 148.037 44.7027 147.506C41.6492 146.179 41.5607 146.046 41.6492 140.912C41.6935 137.815 41.9147 135.779 42.313 134.983C42.667 134.274 43.1096 133.08 43.2866 132.283C43.4636 131.487 44.1274 129.938 44.7469 128.831C45.4107 127.725 46.4285 125.955 47.0038 124.981C47.5791 123.964 48.1987 123.034 48.3314 122.901C48.5084 122.769 49.128 121.972 49.7033 121.131C50.2785 120.291 51.3406 118.963 52.0929 118.255C54.7038 115.688 55.6331 114.493 54.9693 114.493C53.4205 114.493 43.0653 126.22 43.0653 127.946C43.0653 128.3 42.8441 128.743 42.6228 128.876C42.0033 129.274 40.4544 132.416 39.5251 135.292C37.3567 142.063 37.2682 147.462 39.3481 150.206C40.3659 151.533 40.6314 151.666 42.8883 151.666C44.7027 151.666 45.6762 151.445 46.4728 150.781C47.8004 149.719 48.8182 149.63 48.8182 150.56C48.8182 152.241 42.667 153.79 40.1004 152.772C37.8435 151.843 35.9849 148.303 35.9849 144.895C35.9849 141.886 37.4895 135.956 39.1711 132.549C39.8349 131.133 40.4101 129.672 40.4101 129.318C40.4101 128.964 40.6757 128.522 40.9854 128.345C41.251 128.168 42.0033 127.106 42.5785 125.999C43.8619 123.654 47.6676 119.096 50.9866 115.954C52.3584 114.715 53.332 113.52 53.155 113.387C53.0222 113.21 52.4912 113.476 51.9601 113.918C51.4734 114.361 50.367 115.334 49.4377 116.042C48.5527 116.795 46.6941 118.565 45.3222 119.981C43.9504 121.397 42.49 122.901 42.0918 123.3C41.6492 123.654 41.2952 124.141 41.2952 124.318C41.2952 124.495 40.7199 125.468 40.0561 126.53C36.5601 131.752 34.436 137.505 33.7722 143.391C33.3739 146.887 33.8607 151.799 34.79 153.569C35.7193 155.383 38.109 156.976 39.8791 156.976C41.0297 156.976 41.3395 157.153 41.2067 157.773C41.1182 158.304 40.5872 158.569 39.3038 158.658C37.7992 158.746 37.2682 158.525 35.8964 157.286ZM55.9872 139.275C56.4739 139.275 57.4033 138.965 58.0228 138.611C58.6866 138.257 60.8107 137.284 62.7578 136.399C67.3159 134.363 67.5372 134.23 67.7584 133.611C67.9354 132.991 65.8113 132.858 65.4573 133.478C65.3245 133.699 64.7492 133.965 64.2182 134.097C63.6429 134.23 62.0498 134.629 60.5895 135.027C57.7573 135.823 56.651 135.646 55.1464 134.274C54.3056 133.566 54.1285 132.903 54.1285 130.956C54.1285 128.831 55.5889 123.521 56.3412 122.901C56.4739 122.769 57.182 121.707 57.89 120.468C58.5981 119.273 59.6159 117.768 60.2354 117.149C61.8285 115.467 63.9527 112.281 63.4659 112.281C62.4481 112.281 53.686 122.149 53.686 123.3C53.686 123.565 53.332 124.096 52.8895 124.539C52.4027 124.981 51.3849 126.929 50.5883 128.876C49.4377 131.708 49.128 133.08 49.0837 135.691C49.0395 138.877 49.0837 138.965 50.367 139.718C51.5176 140.381 51.9159 140.381 53.4205 139.895C54.3498 139.541 55.5004 139.275 55.9872 139.275ZM70.7234 127.15C72.4492 126.796 74.9274 126.132 76.255 125.645C77.5826 125.158 80.7245 124.096 83.2469 123.3C85.7251 122.503 87.7607 121.662 87.7607 121.485C87.7607 120.999 87.1412 121.043 86.6101 121.574C86.3889 121.795 84.7958 122.193 83.1142 122.415C81.3883 122.68 78.5561 123.123 76.786 123.388C73.5556 123.919 73.5556 123.919 71.6969 122.636C69.9268 121.397 69.8383 121.176 69.7056 118.83C69.5728 116.618 69.7941 115.998 71.8297 112.104C73.0688 109.758 73.9096 107.856 73.7326 107.856C72.8475 107.856 66.0768 116.264 66.0768 117.326C66.0768 117.724 65.8998 118.034 65.6343 118.034C64.9705 118.034 63.8199 121.043 63.4659 123.742C62.8906 127.725 64.351 128.433 70.7234 127.15ZM80.2377 121.574C83.0257 121.043 85.6808 120.468 86.0791 120.202C86.5216 119.981 87.3624 119.804 87.9377 119.804C88.5573 119.804 90.3716 119.317 92.0533 118.742C93.6906 118.122 95.5492 117.547 96.1688 117.414C97.9831 117.06 88.9998 117.945 84.663 118.565C84.309 118.609 82.8929 118.432 81.5653 118.122C79.6182 117.68 78.8659 117.237 77.9366 115.954C76.432 114.007 76.3877 112.546 77.6268 109.05C79.0872 104.979 78.3349 105.023 75.1487 109.227C72.4935 112.723 70.6349 117.989 71.4314 119.892C71.9182 121.043 73.5998 122.37 74.7061 122.459C74.9716 122.459 77.4498 122.061 80.2377 121.574ZM91.9647 116.308C101.081 115.157 102.054 114.67 95.505 114.538C91.1239 114.493 89.9291 114.316 87.7165 113.343C86.2561 112.768 84.7515 111.927 84.309 111.484C83.3797 110.511 82.2291 108.121 81.8308 106.174C81.6538 105.422 81.2556 104.758 80.9458 104.758C80.4147 104.758 79.0429 109.006 78.6004 111.883C78.3349 113.874 79.4412 116.175 80.813 116.441C81.3441 116.573 82.1849 116.75 82.6716 116.839C84.309 117.193 85.2826 117.149 91.9647 116.308ZM143.962 114.936C143.962 114.715 143.564 114.095 143.077 113.608C142.325 112.856 141.705 112.723 139.448 112.812C136.395 112.945 135.642 113.741 137.855 114.405C140.776 115.334 143.962 115.6 143.962 114.936ZM105.904 112.502C106.789 111.927 105.241 111.484 102.497 111.44C101.258 111.396 98.3814 111.042 96.0803 110.555C91.6107 109.67 87.7165 107.723 85.3711 105.245C84.6188 104.492 83.9107 103.873 83.6895 103.873C82.5389 103.873 84.2205 108.785 85.9464 110.555C88.0705 112.768 90.2831 113.21 98.2044 113.033C102.143 112.945 105.595 112.679 105.904 112.502ZM114.976 109.891C114.003 109.581 110.108 109.05 106.347 108.785C102.585 108.475 99.355 108.121 99.178 108.033C99.001 107.9 97.4964 107.457 95.859 107.015C94.2216 106.572 91.6992 105.687 90.2831 104.979C88.9113 104.271 87.628 103.829 87.4952 103.961C86.9642 104.537 88.5573 106.218 90.6372 107.28C94.3101 109.095 98.0274 109.714 106.789 110.068C111.303 110.201 115.375 110.378 115.861 110.378C116.348 110.422 115.95 110.157 114.976 109.891ZM115.64 107.856C115.02 107.679 112.454 107.28 109.887 107.015C107.32 106.705 103.913 106.174 102.32 105.864C100.683 105.51 98.9567 105.2 98.4699 105.2C97.9389 105.2 97.4079 105.023 97.2751 104.758C96.9211 104.227 95.4165 104.183 95.1067 104.714C94.6642 105.377 100.594 106.926 105.019 107.236C107.32 107.413 109.71 107.723 110.33 107.9C111.923 108.387 117.1 108.342 115.64 107.856ZM92.0975 94.7124C92.9826 94.3141 94.4429 93.7389 95.2837 93.4733C97.5849 92.7653 97.4521 91.836 94.8854 90.4199C93.6464 89.7561 92.54 89.048 92.4073 88.8268C92.0533 88.2072 90.4159 88.2515 90.4159 88.871C90.4159 89.1366 90.8142 89.8446 91.301 90.5084L92.2303 91.659L90.6372 93.2521C89.7964 94.1371 89.0883 94.9779 89.0883 95.1549C89.0883 95.686 90.3716 95.509 92.0975 94.7124ZM101.612 94.7567C102.541 94.5797 103.205 94.2699 103.116 94.0044C102.895 93.2963 99.6647 92.19 99.3107 92.6768C99.178 92.9423 98.3372 93.5618 97.4964 94.0929L95.9475 95.0222H97.9389C99.0452 95.0222 100.683 94.8894 101.612 94.7567ZM80.6803 85.7733C80.6803 85.1095 79.6624 84.5785 77.14 83.8705C75.8124 83.4722 74.3521 83.0297 73.9538 82.8526C73.5113 82.6756 73.1573 82.7199 73.1573 82.9412C73.1573 83.1624 74.0866 83.6049 75.2814 83.959C76.432 84.2687 77.9808 84.9325 78.6889 85.3751C80.1492 86.2601 80.6803 86.3486 80.6803 85.7733ZM50.1458 83.0739C50.1458 82.4986 49.2607 82.4986 48.3757 83.0739C47.8446 83.4279 47.9774 83.5164 48.951 83.5164C49.6147 83.5164 50.1458 83.3394 50.1458 83.0739ZM55.8101 82.3216C55.3676 82.2331 54.5711 82.2331 54.04 82.3216C53.4647 82.4101 53.8188 82.4986 54.7923 82.4986C55.7659 82.5429 56.2084 82.4544 55.8101 82.3216Z" fill="black"/>
<path d="M21.0267 155.34C20.3186 152.552 20.2744 136.842 20.9382 135.072C21.2037 134.32 21.6462 132.638 21.8675 131.31C22.7526 126.354 25.4077 120.734 29.125 115.91C32.6209 111.352 41.8698 105.245 47.3572 103.918C48.2865 103.697 49.7026 103.298 50.4991 103.077C51.6054 102.723 51.9152 102.723 51.9152 103.21C51.9152 103.564 51.4727 103.918 50.9416 104.095C49.7026 104.449 48.1537 105.068 46.4721 105.909C45.764 106.263 45.0118 106.529 44.7905 106.529C43.9054 106.529 40.0554 108.564 37.0905 110.556C31.3376 114.45 26.8238 120.38 24.2129 127.593C23.1951 130.381 22.8411 131.886 21.8232 137.727C21.2922 140.692 21.3365 148.082 21.8675 151.888C22.5313 156.535 22.5313 157.11 22.0003 157.287C21.779 157.375 21.2922 156.49 21.0267 155.34Z" fill="black"/>
<path d="M18.0163 143.437C18.4588 133.657 19.4324 127.86 21.2025 124.01C21.5122 123.302 22.3088 121.443 22.8841 119.938C23.4594 118.434 24.1674 116.929 24.4329 116.619C24.6984 116.31 25.8048 114.849 26.8668 113.389C29.0352 110.468 31.0266 108.521 34.0801 106.397C36.6025 104.627 39.5232 102.99 40.1427 102.99C40.4082 102.99 41.249 102.68 41.9571 102.282C43.9927 101.175 51.3387 99.5378 54.2594 99.4936C56.295 99.4493 56.3392 100.467 54.3036 100.688C50.4536 101.042 40.4082 103.786 39.5232 104.76C39.3904 104.892 38.3283 105.512 37.1778 106.087C34.2128 107.592 28.9467 112.592 26.5128 116.177C21.9105 122.859 19.8306 130.471 19.2553 142.552C19.0341 147.198 18.8128 148.791 18.326 148.924C17.8393 149.101 17.795 148.127 18.0163 143.437Z" fill="black"/>
<path d="M15.8928 136.975C16.0255 135.692 16.3353 134.099 16.5123 133.391C16.7336 132.727 17.0433 131.001 17.2203 129.496C17.4859 127.018 17.4416 126.841 16.6893 126.974C15.4502 127.151 15.3617 125.16 16.468 122.858C16.9991 121.796 17.3974 120.646 17.3974 120.203C17.3974 118.654 25.7611 103.874 26.6905 103.874C26.8232 103.874 28.2836 102.591 29.9652 100.998C39.037 92.5452 52.3129 90.5096 66.518 95.3331C67.0491 95.5102 66.9606 95.6429 66.2083 95.9969C65.5002 96.351 64.6594 96.2625 63.0221 95.7314C59.0836 94.4481 52.5341 93.9171 47.8433 94.4923C43.064 95.0676 36.8686 97.3245 34.1692 99.4487C33.2841 100.201 32.3548 100.776 32.1336 100.776C31.9123 100.776 31.4698 101.13 31.0715 101.573C30.7175 101.971 29.9209 102.723 29.3456 103.21C27.3542 104.848 22.7962 111.707 20.4951 116.486C17.7071 122.283 17.3974 123.168 17.3974 124.894C17.3974 126.31 17.4859 126.487 18.0611 126C18.4152 125.691 18.7249 124.806 18.7249 124.053C18.7249 123.257 19.0347 122.239 19.3887 121.752C19.7428 121.31 20.0525 120.646 20.0525 120.292C20.0525 119.362 23.4157 112.946 25.4071 110.025C26.3364 108.653 27.7083 107.016 28.4163 106.396C29.1686 105.777 29.7882 105.069 29.7882 104.803C29.7882 104.538 30.0094 104.316 30.2307 104.316C30.7617 104.316 33.3284 102.591 33.9922 101.794C34.656 100.998 40.1433 98.6079 43.7278 97.5458C46.2945 96.7492 48.0203 96.6165 53.9945 96.6165C59.1278 96.5722 61.3405 96.7492 61.7387 97.1475C62.4025 97.8113 62.7565 97.7671 54.5698 97.9441C45.9405 98.0768 40.4973 99.4487 35.7623 102.546C35.0542 103.033 33.9922 103.608 33.4611 103.874C32.8859 104.095 32.4433 104.493 32.4433 104.759C32.4433 104.98 32.2663 105.202 32.0008 105.202C31.7795 105.202 30.7175 106.131 29.6996 107.281C28.6376 108.432 27.4428 109.715 27.0445 110.158C26.6019 110.6 26.2479 111.087 26.2479 111.22C26.2479 111.353 25.6726 112.238 24.9646 113.123C24.3008 114.008 23.46 115.468 23.106 116.398C22.7962 117.283 22.3979 118.035 22.2209 118.035C22.0439 118.035 21.7341 118.699 21.5571 119.451C21.2916 120.779 20.4508 122.947 19.5657 124.717C19.3887 125.115 18.9905 126.708 18.7249 128.257C18.4594 129.806 18.0611 131.488 17.8399 131.975C17.6186 132.461 17.3531 134.231 17.3088 135.957C17.1761 138.48 17.0433 139.055 16.4238 139.188C15.76 139.32 15.6715 139.055 15.8928 136.975Z" fill="black"/>
<path d="M17.5753 114.274C17.3983 113.875 17.5753 113.256 17.9293 112.813C18.2833 112.415 18.8144 111.574 19.0799 110.955C19.9207 109.273 20.5845 108.211 21.9563 106.485C22.6201 105.6 23.1512 104.759 23.1512 104.626C23.1512 103.963 31.0282 96.3511 33.1081 94.935C38.9494 91.085 45.8971 88.8281 51.9155 88.8281C53.9954 88.8724 56.4736 89.0494 57.4471 89.2707C58.4207 89.4919 60.4563 89.9787 61.9167 90.2885C65.1029 91.0408 71.6966 94.0057 72.0063 94.8908C72.3604 95.7316 71.3868 95.5988 68.9086 94.4482C59.704 90.023 53.7742 89.3592 43.7287 91.439C41.2948 91.9701 36.25 94.3155 34.9224 95.5546C34.4356 95.9971 33.6833 96.4396 33.2408 96.6166C32.7983 96.7494 32.4443 97.0592 32.4443 97.2804C32.4443 97.5017 32.1787 97.6787 31.9132 97.6787C31.6035 97.6787 30.5414 98.608 29.5678 99.7143C28.5943 100.776 26.7356 102.812 25.4966 104.184C24.2132 105.556 23.1512 106.795 23.1512 106.972C23.1512 107.503 20.8058 110.955 20.4517 110.955C20.2747 110.955 19.8322 111.751 19.4782 112.68C18.6374 114.716 17.9293 115.291 17.5753 114.274Z" fill="black"/>
<path d="M247.733 104.537C246.494 104.005 244.768 102.678 243.839 101.66C242.245 99.8457 242.201 99.6687 242.201 96.3497C242.201 93.0308 242.245 92.898 243.883 91.1279C245.741 89.048 249.326 87.0566 251.185 87.0566C252.247 87.0566 255.212 88.1187 257.247 89.225C257.601 89.402 258.53 90.5084 259.327 91.6589C263.177 97.2791 259.327 104.404 251.937 105.289C250.432 105.466 249.414 105.289 247.733 104.537ZM253.53 101.129C255.389 100.465 256.362 98.6951 256.362 95.9957C256.362 94.0486 256.185 93.6061 254.99 92.6325C253.928 91.7032 253.176 91.4819 251.317 91.4819C248.883 91.4819 248.131 91.8802 246.892 93.6946C245.874 95.1992 246.007 97.2791 247.202 99.0492C248.839 101.483 250.786 102.147 253.53 101.129Z" fill="black"/>
<path d="M319.201 105.245C315.44 104.05 313.36 101.97 312.387 98.4301C311.678 95.9962 311.678 95.6864 312.387 93.7835C313.449 90.9071 314.555 89.8008 317.874 88.2962C320.972 86.8801 322.078 86.8801 324.954 88.2519C325.795 88.6502 326.813 89.0927 327.167 89.2697C327.521 89.4468 328.45 90.5088 329.247 91.6594C331.548 94.9784 331.15 98.6956 328.185 102.413C326.459 104.581 321.724 106.086 319.201 105.245ZM323.538 101.174C326.415 100.2 327.477 95.4209 325.397 92.8985C324.512 91.8364 322.122 90.9071 320.972 91.2169C320.618 91.3054 319.732 91.5266 319.069 91.6594C317.21 92.1019 315.882 95.2439 316.546 97.6335C317.431 100.908 320.264 102.324 323.538 101.174Z" fill="black"/>
<path d="M481.39 104.758C480.416 104.271 479.398 103.873 479.133 103.873C478.336 103.873 475.902 100.023 475.593 98.2531C474.752 93.8278 476.787 90.1548 481.08 88.1634C483.824 86.8801 486.036 86.8801 488.47 88.1192C489.222 88.5174 490.063 88.8272 490.329 88.8272C491.081 88.8272 493.117 92.1462 493.869 94.5801C494.533 96.7042 494.09 99.2709 492.807 100.82C492.497 101.174 492.232 102.059 492.232 102.678C492.232 103.563 492.497 103.917 493.338 104.139C494.975 104.537 494.444 105.378 492.453 105.555C491.214 105.643 490.55 105.511 490.196 104.98C489.709 104.316 489.488 104.316 487.629 104.935C484.886 105.865 483.47 105.82 481.39 104.758ZM485.549 101.085C485.903 100.598 485.815 100.289 485.151 99.6692C483.735 98.3858 484.089 98.0318 486.833 98.2088L489.355 98.3416V96.0404C489.311 92.8542 488.072 91.4824 485.107 91.4824C482.098 91.4824 480.991 92.0134 480.106 94.0048C478.558 97.4565 480.814 101.484 484.31 101.616C484.709 101.661 485.284 101.395 485.549 101.085Z" fill="black"/>
<path d="M368.499 104.537C368.057 104.183 367.348 103.873 366.95 103.873C365.977 103.873 364.074 101.749 363.277 99.8018C361.905 96.6156 362.79 92.0575 365.18 89.9776C367.658 87.765 373.544 86.9242 374.783 88.5615C375.137 89.0483 375.402 89.9776 375.402 90.5972C375.402 91.7477 375.358 91.7477 372.216 91.7477C369.074 91.7035 369.03 91.7035 368.012 93.2081C366.419 95.5092 366.286 96.6598 367.348 98.8282C368.145 100.421 368.588 100.82 370.136 101.218C371.42 101.572 372.349 101.572 373.278 101.262C374.031 100.997 374.827 100.775 375.004 100.775C375.757 100.775 375.402 103.74 374.606 104.448C373.544 105.422 369.694 105.466 368.499 104.537Z" fill="black"/>
<path d="M424.789 104.317C422.09 103.078 421.47 101.263 421.426 94.714C421.426 91.7491 421.559 89.0497 421.691 88.6514C421.868 88.1646 422.532 87.9434 423.683 87.9434H425.409V92.7227C425.409 97.856 425.895 100.688 426.825 101.263C428.373 102.281 431.781 101.308 432.223 99.7146C432.356 99.2278 432.489 96.4399 432.489 93.6077V88.3859H434.303H436.118L435.896 94.4928C435.631 102.37 435.233 103.476 432.489 104.45C429.834 105.423 427.002 105.335 424.789 104.317Z" fill="black"/>
<path d="M227.598 96.5712V88.3844L228.66 88.1189C229.235 87.9862 231.359 87.9419 233.395 88.0304L237.112 88.2074L237.245 89.5793L237.378 90.9954L234.811 91.1281C232.465 91.2609 232.244 91.3494 231.802 92.5C231.448 93.562 231.536 93.8718 232.244 94.4028C232.731 94.7569 233.616 95.0224 234.236 94.9781C236.625 94.8011 236.891 94.9339 236.891 96.527C236.891 98.0316 236.847 98.0758 235.386 97.8103C234.545 97.6775 233.306 97.7218 232.687 97.8546C231.58 98.1201 231.536 98.2528 231.802 100.51C232.244 104.094 231.934 104.758 229.545 104.758H227.598V96.5712Z" fill="black"/>
<path d="M265.832 104.184C265.744 103.874 265.7 100.157 265.744 95.9089L265.877 88.2089L267.735 88.0761L269.594 87.9434L269.727 94.714L269.859 101.44L272.426 101.573L274.949 101.706V103.211V104.759H270.523C267.293 104.759 266.009 104.582 265.832 104.184Z" fill="black"/>
<path d="M279.375 96.5714C279.375 92.0576 279.508 88.3846 279.729 88.3404C279.906 88.2961 280.791 88.2518 281.72 88.2076C283.491 88.0748 283.668 88.4289 283.446 91.4823C283.314 92.8984 283.712 94.58 284.154 94.58C284.331 94.5358 285.438 93.1639 286.677 91.4823C288.757 88.6059 288.978 88.4289 291.014 88.1633C292.208 87.9863 293.226 87.9421 293.359 88.0306C293.713 88.4289 292.43 90.3317 290.305 92.5886C289.155 93.7835 288.093 95.1553 287.96 95.5978C287.739 96.3059 290.571 100.067 293.669 103.165C294.819 104.316 294.067 104.847 291.545 104.67C289.42 104.537 289.332 104.448 286.765 101.085C285.349 99.2266 283.977 97.7662 283.756 97.9432C283.535 98.076 283.358 99.6691 283.358 101.483V104.758H281.366H279.375V96.5714Z" fill="black"/>
<path d="M299.287 96.395V88.0312L301.19 88.0755L303.049 88.164L303.27 94.8019L303.491 101.44L306.058 101.573L308.624 101.705L308.492 103.121L308.359 104.538L303.845 104.67L299.287 104.803V96.395Z" fill="black"/>
<path d="M335.796 104.361C335.53 103.874 335.619 90.6865 335.929 89.0491C336.061 88.2083 336.371 88.1641 339.69 88.1641C346.018 88.2526 348.054 89.4031 348.054 93.1204C348.054 95.0675 347.877 95.3773 346.195 96.8376L344.292 98.475L345.797 100.378C346.638 101.396 347.788 102.768 348.364 103.387L349.382 104.538L347.08 104.67C344.912 104.803 344.646 104.715 343.496 103.343C342.257 101.838 341.637 100.776 341.15 99.2715C340.619 97.7669 339.956 99.183 339.867 101.927L339.779 104.538L337.92 104.67C336.946 104.759 335.973 104.582 335.796 104.361ZM343.407 95.0233C343.496 95.0233 343.54 94.3152 343.54 93.4302C343.54 92.0583 343.363 91.7928 341.991 91.2175C341.15 90.9077 340.354 90.598 340.221 90.598C339.911 90.598 339.956 95.2445 340.265 95.5543C340.398 95.7313 341.15 95.6428 341.903 95.4215C342.699 95.2003 343.363 95.0233 343.407 95.0233Z" fill="black"/>
<path d="M353.366 96.4836L353.499 88.1641L355.269 88.3411C356.242 88.3853 357.172 88.6508 357.304 88.8721C357.481 89.2261 357.526 103.033 357.304 104.449C357.26 104.626 356.375 104.759 355.269 104.759H353.277L353.366 96.4836Z" fill="black"/>
<path d="M380.138 103.122C380.492 102.193 380.979 101.219 381.2 100.998C381.377 100.732 381.731 99.7146 381.996 98.7853C382.218 97.8118 383.147 95.1123 384.032 92.7669L385.625 88.4744L387.882 88.2089C390.36 87.8549 390.537 87.9876 391.245 89.9347C391.732 91.2623 393.325 95.6434 395.493 101.396C396.113 103.078 396.644 104.494 396.644 104.538C396.644 104.582 395.759 104.671 394.653 104.671C392.794 104.715 392.573 104.627 391.953 103.299C391.289 101.883 391.245 101.883 388.148 101.883C385.714 101.883 384.961 102.06 384.784 102.547C384.298 104.051 383.235 104.759 381.333 104.759H379.43L380.138 103.122ZM390.139 98.2985C390.272 98.1658 390.227 97.679 390.05 97.2807C389.829 96.8824 389.475 95.9974 389.254 95.2451C388.767 93.475 387.705 93.5635 387.307 95.3336C387.174 96.1301 386.82 97.0595 386.51 97.3692C386.245 97.7233 386.156 98.1215 386.333 98.2543C386.687 98.6526 389.785 98.6526 390.139 98.2985Z" fill="black"/>
<path d="M447.535 104.183C447.535 103.874 447.933 102.9 448.42 101.971C448.907 101.086 449.305 100.156 449.305 99.8908C449.305 99.6696 449.792 98.4305 450.367 97.1472C450.943 95.8638 451.828 93.6512 452.314 92.2794C453.509 88.6506 454.394 87.8098 456.563 88.1196C458.598 88.4736 459.218 89.1817 459.926 91.9253C460.191 93.0317 460.59 94.0052 460.811 94.138C460.988 94.2707 461.962 96.7046 462.935 99.5811L464.705 104.759H462.625C460.634 104.759 460.457 104.67 460.103 103.343L459.705 101.971L456.474 102.015C452.27 102.059 452.403 102.015 452.403 102.679C452.403 103.033 452.049 103.608 451.606 104.006C450.633 104.891 447.535 105.024 447.535 104.183ZM457.935 98.2977C458.554 98.0322 458.554 97.8995 458.023 97.2799C457.713 96.8817 457.182 95.7311 456.873 94.669C456.253 92.5006 455.678 92.5891 455.235 94.9345C455.058 95.8196 454.748 96.7931 454.527 97.1029C454.306 97.4127 454.217 97.8552 454.394 98.1207C454.704 98.6075 456.784 98.7403 457.935 98.2977Z" fill="black"/>
<path d="M407.353 99.7585C405.495 98.9177 405.495 95.2447 407.398 94.9349C407.929 94.8464 408.902 95.0234 409.61 95.3332C411.557 96.3067 411.115 98.7849 408.814 99.9797C408.592 100.112 407.929 100.024 407.353 99.7585Z" fill="black"/>
<path d="M138.695 94.536C137.589 94.3147 135.73 93.8279 134.579 93.4297C133.385 93.0314 131.88 92.8101 131.216 92.9429C130.464 93.0756 128.605 92.5889 126.127 91.6153C124.003 90.7745 121.569 89.9779 120.684 89.8452C119.843 89.7124 117.719 88.8274 115.949 87.8981C114.179 86.9688 110.683 85.1544 108.116 83.9153C105.55 82.6762 102.673 81.1274 101.7 80.4636C98.8232 78.5165 94.5749 76.4366 93.5571 76.4366C93.026 76.4366 92.495 76.1268 92.3622 75.7728C92.2295 75.4188 91.6542 75.0205 91.1674 74.8435C90.6364 74.7107 89.6186 74.3124 88.8663 74.0027C80.9893 70.6394 71.9174 67.1435 71.1651 67.1435C70.8111 67.1435 70.5013 66.9665 70.5013 66.7894C70.5013 66.5682 69.6605 66.1699 68.6427 65.8601C66.6956 65.2848 62.9341 63.913 60.4559 62.8952C59.7036 62.5412 58.7743 62.2757 58.376 62.2757C57.6237 62.2757 50.676 58.9567 46.1622 56.4343C41.0732 53.5578 36.8691 48.6015 36.8691 45.4596C36.8691 43.6452 37.1347 43.2027 38.0197 43.5567C38.3737 43.6894 38.6393 44.3975 38.6393 45.3268C38.6393 46.8757 39.4801 48.867 40.9404 50.7257C41.8697 51.9647 44.3921 53.6021 44.3921 53.0268C44.3921 52.8055 44.2594 52.54 44.0824 52.4515C43.5071 52.2303 42.1795 49.4423 42.1795 48.5573C42.1795 47.5837 44.5249 45.017 45.4542 45.017C45.8082 45.017 46.295 45.3711 46.5605 45.7693C46.8703 46.3889 46.7375 46.6544 45.7197 47.0969C43.9053 47.8492 43.5956 49.4423 44.8789 51.3009C46.3393 53.4693 48.4634 55.6377 49.1272 55.6377C49.8795 55.6377 49.8795 54.7969 49.0829 53.9119C47.8439 52.4958 47.7996 51.3009 48.9944 50.1061C49.9237 49.1768 50.499 48.9998 52.8002 48.9998C54.8801 48.9998 55.4553 49.1326 55.4553 49.6636C55.4553 50.1504 54.9243 50.3274 53.3755 50.3274C51.0301 50.3716 49.7025 51.0797 49.7025 52.363C49.7025 53.2923 54.0835 58.2929 54.9243 58.2929C55.6324 58.2929 55.5881 57.5848 54.7473 56.3015C53.818 54.8854 54.172 54.0446 56.0749 53.2481C57.4467 52.6728 58.022 52.6728 61.4295 53.3808C63.5094 53.7791 65.4565 54.3986 65.722 54.6642C66.0318 54.9739 66.076 55.1952 65.899 55.1952C65.6778 55.1952 65.7663 55.505 66.076 55.859C66.7841 56.6998 66.7841 56.6998 63.6421 55.5935C60.5887 54.5314 56.6502 54.2659 55.8536 55.0624C55.4111 55.505 55.4553 55.8147 56.1634 56.5228C59.3053 59.7532 60.1461 60.5055 60.6329 60.5055C60.8984 60.5055 61.2082 59.7532 61.2967 58.8682C61.3852 57.4521 61.6065 57.1423 62.5358 57.0096C64.0404 56.8325 68.0674 57.7619 70.7226 58.9567C71.9174 59.4877 73.6433 60.1958 74.5283 60.4613C76.6082 61.1251 82.4053 60.9481 83.5559 60.1958C84.0427 59.886 85.0605 59.6205 85.9013 59.6205C86.6979 59.6205 88.2025 59.4435 89.2203 59.2222C90.2381 59.0009 92.7163 58.6027 94.7076 58.2929C98.7347 57.7619 101.567 56.9211 101.478 56.3458C101.346 55.7262 102.496 55.1952 103.956 55.1952C104.665 55.1952 105.461 55.0182 105.727 54.7969C105.948 54.5757 107.231 54.1774 108.559 53.9119C109.886 53.6021 112.63 52.894 114.666 52.2303C117.498 51.3452 118.471 50.8584 118.737 50.1061C119.002 49.3981 120.33 48.6458 123.693 47.3182C130.818 44.4417 135.376 42.0963 134.447 41.7423C133.429 41.3883 134.27 40.3262 135.907 39.928C136.571 39.7952 137.898 39.1757 138.872 38.6004C141.35 37.0515 147.723 33.9981 150.378 33.0688C153.741 31.8739 155.246 32.0509 156.883 33.8653C158.166 35.3699 158.211 35.5469 158.033 38.8216C157.901 40.99 157.591 42.5831 157.104 43.2912C156.706 43.8665 156.352 44.6188 156.352 45.017C156.308 46.8757 152.369 53.1596 148.563 57.3193C147.192 58.8682 146.129 60.1958 146.262 60.2843C146.572 60.6383 152.546 54.9297 154.449 52.4958C156.263 50.1061 158.565 46.1234 160.335 42.4061C162.547 37.6268 163.255 31.3429 161.751 29.5285C160.202 27.6257 155.688 28.3337 150.555 31.2544C148.829 32.2722 147.147 33.0688 146.793 33.0688C143.961 33.0688 151.263 28.732 156.839 27.0946C159.007 26.4751 159.45 26.4751 160.866 27.0504C161.706 27.4044 162.724 28.2009 163.167 28.8205C164.14 30.3693 164.096 35.3699 163.034 39.1757C162.105 42.4946 159.892 47.1854 158.83 48.0705C158.432 48.4245 158.122 48.9113 158.122 49.1768C158.122 49.9291 153.254 56.213 151.351 57.8504C150.422 58.6469 149.448 59.709 149.183 60.24C148.165 62.0986 155.157 55.8147 158.343 51.9205C160.777 48.9998 163.831 44.1762 164.185 42.8044C164.317 42.1849 164.583 41.4768 164.804 41.2555C164.981 40.99 165.645 39.2199 166.265 37.317C167.592 33.29 167.858 27.6699 166.796 25.6343C165.556 23.2446 164.583 22.7578 161.795 23.0234C160.379 23.1561 158.653 23.5544 157.901 23.9527C156.44 24.705 156.219 24.6607 156.617 23.5986C157.016 22.5366 159.759 21.5188 162.415 21.4303C165.114 21.386 166.619 22.2711 167.902 24.6607C169.495 27.6257 168.698 37.14 166.486 41.0343C166.309 41.3883 165.556 42.8929 164.804 44.3532C163.034 47.8935 162.016 49.5751 161.352 50.0176C161.043 50.1946 160.777 50.5486 160.777 50.7699C160.777 51.0354 160.423 51.5665 160.025 52.0532C158.299 53.8676 156.794 55.7705 156.794 56.1245C156.794 56.3458 156.573 56.5228 156.308 56.5228C155.777 56.5228 151.042 61.0808 151.042 61.6119C151.042 61.7446 151.882 61.2578 152.944 60.417C153.962 59.6205 155.069 58.7797 155.378 58.5142C155.732 58.2929 156.662 57.4078 157.458 56.6555C158.255 55.859 159.14 55.1952 159.405 55.1952C159.671 55.1952 159.892 55.0182 159.892 54.7527C159.892 54.5314 160.335 53.8676 160.91 53.2923C162.592 51.478 164.317 49.3538 164.317 49.044C164.317 48.867 164.848 48.0262 165.468 47.1854C166.796 45.4153 169.185 40.5917 169.185 39.6624C169.185 39.3084 169.406 38.7774 169.672 38.5119C170.247 37.9366 171.84 29.9268 171.796 27.7584C171.796 25.3245 170.38 20.5009 169.406 19.5274C168.035 18.1998 166.265 17.4475 164.981 17.6688C164.096 17.8458 163.875 17.7573 164.052 17.2705C164.185 16.9165 164.317 16.4297 164.317 16.2084C164.317 15.4119 166.928 15.8544 168.654 16.9607C172.593 19.5716 174.142 26.0768 172.548 33.8211C171.221 40.5032 167.548 47.6722 162.901 52.7613C162.193 53.5136 161.662 54.2216 161.662 54.3544C161.662 54.5314 159.671 56.39 157.237 58.5142L152.812 62.3642H146.97C142.678 62.3199 140.819 62.4969 139.89 62.9837C139.005 63.4262 138.429 63.5147 137.854 63.205C137.235 62.8067 137.235 62.7624 137.81 62.7182C138.385 62.7182 143.076 58.2044 143.076 57.6734C143.076 57.5406 143.519 56.9653 144.094 56.4343C145.731 54.7969 148.475 49.5308 149.094 46.8314C150.333 41.7423 149.581 39.8394 146.661 40.3262C145.775 40.459 144.359 40.7245 143.519 40.8573C141.35 41.2113 128.915 46.3446 128.915 46.8757C128.915 47.1412 129.269 47.1854 129.712 47.0084C130.11 46.8314 132.278 46.2119 134.447 45.5923C141.217 43.7337 143.917 44.7073 143.961 48.9555C143.961 50.6814 142.766 55.1067 142.147 55.6377C142.014 55.7705 141.173 56.9653 140.332 58.2929C139.492 59.6205 138.341 61.1251 137.81 61.5676C137.323 62.0544 136.881 62.5854 136.881 62.8067C136.881 63.028 135.863 64.2228 134.668 65.4176C133.119 66.9665 132.19 67.586 131.703 67.409C131.305 67.232 130.597 67.4975 130.066 67.9843C129.269 68.7366 125.685 70.0199 123.162 70.4624C122.808 70.5067 122.189 70.6837 121.835 70.8165C120.153 71.436 112.32 71.9228 110.196 71.5688C108.913 71.3475 106.125 70.9492 103.912 70.6837C101.744 70.3739 97.3628 69.7544 94.2651 69.2676C89.8398 68.5596 88.468 68.4711 88.0697 68.8693C87.4059 69.5331 88.7778 70.6837 90.1496 70.6837C91.3887 70.6837 96.522 72.1883 98.1594 73.0291C98.9117 73.3831 100.372 73.9142 101.478 74.2239C102.585 74.4894 104.576 75.0205 105.904 75.3745C107.231 75.6843 110.727 76.2153 113.648 76.4366C116.569 76.7021 119.224 77.0119 119.578 77.1004C119.976 77.2774 119.533 77.9854 118.117 79.5343C115.064 82.809 115.241 83.34 120.197 85.8182C127.056 89.3142 130.862 90.6417 130.021 89.2699C129.889 89.0486 129.225 88.8274 128.65 88.8274C127.499 88.8274 123.472 85.9952 121.436 83.7825C120.507 82.809 120.419 82.3665 120.684 80.6406C120.994 78.2067 121.215 77.7642 122.1 77.7642C122.587 77.7642 122.675 78.2509 122.454 80.1981C122.189 82.4992 122.233 82.6762 123.605 83.9596C125.508 85.7297 131.039 88.8274 132.367 88.8274C132.942 88.8274 133.827 89.0486 134.358 89.3142C136.969 90.7302 147.501 92.1463 147.501 91.0843C147.501 90.863 146.174 90.5532 144.536 90.4205C142.855 90.2435 140.952 89.9779 140.2 89.7567C139.492 89.5354 138.208 89.2256 137.367 89.0486C135.465 88.6504 129.49 85.5084 127.897 84.0038C126.26 82.4992 124.357 79.1802 124.667 78.4279C124.977 77.5429 126.26 78.1182 126.26 79.136C126.26 79.5785 126.481 79.9768 126.702 79.9768C126.968 79.9768 127.145 80.2866 127.145 80.6406C127.145 81.3929 129.535 83.6498 131.615 84.9331C135.951 87.5883 143.563 89.4027 149.935 89.3142C154.67 89.2256 161.485 87.7211 162.769 86.482C163.078 86.1722 162.901 86.1722 162.326 86.3935C159.494 87.4555 156.529 87.9423 152.635 87.9423C147.369 87.9423 143.474 87.3228 139.447 85.9067C135.155 84.4021 133.473 83.4285 130.464 80.6406C128.207 78.5607 127.942 78.2067 128.827 78.2067C129.402 78.2067 130.552 78.9147 131.482 79.7998C132.367 80.6848 134.004 81.8797 135.111 82.455C136.217 83.0302 137.412 83.694 137.766 83.9153C138.12 84.1366 139.713 84.6676 141.306 85.1544C143.607 85.7739 145.731 85.9509 151.705 85.9509C158.52 85.9509 159.494 85.8624 161.883 84.9331C168.61 82.3222 172.504 79.8883 177.461 75.2417C179.054 73.6929 180.558 72.4538 180.735 72.4538C180.956 72.4538 181.133 72.0555 181.133 71.5245C181.133 70.905 181.355 70.6837 181.886 70.7722C182.284 70.8607 182.682 71.1262 182.771 71.3475C182.948 71.8785 178.7 76.4366 178.036 76.4366C177.815 76.4366 177.593 76.6136 177.593 76.8348C177.593 77.4986 169.805 82.9417 166.751 84.3578C165.778 84.8446 165.247 85.2429 165.556 85.2429C165.911 85.2871 167.459 84.7119 169.052 83.9596C170.601 83.2515 172.15 82.632 172.416 82.632C172.725 82.632 173.212 82.2337 173.522 81.7469C174.053 80.8619 175.381 80.5078 175.381 81.2601C175.381 82.4107 164.008 88.4734 160.556 89.1371C159.228 89.4027 158.786 89.6239 159.494 89.6682C160.113 89.6682 161.662 89.4027 162.946 89.0044C164.229 88.6504 165.424 88.4734 165.556 88.6061C165.999 89.0486 164.273 90.155 163.167 90.155C162.636 90.155 161.441 90.4205 160.512 90.7745C159.538 91.0843 157.856 91.4825 156.706 91.6596C154.892 91.9251 154.626 92.1021 154.715 92.9429C154.803 93.9165 154.67 93.9165 149.183 94.005C146.085 94.0492 143.43 93.8722 143.297 93.6509C142.943 93.1199 139.536 93.1199 139.536 93.6952C139.536 93.9607 140.2 94.1377 140.996 94.1377C141.748 94.1377 142.722 94.359 143.076 94.5802C143.917 95.1113 141.527 95.1113 138.695 94.536ZM153.652 92.5446C154.095 92.1021 153.343 92.0136 151.351 92.2348C149.891 92.4119 149.404 92.6331 149.802 92.8986C150.333 93.2527 153.21 92.9871 153.652 92.5446ZM115.772 84.7561C115.285 84.1808 114.621 83.2515 114.312 82.7205C113.869 81.7912 113.958 81.5257 115.374 80.2423C116.259 79.49 116.967 78.6935 116.967 78.5165C116.967 78.0297 114.843 78.1624 114.666 78.6492C114.621 78.8705 113.471 79.313 112.188 79.667C110.948 79.9768 109.665 80.4636 109.444 80.6848C108.869 81.2601 109.355 82.632 110.108 82.632C110.417 82.632 111.214 83.0745 111.922 83.6498C114.444 85.6412 117.365 86.482 115.772 84.7561ZM107.32 80.4193C107.629 79.9325 108.205 79.5343 108.603 79.5343C109.001 79.5343 109.577 79.2245 109.886 78.8705C110.329 78.2952 110.285 78.2067 109.532 78.2067C108.603 78.2067 104.045 79.136 103.735 79.4015C103.647 79.4458 103.912 79.9325 104.355 80.4193C105.373 81.5699 106.612 81.5699 107.32 80.4193ZM122.941 69.3561C123.074 69.1348 122.897 68.4711 122.543 67.94C122.144 67.409 121.835 66.6124 121.835 66.1699C121.835 64.8423 119.356 62.5412 117.144 61.7004C114.489 60.7711 105.417 60.6825 101.036 61.6119C99.4427 61.9216 98.4691 62.2314 98.8232 62.2314C110.506 63.1165 114.71 64.0458 117.454 66.2584C118.383 66.9665 119.268 67.586 119.489 67.586C119.666 67.586 120.33 68.117 120.905 68.6923C122.012 69.8871 122.498 70.0642 122.941 69.3561ZM117.409 68.0728C116.834 67.6745 116.038 67.055 115.639 66.7009C115.02 66.0814 113.382 65.5061 109.4 64.4883C107.408 63.9573 91.7427 63.6917 92.0082 64.1343C92.141 64.3555 92.8933 64.4883 93.6456 64.4883C96.3892 64.444 106.612 65.8601 108.559 66.5239C109.665 66.9222 111.347 67.3647 112.32 67.586C113.294 67.8073 114.975 68.2498 116.082 68.6038C118.383 69.3561 119.002 69.1348 117.409 68.0728ZM109.577 68.4268C108.78 67.6302 99.841 66.1699 95.0617 65.9929L90.6364 65.8601L93.5128 66.5239C95.1059 66.8337 97.8053 67.232 99.4869 67.3647C101.213 67.4532 103.691 67.8515 105.019 68.2055C108.028 69.0021 110.285 69.1348 109.577 68.4268ZM125.729 67.7188C125.994 67.0107 126.525 65.2848 126.879 63.8688C127.455 61.6119 127.455 61.0366 126.924 59.7532C126.039 57.5848 123.87 56.7883 119.843 57.1423C112.32 57.7619 107.054 58.5142 106.877 59.0894C106.744 59.4877 107.762 59.6205 111.081 59.6205C113.648 59.6205 116.303 59.886 117.586 60.2843C120.197 61.0808 122.72 62.8952 122.72 64.0015C122.72 64.444 123.029 65.4176 123.383 66.0814C123.738 66.7894 124.047 67.7188 124.047 68.1613C124.047 69.3561 125.198 69.0463 125.729 67.7188ZM131.261 63.6032C133.119 60.9923 134.624 57.1423 134.668 55.1067C134.668 53.8234 134.402 53.2923 133.385 52.5843C131.792 51.4337 129.756 51.3894 125.154 52.4958C123.206 52.9826 120.728 53.5578 119.622 53.7791C113.471 55.1509 109.754 56.8325 114.09 56.2573C115.329 56.0803 116.657 55.7705 117.055 55.5935C118.294 54.9297 122.587 55.1509 124.578 55.9032C125.64 56.3458 127.012 57.1423 127.72 57.7619C128.738 58.7354 128.915 59.2665 128.915 61.1251C128.871 62.3642 128.605 64.1785 128.251 65.1521C126.879 69.0021 127.809 68.4711 131.261 63.6032ZM136.128 61.7446C141.35 54.8854 143.607 49.8406 142.279 47.8492C141.704 47.0084 139.801 46.1676 138.651 46.3004C134.889 46.6544 123.074 50.1946 121.215 51.478C120.463 52.009 120.64 52.0532 122.764 51.7877C124.092 51.655 125.375 51.3894 125.596 51.2124C125.862 51.0354 127.588 50.7257 129.446 50.5486C132.721 50.2831 132.942 50.3274 134.447 51.4337C135.907 52.5843 135.996 52.7613 135.996 55.2837C135.996 57.6291 135.73 58.5584 134.27 61.2136C134.137 61.4791 133.694 62.1871 133.296 62.7624C132.854 63.3377 132.411 64.3113 132.234 64.8866L131.88 65.9929L133.296 64.7981C134.048 64.1785 135.332 62.8067 136.128 61.7446ZM69.749 60.9923C71.0324 60.5055 69.926 59.8417 66.3416 58.9567C62.9341 58.1159 61.7835 58.5142 63.1553 60.0188C64.1732 61.1251 67.9789 61.7004 69.749 60.9923ZM145.377 58.6469C146.97 57.0981 148.74 55.1509 149.271 54.3101C149.847 53.4693 150.732 52.2745 151.263 51.655C153.741 48.867 156.794 41.2113 156.794 37.8038C156.794 36.3435 156.529 35.6354 155.777 34.9274C154.759 33.9538 154.67 33.9538 151.661 34.6176C149.979 35.0159 147.988 35.5912 147.192 35.9452C146.439 36.2992 145.51 36.609 145.156 36.609C144.758 36.609 144.359 36.786 144.182 37.0073C144.05 37.2728 142.412 38.2021 140.509 39.0871C136.969 40.813 136.969 41.7423 140.554 40.4147C142.855 39.5739 144.448 39.2199 147.192 38.9544C148.962 38.7774 149.448 38.9101 150.333 39.7952C151.927 41.4326 152.104 42.9371 150.953 46.4774C149.802 50.2389 147.28 54.7527 144.846 57.5406C143.873 58.6469 143.076 59.7532 143.076 60.0188C143.076 60.2843 142.899 60.5055 142.633 60.5055C142.412 60.5055 142.191 60.7268 142.191 60.9481C142.191 61.6119 142.279 61.5676 145.377 58.6469ZM105.24 59.6205C105.373 59.3992 105.196 59.178 104.842 59.178C104.488 59.178 104.045 59.3992 103.912 59.6205C103.779 59.886 103.956 60.063 104.311 60.063C104.665 60.063 105.107 59.886 105.24 59.6205Z" fill="black"/>
<path d="M145.731 83.9159C141.66 82.8538 140.376 82.3671 137.013 80.774C134.978 79.8004 133.473 78.8268 133.606 78.6056C133.96 77.986 134.933 78.1188 136.615 79.1366C137.456 79.6234 139.801 80.6412 141.837 81.3493C145.023 82.5441 146.306 82.7211 151.484 82.9424C156.662 83.1194 157.945 83.0309 161.22 82.1901C163.299 81.659 165.424 80.951 165.955 80.597C166.486 80.2429 167.238 79.9774 167.548 79.9774C167.902 79.9774 168.521 79.5791 168.964 79.0924C169.406 78.6056 170.07 78.2073 170.468 78.2073C170.867 78.2073 171.442 77.809 171.752 77.3222C172.062 76.8355 172.548 76.4372 172.858 76.4372C173.61 76.4372 177.151 72.7199 180.602 68.2947C184.364 63.4711 185.559 61.5682 185.559 60.5062C185.559 60.0194 185.868 59.6211 186.222 59.6211C186.576 59.6211 186.886 59.9309 186.886 60.2849C186.886 61.2142 183.744 67.1441 183.258 67.1441C183.036 67.1441 182.726 67.4981 182.594 67.8964C182.107 69.1355 173.964 77.7648 173.256 77.7648C173.035 77.7648 172.504 78.163 172.062 78.6498C170.867 79.9774 166.353 82.1458 162.326 83.3406C159.361 84.2257 157.856 84.3584 153.033 84.3584C149.891 84.3584 146.572 84.1372 145.731 83.9159Z" fill="black"/>
<path d="M233.44 81.7033C230.298 80.774 227.156 76.4814 227.156 73.0297C227.156 70.463 230.121 65.8165 231.759 65.8165C232.113 65.8165 232.599 65.5067 232.821 65.1084C233.13 64.5331 233.927 64.4004 236.184 64.4004C239.282 64.4004 240.432 64.8872 240.432 66.3033C240.432 67.3211 239.857 67.3653 239.105 66.4803C238.751 66.0377 237.777 65.8165 236.272 65.8607C234.458 65.8607 233.617 66.1705 232.024 67.3211C230.387 68.5159 229.944 69.1797 229.413 71.0383C228.572 74.136 229.059 76.1274 231.095 78.34C232.732 80.1102 232.909 80.1544 235.609 80.1544C237.157 80.1987 238.883 80.0217 239.459 79.8446C241.14 79.2251 240.653 80.8182 238.883 81.5705C237.157 82.2785 235.609 82.3228 233.44 81.7033Z" fill="black"/>
<path d="M254.814 81.3931C249.991 79.0477 248.044 74.1357 250.124 69.5776C251.097 67.4092 252.159 66.4357 254.903 65.1966C257.337 64.046 260.434 64.046 261.629 65.1081C262.072 65.5064 262.603 65.8161 262.824 65.8161C263.576 65.8161 265.568 68.1615 266.276 69.8874C269.241 77.0121 261.629 84.6236 254.814 81.3931ZM260.656 80.0213C263.399 79.2248 265.214 76.5696 265.214 73.2949C265.214 67.6748 259.549 64.1345 254.859 66.8339C252.38 68.2058 251.363 69.7989 251.141 72.5868C250.699 78.0299 255.213 81.5702 260.656 80.0213Z" fill="black"/>
<path d="M275.524 80.7292C275.657 79.9326 276.143 77.6315 276.542 75.5516C276.94 73.4717 277.471 70.2413 277.781 68.3826C278.046 66.524 278.4 64.8867 278.533 64.7097C278.71 64.5769 279.285 65.7275 279.861 67.2321C280.436 68.7809 281.144 70.2855 281.454 70.5953C281.764 70.9051 282.029 71.5246 282.029 71.8786C282.029 72.8079 284.242 77.3217 284.684 77.3217C284.861 77.3217 286.189 74.5338 287.605 71.1263C289.021 67.7631 290.304 65.0637 290.437 65.1964C290.703 65.462 291.499 69.3562 292.252 73.7815C292.517 75.3746 292.96 77.6757 293.269 78.9591C293.933 81.57 293.668 82.4993 292.517 81.6142C291.853 81.1275 291.189 78.5608 290.526 73.5602C290.349 72.1884 289.995 71.3476 289.641 71.3476C289.331 71.3476 288.092 73.6045 286.941 76.3482C285.791 79.0476 284.684 81.4372 284.552 81.57C284.419 81.747 284.153 81.2602 283.976 80.5964C283.799 79.8884 283.401 78.8263 283.091 78.2068C282.206 76.4367 280.79 73.2062 280.48 72.1441C280.126 70.9493 279.064 70.8165 278.754 71.9229C278.666 72.3211 278.223 74.7108 277.781 77.189C277.161 80.9062 276.852 81.7028 276.143 81.924C275.391 82.101 275.303 81.9683 275.524 80.7292Z" fill="black"/>
<path d="M303.581 81.525C302.829 80.9498 302.785 80.3745 303.05 72.9842L303.404 65.0187L305.219 64.8417C309.201 64.4434 312.211 66.2578 312.299 69.1785C312.343 70.1963 312.034 71.3911 311.591 72.0992C310.794 73.2498 307.564 74.8429 306.325 74.6658C304.909 74.4446 304.82 74.7101 304.953 78.0291C305.174 81.6578 304.82 82.4544 303.581 81.525ZM309.378 72.0107C310.662 71.2141 310.839 70.9044 310.706 69.4883C310.529 67.6296 309.157 66.3463 306.767 65.9923C304.82 65.6825 304.688 65.948 304.953 69.9308L305.13 72.8957H306.546C307.298 72.8957 308.582 72.4975 309.378 72.0107Z" fill="black"/>
<path d="M318.316 81.5698C318.316 81.2158 318.538 80.7733 318.759 80.6405C319.024 80.5078 319.201 79.9325 319.201 79.4014C319.201 78.8704 319.6 77.9411 320.087 77.3216C320.573 76.702 320.972 75.994 320.972 75.6842C320.972 75.4187 322.122 72.7635 323.538 69.7543L326.149 64.3555L327.078 66.3468C327.61 67.4089 328.052 68.4267 328.052 68.6037C328.052 68.9135 330.176 73.6928 331.592 76.6578C332.079 77.6313 332.477 78.6049 332.477 78.8262C332.477 79.0917 332.92 79.7112 333.451 80.2865C334.557 81.4813 334.115 82.2779 332.61 81.7468C332.035 81.4813 331.548 80.8175 331.371 79.8882C330.84 77.4986 330.53 77.3216 326.061 77.3216C321.635 77.3216 321.547 77.3658 320.529 79.9767C319.732 82.0124 318.316 83.0302 318.316 81.5698ZM328.804 74.7106C328.45 72.9848 326.282 68.471 325.795 68.471C325.574 68.471 325.397 68.7365 325.397 69.0463C325.397 69.356 324.777 70.8164 324.069 72.3652C323.317 73.8698 322.83 75.3302 322.963 75.5514C323.096 75.817 324.556 75.994 326.149 75.994H329.07L328.804 74.7106Z" fill="black"/>
<path d="M343.673 81.8791C343.23 81.7021 343.098 79.5779 343.098 73.2055V64.709L348.983 70.8159C352.169 74.1348 354.957 76.8785 355.134 76.8785C355.311 76.8785 355.533 74.1348 355.577 70.8159C355.71 65.063 355.754 64.709 356.595 64.709C357.436 64.709 357.48 65.063 357.613 70.9044C357.745 77.8078 357.48 80.8613 356.683 80.817C356.374 80.817 353.851 78.2504 351.063 75.1084C348.275 71.9665 345.753 69.3998 345.487 69.3998C344.647 69.3113 344.558 70.1078 344.647 75.8607C344.735 81.3923 344.602 82.1889 343.673 81.8791Z" fill="black"/>
<path d="M367.879 73.2941C367.879 65.3728 367.967 64.4435 368.587 64.6647C368.985 64.7975 369.384 64.9303 369.472 64.9303C369.738 64.9303 369.693 80.7285 369.384 81.4808C369.251 81.8791 368.852 82.1889 368.498 82.1889C367.967 82.1889 367.879 80.5958 367.879 73.2941Z" fill="black"/>
<path d="M378.943 81.6589C378.943 81.3934 379.651 79.7118 380.492 78.0302C382.528 73.8704 384.519 69.4009 384.917 68.029C385.581 65.9492 387.351 63.9578 387.351 65.3296C387.351 65.5509 388.369 67.8078 389.564 70.3745C390.803 72.9411 391.777 75.1538 391.777 75.2865C391.777 75.4635 392.396 76.8796 393.149 78.4727C393.901 80.0658 394.388 81.4819 394.255 81.6147C393.724 82.1457 392.617 81.2164 391.865 79.6676C391.467 78.7382 390.936 77.8532 390.67 77.6762C390.272 77.3664 382.528 77.5434 382.262 77.8532C382.174 77.9417 381.82 78.7382 381.466 79.6233C380.758 81.2607 378.943 82.7653 378.943 81.6589ZM389.653 74.7112C389.564 74.0917 389.21 73.2066 388.9 72.7199C388.59 72.1888 388.104 71.0382 387.794 70.1532C387.219 68.2061 386.732 68.0733 385.935 69.4894C385.227 70.7727 383.369 75.2423 383.369 75.6848C383.369 75.8618 384.829 75.9946 386.599 75.9061C389.697 75.7733 389.785 75.729 389.653 74.7112Z" fill="black"/>
<path d="M143.828 79.7561C139.624 78.6498 139.314 78.4728 139.713 77.8532C139.845 77.632 141.969 77.8975 144.713 78.4728C150.333 79.6676 156.971 79.8446 159.671 78.871C160.644 78.517 162.016 78.2515 162.68 78.2073C163.388 78.2073 164.45 77.809 165.069 77.3222C165.689 76.8354 166.574 76.4371 167.061 76.4371C168.256 76.4371 173.522 72.8969 175.646 70.5958C178.965 67.0555 181.532 63.6038 182.682 61.0814C183.036 60.3291 183.523 59.5768 183.788 59.3998C184.01 59.267 184.231 58.8245 184.231 58.4262C184.231 58.0279 184.496 57.3641 184.851 57.0101C185.16 56.6118 185.647 55.5055 185.913 54.532C186.178 53.5584 186.665 51.8325 187.019 50.7262C187.373 49.6199 187.55 48.4251 187.329 48.1153C187.107 47.7613 186.621 48.7791 186.045 50.8147C185.47 52.6291 184.585 55.1073 184.01 56.3021C183.434 57.5412 182.903 58.8245 182.815 59.1785C182.726 59.5325 182.328 60.1078 181.93 60.4176C181.487 60.7274 181.133 61.2584 181.133 61.6124C181.133 63.1613 173.787 70.3302 169.672 72.8084C167.946 73.8262 166.309 74.667 166.043 74.667C165.822 74.667 164.76 75.0653 163.742 75.5078C162.68 75.9946 160.556 76.3929 158.786 76.4814C157.104 76.5699 155.555 76.8354 155.422 77.0124C154.847 77.809 144.226 77.1452 144.492 76.3486C144.58 76.0831 147.191 75.8618 150.82 75.7733C159.405 75.6406 165.069 74.136 170.734 70.463C173.433 68.6929 178.788 63.294 179.717 61.4354C180.071 60.6831 180.514 60.0636 180.735 60.0636C180.956 60.0636 181.133 59.7095 181.133 59.2228C181.133 58.7802 181.443 58.1607 181.797 57.8509C182.151 57.5412 182.461 57.0986 182.461 56.8331C182.461 56.4791 183.744 53.5141 185.205 50.6377C185.382 50.2394 185.691 48.6463 185.868 47.0975C186.001 45.5929 186.267 44.1768 186.444 43.9113C187.107 43.0705 187.727 38.5124 187.329 37.2291C186.93 35.8573 186.886 35.9458 186.665 38.3797C186.621 39.2205 186.222 41.0348 185.824 42.3624C185.426 43.69 185.116 45.4159 185.116 46.2124C185.116 46.9647 184.939 47.7613 184.673 47.894C184.452 48.0268 184.231 48.4693 184.231 48.8676C184.231 49.2659 183.833 50.4607 183.346 51.5228C182.859 52.5848 182.063 54.3107 181.532 55.3728C181.045 56.4348 180.337 57.5854 179.983 57.8509C179.673 58.1607 179.363 58.6032 179.363 58.8245C179.363 59.3998 176 63.3825 173.964 65.2412C170.601 68.3389 166.397 70.6843 161.751 72.0561C156.661 73.5607 155.776 73.7377 152.679 74.0032C149.846 74.2245 149.669 74.2245 150.112 73.4279C150.466 72.7641 151.263 72.5429 154.006 72.3216C155.909 72.1889 158.874 71.6136 160.556 71.0825C163.609 70.109 168.742 67.5866 170.114 66.436C170.468 66.082 170.955 65.8164 171.132 65.8164C172.106 65.8164 178.478 58.559 179.717 56.0808C179.983 55.4613 180.425 54.6647 180.646 54.3107C181.532 52.8061 182.859 49.5756 183.08 48.4693C183.169 47.8498 183.479 46.9205 183.744 46.4337C184.01 45.9027 184.231 45.0176 184.231 44.3981C184.231 43.7785 184.496 42.4067 184.851 41.3889C185.514 39.4417 185.957 34.0871 186.001 28.29C186.001 26.2544 186.178 25.1481 186.444 25.3251C186.709 25.5021 186.886 27.759 186.886 30.6797V35.7245H188.037C189.099 35.7245 189.143 35.813 188.878 37.8486C188.568 40.017 187.904 43.9113 187.461 46.0797C187.24 47.2302 187.329 47.3187 188.169 47.0975C188.966 46.9205 189.099 47.0532 189.099 48.0268C189.099 49.3986 186.665 56.4791 186.001 57.1429C185.78 57.3641 185.559 58.0279 185.559 58.559C185.559 59.09 185.249 59.7538 184.895 60.0636C184.541 60.3733 184.231 60.9929 184.231 61.4354C184.231 61.9222 184.054 62.2762 183.788 62.2762C183.567 62.2762 183.036 62.94 182.682 63.7366C181.62 65.905 180.823 67.2325 180.292 67.5423C180.027 67.7193 179.275 68.5601 178.611 69.4452C176.929 71.6578 171.044 76.4371 170.07 76.4371C169.628 76.4371 169.096 76.6584 168.964 76.8797C168.477 77.632 165.114 79.0923 162.105 79.8446C160.467 80.2429 156.75 80.5969 153.475 80.6854C148.563 80.7739 147.147 80.6412 143.828 79.7561Z" fill="black"/>
<path d="M154.007 70.8614C153.343 70.1976 153.741 69.7993 155.6 69.3125C156.618 69.0027 157.768 68.516 158.167 68.1619C158.521 67.8522 159.273 67.5867 159.804 67.5867C160.778 67.5867 166.796 64.5332 168.743 63.0729C172.859 59.9752 178.302 53.2045 179.452 49.797C179.718 49.0005 180.205 48.0269 180.514 47.6286C180.868 47.2746 181.134 46.5665 181.134 46.0798C181.134 45.6372 181.532 44.0441 181.975 42.5838C183.081 39.0436 183.966 28.2901 183.391 25.2809C182.594 21.0769 182.683 16.3418 183.568 17.2269C184.01 17.6694 185.117 26.7855 185.117 30.1487C185.117 33.866 184.586 37.7602 183.568 41.0349C183.258 42.1413 182.816 43.9556 182.683 45.1062C182.506 46.2568 182.108 47.4516 181.754 47.7171C181.4 47.9826 181.134 48.5579 181.134 48.9562C181.134 49.3545 180.824 50.151 180.47 50.7706C180.16 51.3901 179.541 52.5407 179.187 53.293C177.904 56.0809 171.221 63.6039 170.071 63.6039C169.894 63.6039 169.495 63.9137 169.141 64.3119C168.832 64.7102 167.858 65.374 167.017 65.8165C162.238 68.2947 158.786 69.8435 157.326 70.1976C156.441 70.4188 155.379 70.7286 154.981 70.8614C154.627 71.0384 154.184 70.9941 154.007 70.8614Z" fill="black"/>
<path d="M156.439 66.8781C156.528 66.3028 159.36 64.4442 162.546 62.8511C165.777 61.258 171.972 55.6379 174.362 52.0977C176.486 48.9557 179.23 42.8046 179.584 40.3707C179.716 39.1758 180.159 37.6712 180.557 37.096C181.133 36.2109 181.177 34.7948 181 28.4666C180.867 23.8643 180.513 20.0143 180.115 18.6868C179.761 17.4919 179.318 15.5006 179.141 14.2615L178.831 12.0488L179.761 13.1109C180.248 13.6862 180.779 14.7925 180.911 15.5448C181.044 16.2971 181.442 18.731 181.796 20.8994C182.549 25.5017 182.637 32.4937 181.973 35.0603C181.708 36.0339 181.354 38.0253 181.133 39.4856C180.956 40.946 180.513 42.8488 180.159 43.6896C179.761 44.5304 179.141 46.035 178.699 47.0086C177.15 50.6373 174.627 54.1776 170.733 58.1603C168.565 60.4172 166.485 62.2758 166.175 62.2758C165.865 62.2758 165.29 62.6741 164.892 63.1609C164.449 63.6477 163.785 64.046 163.387 64.046C162.945 64.046 162.546 64.2672 162.458 64.4885C162.369 64.754 161.44 65.2408 160.378 65.6391C159.36 65.9931 158.165 66.5684 157.811 66.9224C156.971 67.8074 156.262 67.7632 156.439 66.8781Z" fill="black"/>
<path d="M156.793 63.3822C156.793 63.0282 157.545 62.4086 158.475 62.0103C159.36 61.5678 160.643 60.8155 161.307 60.3287C161.926 59.7977 162.856 59.0896 163.342 58.7356C165.644 56.9213 167.015 55.5494 169.759 52.2305C175.999 44.7075 179.052 34.4851 178.034 24.4397C177.548 19.8816 176.884 16.7397 175.777 14.2172C174.892 12.0931 174.671 10.5 175.335 10.5C175.822 10.5 177.326 13.996 178.565 17.9345C179.362 20.4569 179.495 22.0057 179.45 27.9799C179.45 33.954 179.318 35.5029 178.521 37.8925C177.99 39.4414 177.592 40.9017 177.592 41.123C177.592 42.2293 172.945 50.8144 171.618 52.1419C170.777 52.9828 170.069 53.7793 170.069 53.9563C170.025 54.9741 162.059 61.8333 160.023 62.6741C159.227 63.0282 158.563 63.4264 158.563 63.6477C158.563 63.869 158.165 64.046 157.678 64.046C157.191 64.046 156.793 63.7362 156.793 63.3822Z" fill="black"/>
<path d="M153.695 62.9835C153.695 62.6295 154.802 61.6117 156.129 60.7266C157.457 59.7973 158.563 58.9123 158.563 58.691C158.563 58.4697 158.829 58.2927 159.183 58.2927C159.935 58.2927 166.13 52.0531 167.723 49.6634C169.98 46.256 170.334 45.6807 171.795 42.6715C174.273 37.5824 175.069 33.9979 175.069 27.7583C175.114 20.6778 173.83 16.3853 170.91 13.6416C170.202 12.9778 170.069 12.5795 170.423 12.0042C170.821 11.2962 170.954 11.3404 171.883 12.3583C173.255 13.8629 174.671 16.695 175.689 20.014C177.503 26.0766 176.043 37.7152 172.636 44.1318C171.839 45.6807 170.91 47.4065 170.556 48.0703C170.202 48.6899 169.671 49.3979 169.317 49.5749C169.007 49.7519 168.741 50.1502 168.741 50.4157C168.741 50.637 168.343 51.3008 167.856 51.8318C167.369 52.3186 166.13 53.6904 165.113 54.841C162.369 57.806 156.749 62.2312 154.049 63.5146C153.828 63.6031 153.695 63.3818 153.695 62.9835Z" fill="black"/>
<path d="M367.879 62.2312C367.879 61.7001 370.136 59.1777 370.623 59.1777C371.375 59.1777 370.932 60.8593 369.959 61.7444C368.852 62.8065 367.879 63.0277 367.879 62.2312Z" fill="black"/>
<path d="M346.462 61.9219C346.374 61.7449 346.374 61.3467 346.551 61.0811C347.126 60.1961 348.764 60.0191 350.401 60.6829C351.64 61.2139 352.171 61.2581 352.835 60.8599C353.808 60.2403 354.384 60.5944 354.03 61.6122C353.72 62.4087 351.197 62.4972 349.604 61.7892C348.808 61.4352 348.277 61.4352 347.613 61.7892C347.126 62.0547 346.595 62.099 346.462 61.9219Z" fill="black"/>
</svg>
