<svg width="510" height="175" viewBox="0 0 510 175" fill="none" xmlns="http://www.w3.org/2000/svg">
<path d="M91.356 25.252C93.4413 25.252 95.5947 25.456 97.816 25.864C100.037 26.2267 101.805 26.748 103.12 27.428C103.483 27.6093 103.709 27.8133 103.8 28.04C103.936 28.2213 104.049 28.5613 104.14 29.06L104.888 37.288C104.888 37.424 104.775 37.5147 104.548 37.56C104.321 37.56 104.185 37.492 104.14 37.356C102.961 33.82 101.035 31.1907 98.36 29.468C95.6853 27.7 92.4667 26.816 88.704 26.816C85.3947 26.816 82.516 27.5867 80.068 29.128C77.62 30.624 75.7387 32.7547 74.424 35.52C73.1547 38.2853 72.52 41.4813 72.52 45.108C72.52 49.324 73.336 53.2 74.968 56.736C76.6 60.272 78.7987 63.0827 81.564 65.168C84.3747 67.208 87.4347 68.228 90.744 68.228C97.272 68.228 101.941 64.488 104.752 57.008C104.752 56.872 104.843 56.804 105.024 56.804C105.16 56.804 105.273 56.8267 105.364 56.872C105.5 56.9173 105.568 56.9853 105.568 57.076L104.616 65.304C104.525 65.848 104.412 66.2107 104.276 66.392C104.185 66.528 103.936 66.6867 103.528 66.868C99.3573 68.5 95.096 69.316 90.744 69.316C85.2587 69.316 80.68 68.228 77.008 66.052C73.336 63.8307 70.6387 61.02 68.916 57.62C67.1933 54.22 66.332 50.6613 66.332 46.944C66.332 42.728 67.488 38.988 69.8 35.724C72.1573 32.4147 75.24 29.8533 79.048 28.04C82.9013 26.1813 87.004 25.252 91.356 25.252ZM134.056 69.316C129.84 69.316 126.078 68.3413 122.768 66.392C119.504 64.3973 116.966 61.7227 115.152 58.368C113.384 54.968 112.5 51.2733 112.5 47.284C112.5 42.6147 113.679 38.6253 116.036 35.316C118.394 31.9613 121.408 29.4453 125.08 27.768C128.798 26.0907 132.583 25.252 136.436 25.252C140.743 25.252 144.528 26.272 147.792 28.312C151.056 30.3067 153.55 32.9587 155.272 36.268C157.04 39.5773 157.924 43.0907 157.924 46.808C157.924 50.9333 156.836 54.7187 154.66 58.164C152.484 61.6093 149.56 64.3293 145.888 66.324C142.262 68.3187 138.318 69.316 134.056 69.316ZM136.436 67.82C139.338 67.82 141.944 67.072 144.256 65.576C146.568 64.08 148.382 61.904 149.696 59.048C151.056 56.1467 151.736 52.7013 151.736 48.712C151.736 44.496 150.988 40.7333 149.492 37.424C148.042 34.1147 145.934 31.5307 143.168 29.672C140.448 27.8133 137.275 26.884 133.648 26.884C128.934 26.884 125.262 28.4933 122.632 31.712C120.003 34.8853 118.688 39.2827 118.688 44.904C118.688 49.2107 119.436 53.1093 120.932 56.6C122.428 60.0907 124.514 62.8333 127.188 64.828C129.908 66.8227 132.991 67.82 136.436 67.82ZM175.103 62.72C175.103 63.9893 175.216 64.9187 175.443 65.508C175.715 66.052 176.191 66.4373 176.871 66.664C177.551 66.8453 178.616 66.936 180.067 66.936H185.847C188.703 66.936 191.06 66.0973 192.919 64.42C194.823 62.6973 196.092 60.3853 196.727 57.484C196.727 57.348 196.84 57.3027 197.067 57.348C197.339 57.348 197.475 57.416 197.475 57.552C197.067 61.5413 196.863 64.8507 196.863 67.48C196.863 67.8427 196.772 68.1147 196.591 68.296C196.455 68.432 196.205 68.5 195.843 68.5H164.155C164.064 68.5 164.019 68.364 164.019 68.092C164.019 67.82 164.064 67.684 164.155 67.684C165.787 67.684 166.965 67.5707 167.691 67.344C168.461 67.1173 168.983 66.6867 169.255 66.052C169.527 65.372 169.663 64.352 169.663 62.992V31.508C169.663 30.148 169.527 29.1507 169.255 28.516C168.983 27.8813 168.461 27.4507 167.691 27.224C166.965 26.952 165.787 26.816 164.155 26.816C164.064 26.816 164.019 26.68 164.019 26.408C164.019 26.136 164.064 26 164.155 26L167.555 26.068C169.549 26.1587 171.159 26.204 172.383 26.204C173.607 26.204 175.216 26.1587 177.211 26.068L180.611 26C180.701 26 180.747 26.136 180.747 26.408C180.747 26.68 180.701 26.816 180.611 26.816C179.024 26.816 177.845 26.952 177.075 27.224C176.304 27.4507 175.783 27.904 175.511 28.584C175.239 29.2187 175.103 30.216 175.103 31.576V62.72ZM231.89 58.164C231.89 58.0733 231.981 58.028 232.162 58.028C232.298 58.028 232.412 58.0733 232.502 58.164C232.638 58.2093 232.706 58.2547 232.706 58.3C232.253 61.564 232.026 64.624 232.026 67.48C232.026 67.8427 231.958 68.1147 231.822 68.296C231.686 68.432 231.414 68.5 231.006 68.5H202.038C201.902 68.5 201.834 68.364 201.834 68.092C201.834 67.82 201.902 67.684 202.038 67.684C203.67 67.684 204.849 67.5707 205.574 67.344C206.3 67.1173 206.798 66.6867 207.07 66.052C207.342 65.372 207.478 64.352 207.478 62.992V31.508C207.478 30.148 207.342 29.1507 207.07 28.516C206.798 27.8813 206.277 27.4507 205.506 27.224C204.781 26.952 203.625 26.816 202.038 26.816C201.902 26.816 201.834 26.68 201.834 26.408C201.834 26.136 201.902 26 202.038 26H229.782C230.236 26 230.462 26.204 230.462 26.612L230.598 35.18C230.598 35.316 230.462 35.4067 230.19 35.452C229.964 35.452 229.828 35.384 229.782 35.248C229.465 32.7547 228.581 30.8733 227.13 29.604C225.68 28.2893 223.776 27.632 221.418 27.632H217.95C215.956 27.632 214.618 27.9267 213.938 28.516C213.258 29.06 212.918 30.148 212.918 31.78V45.584H220.398C222.71 45.584 224.41 45.1987 225.498 44.428C226.586 43.612 227.13 42.3653 227.13 40.688C227.13 40.5973 227.244 40.552 227.47 40.552C227.742 40.552 227.878 40.5973 227.878 40.688L227.81 46.4L227.878 49.46C227.969 50.9107 228.014 52.044 228.014 52.86C228.014 52.9507 227.878 52.996 227.606 52.996C227.334 52.996 227.198 52.9507 227.198 52.86C227.198 50.9107 226.632 49.4827 225.498 48.576C224.41 47.624 222.642 47.148 220.194 47.148H212.918V62.72C212.918 64.352 213.213 65.4627 213.802 66.052C214.437 66.6413 215.684 66.936 217.542 66.936H221.962C224.546 66.936 226.677 66.188 228.354 64.692C230.077 63.1507 231.256 60.9747 231.89 58.164ZM265.006 25.252C267.091 25.252 269.244 25.456 271.466 25.864C273.687 26.2267 275.455 26.748 276.77 27.428C277.132 27.6093 277.359 27.8133 277.45 28.04C277.586 28.2213 277.699 28.5613 277.79 29.06L278.538 37.288C278.538 37.424 278.424 37.5147 278.198 37.56C277.971 37.56 277.835 37.492 277.79 37.356C276.611 33.82 274.684 31.1907 272.01 29.468C269.335 27.7 266.116 26.816 262.354 26.816C259.044 26.816 256.166 27.5867 253.718 29.128C251.27 30.624 249.388 32.7547 248.074 35.52C246.804 38.2853 246.17 41.4813 246.17 45.108C246.17 49.324 246.986 53.2 248.618 56.736C250.25 60.272 252.448 63.0827 255.214 65.168C258.024 67.208 261.084 68.228 264.394 68.228C270.922 68.228 275.591 64.488 278.402 57.008C278.402 56.872 278.492 56.804 278.674 56.804C278.81 56.804 278.923 56.8267 279.014 56.872C279.15 56.9173 279.218 56.9853 279.218 57.076L278.266 65.304C278.175 65.848 278.062 66.2107 277.926 66.392C277.835 66.528 277.586 66.6867 277.178 66.868C273.007 68.5 268.746 69.316 264.394 69.316C258.908 69.316 254.33 68.228 250.658 66.052C246.986 63.8307 244.288 61.02 242.566 57.62C240.843 54.22 239.982 50.6613 239.982 46.944C239.982 42.728 241.138 38.988 243.45 35.724C245.807 32.4147 248.89 29.8533 252.698 28.04C256.551 26.1813 260.654 25.252 265.006 25.252ZM296.35 27.36C293.539 27.36 291.341 28.1533 289.754 29.74C288.167 31.2813 286.989 33.7747 286.218 37.22C286.173 37.3107 286.014 37.356 285.742 37.356C285.515 37.356 285.402 37.3107 285.402 37.22C285.583 35.9053 285.787 33.82 286.014 30.964C286.241 28.108 286.354 25.9547 286.354 24.504C286.354 24.2773 286.49 24.164 286.762 24.164C287.034 24.164 287.17 24.2773 287.17 24.504C287.17 25.5013 288.417 26 290.91 26C294.763 26.136 299.319 26.204 304.578 26.204C307.253 26.204 310.086 26.1587 313.078 26.068L317.702 26C319.379 26 320.603 25.8867 321.374 25.66C322.145 25.4333 322.643 24.98 322.87 24.3C322.915 24.1187 323.051 24.028 323.278 24.028C323.55 24.028 323.686 24.1187 323.686 24.3C323.55 25.5693 323.391 27.6093 323.21 30.42C323.074 33.2307 323.006 35.4973 323.006 37.22C323.006 37.3107 322.87 37.356 322.598 37.356C322.371 37.356 322.258 37.3107 322.258 37.22C321.941 33.7293 321.034 31.2133 319.538 29.672C318.042 28.1307 315.821 27.36 312.874 27.36C311.197 27.36 309.995 27.4733 309.27 27.7C308.545 27.8813 308.046 28.2667 307.774 28.856C307.502 29.4 307.366 30.3293 307.366 31.644V62.992C307.366 64.3973 307.502 65.4173 307.774 66.052C308.091 66.6867 308.681 67.1173 309.542 67.344C310.403 67.5707 311.786 67.684 313.69 67.684C313.781 67.684 313.826 67.82 313.826 68.092C313.826 68.364 313.781 68.5 313.69 68.5C312.103 68.5 310.857 68.4773 309.95 68.432L304.578 68.364L299.342 68.432C298.435 68.4773 297.166 68.5 295.534 68.5C295.398 68.5 295.33 68.364 295.33 68.092C295.33 67.82 295.398 67.684 295.534 67.684C297.393 67.684 298.753 67.5707 299.614 67.344C300.475 67.1173 301.065 66.6867 301.382 66.052C301.699 65.372 301.858 64.352 301.858 62.992V31.508C301.858 30.2387 301.722 29.332 301.45 28.788C301.178 28.1987 300.679 27.8133 299.954 27.632C299.229 27.4507 298.027 27.36 296.35 27.36ZM340.939 62.992C340.939 64.352 341.075 65.372 341.347 66.052C341.619 66.6867 342.117 67.1173 342.843 67.344C343.613 67.5707 344.815 67.684 346.447 67.684C346.537 67.684 346.583 67.82 346.583 68.092C346.583 68.364 346.537 68.5 346.447 68.5C344.996 68.5 343.863 68.4773 343.047 68.432L338.151 68.364L333.391 68.432C332.529 68.4773 331.351 68.5 329.855 68.5C329.764 68.5 329.719 68.364 329.719 68.092C329.719 67.82 329.764 67.684 329.855 67.684C331.487 67.684 332.688 67.5707 333.459 67.344C334.229 67.1173 334.751 66.6867 335.023 66.052C335.295 65.372 335.431 64.352 335.431 62.992V31.508C335.431 30.148 335.295 29.1507 335.023 28.516C334.751 27.8813 334.229 27.4507 333.459 27.224C332.688 26.952 331.487 26.816 329.855 26.816C329.764 26.816 329.719 26.68 329.719 26.408C329.719 26.136 329.764 26 329.855 26L333.391 26.068C335.385 26.1587 336.972 26.204 338.151 26.204C339.465 26.204 341.12 26.1587 343.115 26.068L346.447 26C346.537 26 346.583 26.136 346.583 26.408C346.583 26.68 346.537 26.816 346.447 26.816C344.86 26.816 343.681 26.952 342.911 27.224C342.14 27.496 341.619 27.972 341.347 28.652C341.075 29.2867 340.939 30.284 340.939 31.644V62.992ZM395.676 26C395.812 26 395.88 26.136 395.88 26.408C395.88 26.68 395.812 26.816 395.676 26.816C392.412 26.816 389.964 28.8787 388.332 33.004L374.46 68.432C374.415 68.6133 374.166 68.704 373.712 68.704C373.259 68.704 373.01 68.6133 372.964 68.432L355.896 31.644C355.08 29.9213 354.242 28.6973 353.38 27.972C352.564 27.2013 351.544 26.816 350.32 26.816C350.184 26.816 350.116 26.68 350.116 26.408C350.116 26.136 350.184 26 350.32 26L352.428 26.068C353.607 26.1587 354.718 26.204 355.76 26.204C358.254 26.204 360.634 26.1587 362.9 26.068C363.626 26.0227 364.555 26 365.688 26C365.824 26 365.892 26.136 365.892 26.408C365.892 26.68 365.824 26.816 365.688 26.816C362.878 26.816 361.472 27.7 361.472 29.468C361.472 30.1027 361.676 30.896 362.084 31.848L375.548 61.088L386.7 32.732C387.063 31.7347 387.244 30.8733 387.244 30.148C387.244 27.9267 385.522 26.816 382.076 26.816C381.94 26.816 381.872 26.68 381.872 26.408C381.872 26.136 381.94 26 382.076 26L385.136 26.068C386.768 26.1587 388.264 26.204 389.624 26.204C390.576 26.204 391.642 26.1587 392.82 26.068L395.676 26ZM419.183 69.316C414.967 69.316 411.205 68.3413 407.895 66.392C404.631 64.3973 402.093 61.7227 400.279 58.368C398.511 54.968 397.627 51.2733 397.627 47.284C397.627 42.6147 398.806 38.6253 401.163 35.316C403.521 31.9613 406.535 29.4453 410.207 27.768C413.925 26.0907 417.71 25.252 421.563 25.252C425.87 25.252 429.655 26.272 432.919 28.312C436.183 30.3067 438.677 32.9587 440.399 36.268C442.167 39.5773 443.051 43.0907 443.051 46.808C443.051 50.9333 441.963 54.7187 439.787 58.164C437.611 61.6093 434.687 64.3293 431.015 66.324C427.389 68.3187 423.445 69.316 419.183 69.316ZM421.563 67.82C424.465 67.82 427.071 67.072 429.383 65.576C431.695 64.08 433.509 61.904 434.823 59.048C436.183 56.1467 436.863 52.7013 436.863 48.712C436.863 44.496 436.115 40.7333 434.619 37.424C433.169 34.1147 431.061 31.5307 428.295 29.672C425.575 27.8133 422.402 26.884 418.775 26.884C414.061 26.884 410.389 28.4933 407.759 31.712C405.13 34.8853 403.815 39.2827 403.815 44.904C403.815 49.2107 404.563 53.1093 406.059 56.6C407.555 60.0907 409.641 62.8333 412.315 64.828C415.035 66.8227 418.118 67.82 421.563 67.82Z" fill="black"/>
<line x1="41" y1="86" x2="469" y2="86" stroke="#7B7B7B" stroke-width="3"/>
<path d="M96.692 149.684C96.7827 149.684 96.828 149.82 96.828 150.092C96.828 150.364 96.7827 150.5 96.692 150.5C95.2413 150.5 94.0853 150.477 93.224 150.432L88.396 150.364L83.84 150.432C83.0693 150.477 82.004 150.5 80.644 150.5C80.508 150.5 80.44 150.364 80.44 150.092C80.44 149.82 80.508 149.684 80.644 149.684C82.6387 149.684 83.976 149.457 84.656 149.004C85.3813 148.551 85.744 147.599 85.744 146.148L85.676 144.992L84.384 115.072L69.356 150.024C69.2653 150.205 69.084 150.296 68.812 150.296C68.54 150.296 68.3587 150.205 68.268 150.024L51.336 115.344L50.792 142.68C50.7467 145.083 51.1773 146.851 52.084 147.984C52.9907 149.117 54.464 149.684 56.504 149.684C56.64 149.684 56.708 149.82 56.708 150.092C56.708 150.364 56.64 150.5 56.504 150.5C55.28 150.5 54.328 150.477 53.648 150.432L49.908 150.364L46.168 150.432C45.5333 150.477 44.604 150.5 43.38 150.5C43.2893 150.5 43.244 150.364 43.244 150.092C43.244 149.82 43.2893 149.684 43.38 149.684C47.1427 149.684 49.0467 147.349 49.092 142.68L49.704 112.216C48.2533 109.949 46.304 108.816 43.856 108.816C43.7653 108.816 43.72 108.68 43.72 108.408C43.72 108.136 43.7653 108 43.856 108L46.576 108.068C47.12 108.113 47.8227 108.136 48.684 108.136C49.6813 108.136 50.4973 108.113 51.132 108.068C51.7667 108.023 52.2653 108 52.628 108C53.2173 108 53.6933 108.204 54.056 108.612C54.4187 109.02 54.9853 109.995 55.756 111.536L70.852 142.204L85.064 109.7C85.5173 108.567 86.1973 108 87.104 108C87.376 108 87.7387 108.023 88.192 108.068C88.6453 108.113 89.2347 108.136 89.96 108.136L93.428 108.068C93.972 108.023 94.7653 108 95.808 108C95.944 108 96.012 108.136 96.012 108.408C96.012 108.68 95.944 108.816 95.808 108.816C93.5867 108.816 91.9773 109.179 90.98 109.904C90.028 110.629 89.5747 111.899 89.62 113.712L91.116 144.992C91.2067 146.397 91.388 147.417 91.66 148.052C91.932 148.687 92.4307 149.117 93.156 149.344C93.8813 149.571 95.06 149.684 96.692 149.684ZM146.862 149.684C147.044 149.684 147.134 149.82 147.134 150.092C147.134 150.364 147.044 150.5 146.862 150.5C146.001 150.5 144.618 150.455 142.714 150.364C140.901 150.273 139.564 150.228 138.702 150.228C137.66 150.228 136.368 150.273 134.826 150.364C133.285 150.455 132.129 150.5 131.358 150.5C131.177 150.5 131.086 150.364 131.086 150.092C131.086 149.82 131.177 149.684 131.358 149.684C132.9 149.684 134.01 149.548 134.69 149.276C135.37 148.959 135.71 148.415 135.71 147.644C135.71 146.873 135.37 145.808 134.69 144.448L127.074 128.672H114.562L108.986 141.524C108.352 143.02 108.034 144.267 108.034 145.264C108.034 148.211 110.233 149.684 114.63 149.684C114.857 149.684 114.97 149.82 114.97 150.092C114.97 150.364 114.857 150.5 114.63 150.5C113.814 150.5 112.636 150.455 111.094 150.364C109.372 150.273 107.876 150.228 106.606 150.228C105.428 150.228 104.022 150.273 102.39 150.364C100.94 150.455 99.7609 150.5 98.8542 150.5C98.6729 150.5 98.5822 150.364 98.5822 150.092C98.5822 149.82 98.6729 149.684 98.8542 149.684C100.124 149.684 101.189 149.435 102.05 148.936C102.957 148.437 103.818 147.576 104.634 146.352C105.45 145.128 106.38 143.315 107.422 140.912L121.906 107.524C121.952 107.388 122.11 107.32 122.382 107.32C122.654 107.275 122.813 107.343 122.858 107.524L139.246 141.184C140.788 144.493 142.102 146.737 143.19 147.916C144.278 149.095 145.502 149.684 146.862 149.684ZM115.174 127.108H126.326L120.478 114.868L115.174 127.108ZM194.602 149.684C194.693 149.684 194.738 149.82 194.738 150.092C194.738 150.364 194.693 150.5 194.602 150.5H184.742C183.654 150.5 181.591 148.573 178.554 144.72C175.562 140.821 171.981 135.495 167.81 128.74C166.767 128.967 165.77 129.08 164.818 129.08C163.957 129.08 162.846 129.035 161.486 128.944V144.992C161.486 146.352 161.622 147.372 161.894 148.052C162.166 148.687 162.665 149.117 163.39 149.344C164.161 149.571 165.362 149.684 166.994 149.684C167.13 149.684 167.198 149.82 167.198 150.092C167.198 150.364 167.13 150.5 166.994 150.5C165.589 150.5 164.478 150.477 163.662 150.432L158.766 150.364L154.006 150.432C153.145 150.477 151.989 150.5 150.538 150.5C150.402 150.5 150.334 150.364 150.334 150.092C150.334 149.82 150.402 149.684 150.538 149.684C152.17 149.684 153.371 149.571 154.142 149.344C154.913 149.117 155.434 148.687 155.706 148.052C155.978 147.372 156.114 146.352 156.114 144.992V113.508C156.114 112.148 155.978 111.151 155.706 110.516C155.434 109.881 154.913 109.451 154.142 109.224C153.417 108.952 152.238 108.816 150.606 108.816C150.515 108.816 150.47 108.68 150.47 108.408C150.47 108.136 150.515 108 150.606 108L154.006 108.068C156.001 108.159 157.587 108.204 158.766 108.204C159.582 108.204 160.353 108.181 161.078 108.136C161.803 108.091 162.438 108.045 162.982 108C164.478 107.864 165.883 107.796 167.198 107.796C171.051 107.796 174.021 108.567 176.106 110.108C178.191 111.604 179.234 113.689 179.234 116.364C179.234 118.495 178.599 120.512 177.33 122.416C176.061 124.32 174.406 125.861 172.366 127.04C176.174 132.797 179.347 137.308 181.886 140.572C184.47 143.791 186.759 146.125 188.754 147.576C190.749 148.981 192.698 149.684 194.602 149.684ZM161.486 127.176C163.209 127.357 164.546 127.448 165.498 127.448C168.399 127.448 170.462 126.813 171.686 125.544C172.955 124.229 173.59 121.985 173.59 118.812C173.59 115.231 172.91 112.692 171.55 111.196C170.19 109.7 168.309 108.952 165.906 108.952C164.727 108.952 163.821 109.065 163.186 109.292C162.597 109.519 162.166 109.972 161.894 110.652C161.622 111.287 161.486 112.284 161.486 113.644V127.176ZM242.519 149.684C242.7 149.684 242.791 149.82 242.791 150.092C242.791 150.364 242.7 150.5 242.519 150.5C241.658 150.5 240.275 150.455 238.371 150.364C236.558 150.273 235.22 150.228 234.359 150.228C233.316 150.228 232.024 150.273 230.483 150.364C228.942 150.455 227.786 150.5 227.015 150.5C226.834 150.5 226.743 150.364 226.743 150.092C226.743 149.82 226.834 149.684 227.015 149.684C228.556 149.684 229.667 149.548 230.347 149.276C231.027 148.959 231.367 148.415 231.367 147.644C231.367 146.873 231.027 145.808 230.347 144.448L222.731 128.672H210.219L204.643 141.524C204.008 143.02 203.691 144.267 203.691 145.264C203.691 148.211 205.89 149.684 210.287 149.684C210.514 149.684 210.627 149.82 210.627 150.092C210.627 150.364 210.514 150.5 210.287 150.5C209.471 150.5 208.292 150.455 206.751 150.364C205.028 150.273 203.532 150.228 202.263 150.228C201.084 150.228 199.679 150.273 198.047 150.364C196.596 150.455 195.418 150.5 194.511 150.5C194.33 150.5 194.239 150.364 194.239 150.092C194.239 149.82 194.33 149.684 194.511 149.684C195.78 149.684 196.846 149.435 197.707 148.936C198.614 148.437 199.475 147.576 200.291 146.352C201.107 145.128 202.036 143.315 203.079 140.912L217.563 107.524C217.608 107.388 217.767 107.32 218.039 107.32C218.311 107.275 218.47 107.343 218.515 107.524L234.903 141.184C236.444 144.493 237.759 146.737 238.847 147.916C239.935 149.095 241.159 149.684 242.519 149.684ZM210.831 127.108H221.983L216.135 114.868L210.831 127.108ZM266.459 126.564C270.085 126.881 273.009 128.105 275.231 130.236C277.452 132.367 278.563 134.973 278.563 138.056C278.563 140.459 277.928 142.635 276.659 144.584C275.435 146.488 273.735 148.007 271.559 149.14C269.428 150.228 267.025 150.772 264.351 150.772C262.9 150.772 261.313 150.704 259.591 150.568C258.956 150.523 258.208 150.477 257.347 150.432C256.485 150.387 255.511 150.364 254.423 150.364L249.663 150.432C248.801 150.477 247.645 150.5 246.195 150.5C246.059 150.5 245.991 150.364 245.991 150.092C245.991 149.82 246.059 149.684 246.195 149.684C247.781 149.684 248.937 149.571 249.663 149.344C250.433 149.072 250.977 148.619 251.295 147.984C251.612 147.349 251.771 146.352 251.771 144.992V113.508C251.771 112.148 251.612 111.151 251.295 110.516C251.023 109.881 250.501 109.451 249.731 109.224C249.005 108.952 247.849 108.816 246.263 108.816C246.172 108.816 246.127 108.68 246.127 108.408C246.127 108.136 246.172 108 246.263 108L249.663 108.068C251.657 108.159 253.244 108.204 254.423 108.204C255.647 108.204 256.984 108.136 258.435 108C258.933 107.955 259.523 107.909 260.203 107.864C260.928 107.819 261.699 107.796 262.515 107.796C266.413 107.796 269.383 108.612 271.423 110.244C273.463 111.831 274.483 113.984 274.483 116.704C274.483 118.88 273.78 120.852 272.375 122.62C270.969 124.343 268.997 125.657 266.459 126.564ZM261.223 108.952C260.135 108.952 259.296 109.065 258.707 109.292C258.163 109.519 257.755 109.972 257.483 110.652C257.256 111.287 257.143 112.284 257.143 113.644V126.564L260.135 126.632C263.127 126.632 265.371 125.771 266.867 124.048C268.363 122.325 269.111 120.059 269.111 117.248C269.111 114.664 268.453 112.647 267.139 111.196C265.869 109.7 263.897 108.952 261.223 108.952ZM263.263 149.412C266.481 149.412 268.861 148.573 270.403 146.896C271.989 145.219 272.783 142.816 272.783 139.688C272.783 136.243 271.831 133.477 269.927 131.392C268.023 129.307 265.325 128.241 261.835 128.196C260.611 128.151 259.047 128.196 257.143 128.332V144.992C257.143 146.125 257.301 147.009 257.619 147.644C257.936 148.233 258.525 148.687 259.387 149.004C260.248 149.276 261.54 149.412 263.263 149.412ZM321.628 115.888C321.628 113.576 321.107 111.831 320.064 110.652C319.067 109.428 317.571 108.816 315.576 108.816C315.44 108.816 315.372 108.68 315.372 108.408C315.372 108.136 315.44 108 315.576 108L318.636 108.068C320.268 108.159 321.56 108.204 322.512 108.204C323.328 108.204 324.507 108.159 326.048 108.068L328.972 108C329.063 108 329.108 108.136 329.108 108.408C329.108 108.68 329.063 108.816 328.972 108.816C325.3 108.816 323.464 111.173 323.464 115.888V135.064C323.464 140.141 321.968 144.131 318.976 147.032C316.029 149.933 312.085 151.384 307.144 151.384C303.789 151.384 300.843 150.749 298.304 149.48C295.765 148.165 293.793 146.307 292.388 143.904C290.983 141.456 290.28 138.6 290.28 135.336V113.508C290.28 112.148 290.144 111.151 289.872 110.516C289.6 109.881 289.079 109.451 288.308 109.224C287.583 108.952 286.404 108.816 284.772 108.816C284.636 108.816 284.568 108.68 284.568 108.408C284.568 108.136 284.636 108 284.772 108L288.172 108.068C290.167 108.159 291.753 108.204 292.932 108.204C294.201 108.204 295.833 108.159 297.828 108.068L301.092 108C301.228 108 301.296 108.136 301.296 108.408C301.296 108.68 301.228 108.816 301.092 108.816C299.505 108.816 298.327 108.952 297.556 109.224C296.831 109.496 296.332 109.972 296.06 110.652C295.788 111.287 295.652 112.284 295.652 113.644V132.956C295.652 138.305 296.808 142.363 299.12 145.128C301.477 147.848 304.764 149.208 308.98 149.208C312.924 149.208 316.007 147.984 318.228 145.536C320.495 143.043 321.628 139.575 321.628 135.132V115.888ZM379.305 108C379.441 108 379.509 108.136 379.509 108.408C379.509 108.68 379.441 108.816 379.305 108.816C375.588 108.816 373.729 111.173 373.729 115.888V151.384C373.729 151.475 373.616 151.543 373.389 151.588C373.208 151.633 373.072 151.611 372.981 151.52L341.089 113.712V142.68C341.089 145.083 341.52 146.851 342.381 147.984C343.288 149.117 344.648 149.684 346.461 149.684C346.597 149.684 346.665 149.82 346.665 150.092C346.665 150.364 346.597 150.5 346.461 150.5C345.283 150.5 344.376 150.477 343.741 150.432L340.273 150.364L336.601 150.432C335.921 150.477 334.924 150.5 333.609 150.5C333.519 150.5 333.473 150.364 333.473 150.092C333.473 149.82 333.519 149.684 333.609 149.684C335.559 149.684 336.987 149.117 337.893 147.984C338.845 146.851 339.321 145.083 339.321 142.68V111.808C337.327 109.813 335.355 108.816 333.405 108.816C333.269 108.816 333.201 108.68 333.201 108.408C333.201 108.136 333.269 108 333.405 108L336.057 108.068C336.601 108.113 337.372 108.136 338.369 108.136L341.905 108.068C342.313 108.023 342.835 108 343.469 108C343.832 108 344.081 108.091 344.217 108.272C344.399 108.408 344.671 108.748 345.033 109.292C345.441 109.927 346.008 110.675 346.733 111.536L372.029 142.068V115.888C372.029 113.485 371.599 111.717 370.737 110.584C369.876 109.405 368.539 108.816 366.725 108.816C366.635 108.816 366.589 108.68 366.589 108.408C366.589 108.136 366.635 108 366.725 108L369.445 108.068C370.805 108.159 371.961 108.204 372.913 108.204C373.729 108.204 374.908 108.159 376.449 108.068L379.305 108ZM394.909 109.36C392.099 109.36 389.9 110.153 388.313 111.74C386.727 113.281 385.548 115.775 384.777 119.22C384.732 119.311 384.573 119.356 384.301 119.356C384.075 119.356 383.961 119.311 383.961 119.22C384.143 117.905 384.347 115.82 384.573 112.964C384.8 110.108 384.913 107.955 384.913 106.504C384.913 106.277 385.049 106.164 385.321 106.164C385.593 106.164 385.729 106.277 385.729 106.504C385.729 107.501 386.976 108 389.469 108C393.323 108.136 397.879 108.204 403.137 108.204C405.812 108.204 408.645 108.159 411.637 108.068L416.261 108C417.939 108 419.163 107.887 419.933 107.66C420.704 107.433 421.203 106.98 421.429 106.3C421.475 106.119 421.611 106.028 421.837 106.028C422.109 106.028 422.245 106.119 422.245 106.3C422.109 107.569 421.951 109.609 421.769 112.42C421.633 115.231 421.565 117.497 421.565 119.22C421.565 119.311 421.429 119.356 421.157 119.356C420.931 119.356 420.817 119.311 420.817 119.22C420.5 115.729 419.593 113.213 418.097 111.672C416.601 110.131 414.38 109.36 411.433 109.36C409.756 109.36 408.555 109.473 407.829 109.7C407.104 109.881 406.605 110.267 406.333 110.856C406.061 111.4 405.925 112.329 405.925 113.644V144.992C405.925 146.397 406.061 147.417 406.333 148.052C406.651 148.687 407.24 149.117 408.101 149.344C408.963 149.571 410.345 149.684 412.249 149.684C412.34 149.684 412.385 149.82 412.385 150.092C412.385 150.364 412.34 150.5 412.249 150.5C410.663 150.5 409.416 150.477 408.509 150.432L403.137 150.364L397.901 150.432C396.995 150.477 395.725 150.5 394.093 150.5C393.957 150.5 393.889 150.364 393.889 150.092C393.889 149.82 393.957 149.684 394.093 149.684C395.952 149.684 397.312 149.571 398.173 149.344C399.035 149.117 399.624 148.687 399.941 148.052C400.259 147.372 400.417 146.352 400.417 144.992V113.508C400.417 112.239 400.281 111.332 400.009 110.788C399.737 110.199 399.239 109.813 398.513 109.632C397.788 109.451 396.587 109.36 394.909 109.36ZM468.513 149.684C468.694 149.684 468.785 149.82 468.785 150.092C468.785 150.364 468.694 150.5 468.513 150.5C467.651 150.5 466.269 150.455 464.365 150.364C462.551 150.273 461.214 150.228 460.353 150.228C459.31 150.228 458.018 150.273 456.477 150.364C454.935 150.455 453.779 150.5 453.009 150.5C452.827 150.5 452.737 150.364 452.737 150.092C452.737 149.82 452.827 149.684 453.009 149.684C454.55 149.684 455.661 149.548 456.341 149.276C457.021 148.959 457.361 148.415 457.361 147.644C457.361 146.873 457.021 145.808 456.341 144.448L448.725 128.672H436.213L430.637 141.524C430.002 143.02 429.685 144.267 429.685 145.264C429.685 148.211 431.883 149.684 436.281 149.684C436.507 149.684 436.621 149.82 436.621 150.092C436.621 150.364 436.507 150.5 436.281 150.5C435.465 150.5 434.286 150.455 432.745 150.364C431.022 150.273 429.526 150.228 428.257 150.228C427.078 150.228 425.673 150.273 424.041 150.364C422.59 150.455 421.411 150.5 420.505 150.5C420.323 150.5 420.233 150.364 420.233 150.092C420.233 149.82 420.323 149.684 420.505 149.684C421.774 149.684 422.839 149.435 423.701 148.936C424.607 148.437 425.469 147.576 426.285 146.352C427.101 145.128 428.03 143.315 429.073 140.912L443.557 107.524C443.602 107.388 443.761 107.32 444.033 107.32C444.305 107.275 444.463 107.343 444.509 107.524L460.897 141.184C462.438 144.493 463.753 146.737 464.841 147.916C465.929 149.095 467.153 149.684 468.513 149.684ZM436.825 127.108H447.977L442.129 114.868L436.825 127.108Z" fill="black"/>
</svg>
