<svg width="510" height="175" viewBox="0 0 510 175" fill="none" xmlns="http://www.w3.org/2000/svg">
<path d="M332 87.5C332 130.026 297.526 164.5 255 164.5C212.474 164.5 178 130.026 178 87.5C178 44.9741 212.474 10.5 255 10.5C297.526 10.5 332 44.9741 332 87.5Z" fill="#FFB55E"/>
<path d="M326.537 87.5003C326.537 127.009 294.509 159.037 255 159.037C215.492 159.037 183.463 127.009 183.463 87.5003C183.463 47.9916 215.492 15.9634 255 15.9634C294.509 15.9634 326.537 47.9916 326.537 87.5003Z" fill="#FF8300"/>
<path fill-rule="evenodd" clip-rule="evenodd" d="M248.806 51.6823L248.807 51.6807C248.89 50.6497 249.113 49.6454 249.477 48.6679C249.492 48.1657 249.269 47.831 248.807 47.6636C245.994 47.6177 244.097 48.9012 243.116 51.5133C242.507 51.7755 242.061 51.6081 241.777 51.0112C242.676 49.9319 243.067 48.7044 242.949 47.3288C240.208 44.9667 237.642 45.1897 235.249 47.9983C233.875 50.1515 234.377 51.6021 236.756 52.3502C236.525 51.0145 236.469 49.6755 236.588 48.3331C238.395 46.0618 240.013 46.1177 241.442 48.5005C240.984 49.3598 240.482 50.1967 239.936 51.0112C239.915 49.79 239.971 48.5624 240.103 47.3288C239.169 47.3128 238.555 47.759 238.262 48.6679C237.938 51.6857 237.604 54.6986 237.258 57.7064L236.588 57.0369L236.419 55.3489C236.364 54.7956 236.309 54.2424 236.253 53.6893C236.066 53.5145 235.842 53.4031 235.584 53.3545C233.801 55.5814 234.191 57.4225 236.756 58.8781C239.68 58.9762 241.8 57.693 243.116 55.0283C244.455 56.8136 245.794 56.8136 247.133 55.0283C247.699 55.6162 248.369 55.7836 249.142 55.5305C250.434 53.2263 251.773 50.9386 253.159 48.6679L253.494 49.0026C252.812 50.3233 252.365 51.7182 252.155 53.1871C252.106 53.8681 252.329 54.4261 252.824 54.861C253.756 54.9279 254.593 54.6487 255.335 54.0241C256.687 54.9493 257.97 54.8379 259.185 53.6893C259.981 54.9051 260.93 55.0166 262.03 54.0241C263.12 54.8723 264.237 54.8723 265.378 54.0241C265.758 54.4536 266.204 54.7883 266.717 55.0283C268.37 54.1566 269.709 52.929 270.734 51.346C270.985 50.966 270.929 50.6312 270.567 50.3417C269.499 51.1297 268.606 52.0784 267.888 53.1871C267.61 53.4175 267.387 53.3616 267.219 53.0198C268.092 51.3861 268.873 49.7123 269.562 47.9983C269.492 47.8022 269.38 47.6348 269.227 47.4962C268.162 47.36 267.102 47.1926 266.047 46.9941C265.503 47.0359 265 47.2033 264.541 47.4962C262.895 49.1693 261.724 51.122 261.026 53.3545C261.36 50.3437 262.365 47.5538 264.039 44.9855C264.204 44.325 264.26 43.6556 264.206 42.9769C263.573 42.9088 263.071 43.132 262.7 43.6465C262.128 44.6233 261.514 45.572 260.858 46.4919C260.468 46.5476 260.078 46.6033 259.688 46.6591C259.297 46.715 258.906 46.7709 258.515 46.8267C256.384 48.1821 255.212 50.1351 255 52.685L253.996 53.6893C254.117 52.5431 254.451 51.427 255 50.3417C255.678 47.2719 254.73 46.4909 252.155 47.9983C251.487 47.1892 250.874 47.1892 250.313 47.9983C249.901 49.5603 249.51 51.1227 249.142 52.685C249.011 53.2471 248.843 53.8051 248.64 54.3588L248.639 54.3581L248.639 54.3586C248.371 53.3989 248.427 52.5061 248.807 51.6805L248.806 51.6823ZM260.189 48.5001C260.076 48.1553 259.853 47.9879 259.519 47.9979C258.434 49.1586 257.598 50.4976 257.008 52.0151C256.749 52.6521 256.861 53.2102 257.343 53.6889C258.856 52.2819 259.805 50.5522 260.189 48.5001ZM266.215 48.3327C266.548 48.3227 266.772 48.49 266.884 48.8348C266.389 50.444 265.608 51.8949 264.541 53.1867C264.223 53.3484 263.889 53.404 263.536 53.3541C263.806 51.365 264.699 49.6912 266.215 48.3327ZM247.133 50.3415C247.086 49.8293 246.863 49.4946 246.464 49.3372C245.067 51.1315 244.62 53.1401 245.125 55.3629C245.676 54.9348 246.066 54.377 246.296 53.6891C246.61 52.5804 246.889 51.4646 247.133 50.3415ZM239.768 52.3498C240.801 52.3224 241.359 52.8245 241.442 53.8563C241.299 55.5384 240.518 56.8219 239.099 57.706C238.789 55.8575 239.012 54.0722 239.768 52.3498Z" fill="black"/>
<path fill-rule="evenodd" clip-rule="evenodd" d="M245.292 121.646C245.617 120.71 245.338 120.041 244.455 119.637C242.495 121.49 240.542 123.387 238.597 125.328C238.029 126.018 237.638 126.799 237.425 127.671C237.47 128.934 238.028 129.381 239.099 129.01C239.432 126.894 240.38 125.108 241.944 123.654C241.489 126.471 240.54 129.149 239.099 131.688C240.846 131.892 242.52 132.338 244.12 133.028C245.869 132.42 247.599 131.751 249.309 131.019C250.404 132.373 251.409 132.261 252.322 130.684C253.371 132.24 254.599 132.352 256.004 131.019C256.517 131.259 256.963 131.594 257.343 132.023C257.925 131.648 258.539 131.314 259.185 131.019C259.593 131.274 259.927 131.609 260.189 132.023C261.476 129.447 263.095 127.104 265.043 124.993C264.431 126.781 263.706 128.567 262.867 130.349C263 131.208 263.503 131.655 264.373 131.688C266.406 130.884 267.913 129.489 268.893 127.504C268.855 127.075 268.631 126.797 268.223 126.667C267.351 128.043 266.29 129.27 265.043 130.349C265.634 128.711 266.248 127.037 266.884 125.328C266.291 123.575 265.231 123.24 263.704 124.324C263.074 123.953 262.46 123.953 261.863 124.324C261.159 126.743 259.875 128.752 258.013 130.349C257.79 129.903 257.79 129.457 258.013 129.01C258.629 127.604 259.243 126.209 259.854 124.826C259.55 124.05 258.992 123.826 258.18 124.156C257.365 126.066 256.416 127.907 255.335 129.68C254.994 130.077 254.603 130.412 254.163 130.684C254.107 130.601 254.052 130.517 253.996 130.433C253.94 130.349 253.884 130.266 253.828 130.182C254.624 128.158 255.572 126.205 256.674 124.324C257.679 122.875 259.074 122.261 260.858 122.483C261.153 122.029 261.265 121.526 261.193 120.976C259.516 120.921 257.842 120.976 256.172 121.144C256.06 121.311 255.948 121.478 255.837 121.646C255.725 121.813 255.614 121.98 255.502 122.148C254.431 122.182 253.427 122.405 252.489 122.817C252.984 123.5 253.654 123.779 254.498 123.654C253.943 125.986 252.939 128.106 251.485 130.015C251.106 129.488 251.05 128.93 251.318 128.341C252.166 127.101 252.612 125.762 252.657 124.324C250.91 123.413 249.181 123.469 247.468 124.491C245.792 126.341 245.123 128.517 245.459 131.019H241.442C242.444 127.786 243.728 124.662 245.292 121.646ZM250.146 126.165C250.084 125.704 249.861 125.425 249.477 125.328C248.671 126.377 247.946 127.493 247.301 128.676C247.03 129.372 247.086 130.041 247.468 130.684C248.828 129.473 249.721 127.967 250.146 126.165Z" fill="black"/>
<path fill-rule="evenodd" clip-rule="evenodd" d="M247.468 133.362C250.244 133.443 251.081 134.782 249.979 137.379C249.394 138.487 248.557 138.822 247.468 138.384C247.105 138.094 247.05 137.759 247.301 137.379C247.762 136.806 248.32 136.359 248.974 136.04C249.138 135.608 249.194 135.161 249.142 134.701C246.671 134.548 245.723 135.664 246.296 138.049C246.966 139.165 247.635 140.281 248.305 141.397C248.472 145.586 246.519 147.092 242.447 145.916C240.78 143.461 241.226 141.508 243.786 140.058C244.303 140.296 244.638 140.686 244.79 141.229C243.636 142.148 243.134 143.32 243.283 144.744C244.843 145.77 246.07 145.435 246.966 143.74C247.169 142.471 246.723 141.467 245.627 140.727C244.259 139.002 244.147 137.217 245.292 135.371C245.983 134.623 246.708 133.953 247.468 133.362Z" fill="black"/>
<path fill-rule="evenodd" clip-rule="evenodd" d="M254.833 134.701C254.76 133.893 254.313 133.558 253.494 133.697C251.454 137.137 250.003 140.819 249.142 144.744C249.134 145.269 249.302 145.715 249.644 146.083C250.167 145.005 250.781 144.001 251.485 143.07C252.134 143.837 252.692 144.674 253.159 145.581C254.339 145.801 255.288 145.411 256.005 144.409C256.516 144.821 256.907 145.323 257.176 145.916C257.622 146.139 258.069 146.139 258.515 145.916C258.905 145.553 259.351 145.274 259.854 145.079C260.077 145.246 260.301 145.414 260.524 145.581C260.747 145.748 260.97 145.916 261.193 146.083C263.076 144.873 264.303 143.199 264.876 141.062C264.482 140.988 264.148 141.1 263.871 141.396C263.508 141.899 263.146 142.401 262.783 142.904C262.42 143.406 262.058 143.907 261.695 144.409C261.472 143.963 261.472 143.516 261.695 143.07C262.562 141.461 263.119 139.788 263.369 138.049C262.008 138.037 260.613 137.981 259.185 137.881C257.347 139.485 255.952 141.437 255 143.74C254.629 144.254 254.127 144.477 253.494 144.409C253.439 143.62 253.495 142.839 253.661 142.066C254.503 141.002 255.34 139.942 256.172 138.886C255.985 138.153 255.538 137.93 254.833 138.216L252.657 140.392C252.434 140.057 252.434 139.723 252.657 139.388C253.475 137.864 254.2 136.302 254.833 134.701ZM260.858 139.723C260.776 139.317 260.552 139.093 260.189 139.053C258.689 140.664 257.797 142.561 257.511 144.744C258.143 144.812 258.646 144.589 259.017 144.075C259.817 142.699 260.43 141.249 260.858 139.723Z" fill="black"/>
<path fill-rule="evenodd" clip-rule="evenodd" d="M224.704 64.4014C227.719 64.3458 230.732 64.4014 233.742 64.5688C234.245 64.8476 234.635 65.2383 234.914 65.7404C235.026 66.6332 235.137 67.5257 235.249 68.4185C239.723 65.4107 244.299 65.2992 248.974 68.0838C248.917 66.4632 249.642 65.403 251.15 64.9035C263.871 64.6618 276.592 64.55 289.313 64.5688C290.199 65.1154 290.646 65.8968 290.652 66.9121C290.357 70.1994 290.134 73.4915 289.982 76.7875C291.326 76.732 292.665 76.7879 294 76.9549C295.11 77.5588 295.556 78.5072 295.339 79.8004C295.087 81.9201 294.864 84.0402 294.669 86.1609C295.413 86.0531 296.027 86.2764 296.51 86.8304C296.903 88.5879 297.127 90.3735 297.18 92.1866C297.375 90.032 298.212 88.1909 299.69 86.663C302.803 86.195 305.927 86.0832 309.064 86.3282C309.454 86.7189 309.845 87.1092 310.235 87.4999C311.809 93.4389 313.483 99.3528 315.257 105.242C315.834 106.993 315.332 108.277 313.75 109.092C311.082 109.538 308.404 109.761 305.716 109.762C304.957 109.24 304.567 108.515 304.544 107.586C304.224 108.43 303.722 109.155 303.038 109.762C297.96 109.567 292.883 109.623 287.806 109.929C287.193 109.873 286.579 109.817 285.965 109.762C285.555 109.238 285.053 108.848 284.459 108.59C283.917 109.354 283.192 109.856 282.283 110.096C278.896 110.39 275.549 110.222 272.24 109.594C270.784 109.746 269.333 109.802 267.888 109.762C267.266 109.24 266.764 108.626 266.382 107.92C266.019 108.31 265.74 108.757 265.545 109.259C255.721 109.561 245.901 109.728 236.086 109.762C235.486 109.166 234.928 108.552 234.412 107.92C234.163 108.673 233.716 109.286 233.073 109.762C230.135 110.042 227.234 109.818 224.369 109.092C223.89 108.936 223.5 108.657 223.197 108.255C218.334 112.043 213.703 111.82 209.305 107.586C205.658 110.001 201.641 110.949 197.253 110.431C193.348 109.427 190.726 107.028 189.387 103.234C187.454 94.5419 190.635 88.6836 198.927 85.6587C202.507 85.2316 205.854 85.8455 208.97 87.4999C209.237 80.9265 209.404 74.3428 209.472 67.749C209.477 66.4541 210.09 65.6172 211.313 65.2383C214.215 65.015 217.116 65.015 220.017 65.2383C220.588 66.5472 221.202 67.8303 221.858 69.088C222.502 67.8869 223.116 66.6597 223.7 65.4057C224.125 65.1419 224.46 64.8071 224.704 64.4014Z" fill="black"/>
<path fill-rule="evenodd" clip-rule="evenodd" d="M225.373 66.4102C227.95 66.2994 230.516 66.4112 233.073 66.745C232.46 73.4228 231.958 80.118 231.567 86.8307C229.533 87.1574 227.468 87.2692 225.373 87.1654C225.429 83.8158 225.373 80.4682 225.206 77.1226C224.131 79.7317 223.295 82.4098 222.695 85.1569C221.776 85.2616 220.883 85.1502 220.017 84.8221C219.348 82.7017 218.678 80.5817 218.009 78.4616C217.675 81.1303 217.563 83.8084 217.674 86.4959C215.554 86.4959 213.434 86.4959 211.313 86.4959C211.26 80.0199 211.372 73.5477 211.648 67.0797C214.113 66.9689 216.568 67.0808 219.013 67.4145C219.754 70.0497 220.647 72.6164 221.691 75.114C223.102 72.2916 224.33 69.3903 225.373 66.4102Z" fill="white"/>
<path fill-rule="evenodd" clip-rule="evenodd" d="M281.613 66.41C283.931 66.3056 286.218 66.417 288.476 66.7448C288.158 70.6427 287.935 74.5484 287.806 78.4614C289.616 78.7871 291.458 78.8989 293.33 78.7962C293.225 80.9139 292.89 82.9783 292.326 84.9893C288.632 85.3156 284.949 85.706 281.279 86.1609C280.828 79.549 280.939 72.9653 281.613 66.41Z" fill="white"/>
<path fill-rule="evenodd" clip-rule="evenodd" d="M251.15 66.7448C256.283 66.7448 261.416 66.7448 266.549 66.7448C266.605 68.6449 266.549 70.542 266.382 72.4357C265.008 72.7193 263.613 72.9422 262.197 73.1053C261.811 77.4528 261.477 81.8047 261.193 86.161C259.2 86.4499 257.191 86.5617 255.167 86.4957C255.167 82.1438 255.167 77.7919 255.167 73.44C253.828 73.44 252.489 73.44 251.15 73.44C251.15 71.2082 251.15 68.9767 251.15 66.7448Z" fill="white"/>
<path fill-rule="evenodd" clip-rule="evenodd" d="M267.553 66.7448C271.905 66.7448 276.257 66.7448 280.609 66.7448C280.466 68.4263 280.243 70.1001 279.939 71.7662C278.172 72.0293 276.386 72.1967 274.583 72.2684C274.289 72.7223 274.177 73.2244 274.249 73.7748C275.588 73.7748 276.927 73.7748 278.266 73.7748C278.363 75.2598 278.195 76.7106 277.764 78.1267C276.622 78.3922 275.45 78.5595 274.249 78.6288C273.57 79.0962 273.459 79.6539 273.914 80.3026C275.808 80.4697 277.705 80.5256 279.605 80.47C279.537 82.4816 279.426 84.4902 279.27 86.4957C275.253 86.6072 271.236 86.719 267.219 86.8305C267.181 80.1319 267.293 73.4367 267.553 66.7448Z" fill="white"/>
<path fill-rule="evenodd" clip-rule="evenodd" d="M239.768 68.0839C246.664 67.2828 250.458 70.2956 251.15 77.1224C250.128 83.671 246.333 86.6283 239.768 85.9936C233.765 83.3928 231.924 78.9854 234.245 72.7705C235.65 70.6357 237.491 69.0734 239.768 68.0839Z" fill="white"/>
<path fill-rule="evenodd" clip-rule="evenodd" d="M241.442 74.1095C244.612 74.7751 245.449 76.5603 243.953 79.4657C242.699 80.769 241.472 80.769 240.27 79.4657C238.894 77.2506 239.285 75.4653 241.442 74.1095Z" fill="black"/>
<path fill-rule="evenodd" clip-rule="evenodd" d="M264.541 74.7791C264.747 74.8162 264.915 74.9277 265.043 75.1138C265.266 78.6847 265.266 82.2553 265.043 85.8262C264.604 86.5486 264.046 86.6601 263.369 86.161C263.188 82.2958 263.578 78.5016 264.541 74.7791Z" fill="#FF8300"/>
<path fill-rule="evenodd" clip-rule="evenodd" d="M241.442 76.4529C242.997 76.714 243.164 77.3835 241.944 78.4614C241.503 77.8756 241.335 77.2061 241.442 76.4529Z" fill="#FF8300"/>
<path fill-rule="evenodd" clip-rule="evenodd" d="M252.489 80.1353C253.142 81.8877 253.365 83.7848 253.159 85.8262C252.043 85.8262 250.927 85.8262 249.811 85.8262C249.761 85.474 249.817 85.1393 249.979 84.8219C251.432 83.5893 252.269 82.027 252.489 80.1353Z" fill="#FF8300"/>
<path fill-rule="evenodd" clip-rule="evenodd" d="M233.743 85.157C234.635 85.0117 235.026 85.3464 234.914 86.1612C234.025 86.5609 233.634 86.2262 233.743 85.157Z" fill="#FF8300"/>
<path fill-rule="evenodd" clip-rule="evenodd" d="M198.258 87.8347C200.492 87.7791 202.724 87.8347 204.953 88.0021C205.412 88.1366 205.859 88.304 206.292 88.5042C206.372 90.2557 206.372 92.0409 206.292 93.8604C203.521 93.0128 201.011 93.459 198.76 95.1994C197.041 97.5625 197.209 99.7384 199.262 101.727C200.968 102.608 202.195 102.217 202.945 100.556C201.829 100.556 200.713 100.556 199.597 100.556C199.597 99.1051 199.597 97.6542 199.597 96.2037C202.383 96.0179 205.173 95.9064 207.966 95.8689C208.285 99.0994 208.341 102.336 208.133 105.577C205.74 107.601 202.95 108.605 199.764 108.59C195.174 108.352 192.272 106.009 191.061 101.56C190.136 95.1479 192.535 90.573 198.258 87.8347Z" fill="white"/>
<path fill-rule="evenodd" clip-rule="evenodd" d="M244.121 87.8348C248.361 87.8348 252.601 87.8348 256.841 87.8348C256.897 89.6237 256.841 91.409 256.674 93.1909C254.656 95.8222 252.704 98.5003 250.816 101.225C252.812 101.559 254.821 101.67 256.841 101.56C256.867 103.578 256.755 105.587 256.507 107.586C252.375 107.61 248.246 107.722 244.121 107.92C243.952 105.91 243.897 103.902 243.953 101.895C246.241 98.9378 248.528 95.9805 250.816 93.0236C248.613 93.3402 246.381 93.5076 244.121 93.5257C244.121 91.6286 244.121 89.7319 244.121 87.8348Z" fill="white"/>
<path fill-rule="evenodd" clip-rule="evenodd" d="M288.309 91.1822C288.634 90.3627 288.746 89.4699 288.644 88.5041C289.392 88.6028 290.061 88.491 290.652 88.1693C292.103 88.1693 293.553 88.1693 295.004 88.1693C294.805 94.5381 294.47 100.899 294 107.251C291.537 107.512 289.082 107.512 286.635 107.251C285.341 104.261 284.114 101.248 282.953 98.2121C282.659 101.445 282.435 104.681 282.283 107.92C280.163 107.92 278.043 107.92 275.923 107.92C275.934 101.334 276.046 94.7507 276.257 88.1693C278.707 87.8831 281.162 87.8275 283.622 88.0019C285.177 91.1671 286.683 94.3473 288.141 97.5426C288.309 95.4253 288.364 93.3052 288.309 91.1822Z" fill="white"/>
<path fill-rule="evenodd" clip-rule="evenodd" d="M303.373 88.1695C305.047 88.1695 306.721 88.1695 308.394 88.1695C309.961 94.213 311.635 100.239 313.416 106.247C313.309 106.631 313.086 106.91 312.746 107.084C310.75 107.528 308.741 107.752 306.721 107.753C306.221 106.876 305.998 105.927 306.051 104.908C304.93 104.852 303.814 104.908 302.703 105.075C302.493 106.012 302.158 106.905 301.699 107.753C299.397 108.02 297.165 107.741 295.004 106.916C296.577 100.958 298.307 95.0442 300.193 89.1738C301.214 88.6653 302.274 88.3305 303.373 88.1695Z" fill="white"/>
<path fill-rule="evenodd" clip-rule="evenodd" d="M234.412 88.1695C235.751 88.1695 237.09 88.1695 238.429 88.1695C240.271 94.1962 241.944 100.278 243.451 106.414C243.055 106.995 242.497 107.33 241.777 107.418C240.142 107.83 238.524 107.886 236.923 107.586C236.602 106.755 236.323 105.919 236.086 105.075C234.976 104.908 233.86 104.852 232.738 104.908C232.621 105.888 232.398 106.836 232.069 107.753C229.712 107.835 227.368 107.668 225.039 107.251C226.769 101.001 228.666 94.8075 230.73 88.6717C232.021 88.6124 233.248 88.445 234.412 88.1695Z" fill="white"/>
<path fill-rule="evenodd" clip-rule="evenodd" d="M240.773 88.1697C241.316 88.1229 241.707 88.3462 241.944 88.8393C242.168 90.1783 242.168 91.5174 241.944 92.8564C241.362 91.3383 240.971 89.7759 240.773 88.1697Z" fill="#FF8300"/>
<path fill-rule="evenodd" clip-rule="evenodd" d="M259.184 88.1695C259.519 88.1695 259.854 88.1695 260.189 88.1695C259.209 93.0416 258.875 93.0416 259.184 88.1695Z" fill="#FF8300"/>
<path fill-rule="evenodd" clip-rule="evenodd" d="M262.532 88.5045C265.22 88.3937 267.898 88.5052 270.566 88.8393C272.347 94.8452 274.02 100.871 275.588 106.916C273.74 107.197 271.899 107.531 270.064 107.921C269.674 107.809 269.283 107.697 268.893 107.586C268.48 105.02 267.085 104.239 264.708 105.243C264.693 106.191 264.414 107.028 263.871 107.753C261.617 107.917 259.385 107.75 257.176 107.251C258.65 100.909 260.435 94.6601 262.532 88.5045Z" fill="white"/>
<path fill-rule="evenodd" clip-rule="evenodd" d="M219.348 88.839C221.58 88.839 223.811 88.839 226.043 88.839C226.364 93.5398 225.75 98.1146 224.202 102.564C222.028 108.201 218.178 109.93 212.653 107.753C210.636 105.784 209.465 103.385 209.138 100.556C208.829 96.7341 208.996 92.9402 209.64 89.1738C211.864 89.4122 214.095 89.524 216.335 89.5086C215.663 93.6024 215.496 97.7313 215.833 101.895C216.063 102.583 216.454 103.14 217.005 103.569C217.332 103.409 217.611 103.186 217.842 102.899C219.141 98.3031 219.644 93.6164 219.348 88.839Z" fill="white"/>
<path fill-rule="evenodd" clip-rule="evenodd" d="M272.91 88.839C273.356 88.839 273.803 88.839 274.249 88.839C274.41 94.9779 273.964 94.9779 272.91 88.839Z" fill="#FF8300"/>
<path fill-rule="evenodd" clip-rule="evenodd" d="M290.652 88.1693C290.061 88.491 289.392 88.6028 288.644 88.5041C288.746 89.4699 288.634 90.3627 288.309 91.1822C288.309 90.1779 288.309 89.1738 288.309 88.1695C289.09 88.1695 289.871 88.1693 290.652 88.1693Z" fill="black"/>
<path fill-rule="evenodd" clip-rule="evenodd" d="M242.446 94.8647C243.452 95.467 244.568 95.6903 245.794 95.5343C245.332 96.7869 244.606 97.903 243.618 98.8819C243.29 97.5144 242.899 96.1753 242.446 94.8647Z" fill="#FF8300"/>
<path fill-rule="evenodd" clip-rule="evenodd" d="M257.845 95.1995C258.045 95.2782 258.157 95.4456 258.18 95.7017C257.815 96.8854 257.424 98.057 257.009 99.2166C256.44 99.5199 255.826 99.6314 255.167 99.5514C255.771 97.9389 256.664 96.4883 257.845 95.1995Z" fill="#FF8300"/>
<path fill-rule="evenodd" clip-rule="evenodd" d="M234.412 96.5386C235.081 97.7524 235.416 99.0914 235.416 100.556C234.858 100.556 234.301 100.556 233.743 100.556C233.752 99.1698 233.976 97.8307 234.412 96.5386Z" fill="black"/>
<path fill-rule="evenodd" clip-rule="evenodd" d="M266.215 96.2038C267.004 97.4096 267.283 98.7486 267.051 100.221C266.114 100.763 265.612 100.484 265.545 99.384C265.796 98.3252 266.019 97.265 266.215 96.2038Z" fill="black"/>
<path fill-rule="evenodd" clip-rule="evenodd" d="M304.043 96.5386C304.614 97.6429 305.06 98.8705 305.382 100.221C304.855 100.6 304.297 100.655 303.708 100.388C303.533 100.201 303.422 99.9772 303.373 99.7188C303.615 98.6573 303.838 97.5971 304.043 96.5386Z" fill="black"/>
</svg>
