<svg width="510" height="175" viewBox="0 0 510 175" fill="none" xmlns="http://www.w3.org/2000/svg">
<path d="M225.37 12.3558C222.79 14.9352 222.853 18.0808 225.433 20.7231C227.194 22.4217 227.698 22.6104 230.025 22.2959C233.8 21.7926 235.75 19.4019 235.31 15.9417C234.618 10.72 229.019 8.70685 225.37 12.3558Z" fill="#FF7F00"/>
<path d="M183.596 18.0808C174.474 20.031 166.044 26.0706 161.011 34.4379C157.991 39.3451 156.858 43.2456 156.858 48.4673C156.858 53.8777 158.18 57.1492 161.514 60.1061C169.001 66.7118 176.739 65.9569 181.898 58.2187C183.282 56.0797 183.596 54.8843 183.596 51.6758C183.596 48.3415 183.344 47.5236 182.023 46.0766C179.821 43.686 176.99 42.6165 172.901 42.6165C169.818 42.6165 169.189 42.8681 166.987 44.8184C165.666 46.0137 164.282 47.0203 163.905 47.0203C163.527 47.0203 162.961 46.0137 162.583 44.8184C160.696 37.8352 169.693 26.3222 178.626 24.3091C181.394 23.6799 182.652 23.7428 185.987 24.5607C195.99 27.0143 202.533 34.9412 206.937 49.8514C208.95 56.8346 209.705 70.864 208.446 78.0989C206.811 87.4728 198.129 107.668 192.655 114.84C190.076 118.3 189.699 120.124 191.586 120.502C192.844 120.753 199.89 114.21 204.609 108.36C218.135 91.6879 225.118 72.1223 223.923 54.6327C222.665 36.3882 214.36 23.7428 200.582 19.0873C195.927 17.5145 188.377 17.0742 183.596 18.0808Z" fill="#FF7F00"/>
<path d="M235.058 34.6896C232.605 36.7657 231.913 39.3451 233.234 41.9245C234.429 44.1893 236.002 45.133 238.644 45.133C241.287 45.133 242.859 44.1893 244.055 41.9245C245.879 38.2756 243.551 34.1234 239.148 33.4313C237.449 33.1168 236.631 33.3684 235.058 34.6896Z" fill="#FF7F00"/>
<path d="M91.5557 117.608C90.9895 118.174 90.8008 124.214 90.8008 140.885V163.408H98.6019C102.88 163.408 106.843 163.219 107.41 163.03C108.29 162.716 108.416 161.08 108.479 151.517C108.479 140.759 109.045 134.405 109.863 136.356C110.052 136.859 112.254 142.835 114.644 149.567C117.098 156.299 119.615 162.212 120.181 162.653C120.936 163.219 123.263 163.408 127.919 163.282L134.462 163.093L136.16 159.004C137.041 156.739 139.432 150.574 141.445 145.289C143.458 140.067 145.283 135.726 145.597 135.726C145.912 135.726 146.163 141.829 146.163 149.253V162.779H163.59L163.968 153.216C164.219 147.994 164.408 137.677 164.408 130.253V116.853L149.812 116.979L135.154 117.167L133.078 122.829C130.058 131.071 128.233 135.286 127.541 135.538C127.164 135.664 125.654 132.266 124.144 128.051C122.634 123.773 120.999 119.558 120.558 118.551L119.677 116.853H106.026C96.2112 116.853 92.1219 117.042 91.5557 117.608Z" fill="black"/>
<path d="M166.044 117.859C165.855 118.426 165.666 125.283 165.666 133.21C165.666 145.729 165.855 148.057 166.924 151.58C168.434 156.55 171.957 160.325 176.676 162.087C183.974 164.792 201.4 165.358 208.698 163.093C214.046 161.457 218.135 158.312 220.211 154.411C221.847 151.14 222.916 142.143 222.853 131.008C222.79 125.094 222.602 119.621 222.35 118.74C221.91 117.23 221.784 117.167 215.052 116.979C211.215 116.853 207.251 116.979 206.119 117.167L204.168 117.545L203.917 131.826C203.728 147.868 203.288 149.441 199.01 151.58C194.102 154.097 186.742 151.832 185.169 147.428C184.791 146.421 184.54 139.438 184.54 131.26V116.853H175.48C167.805 116.853 166.358 116.979 166.044 117.859Z" fill="#FF7F00"/>
<path d="M225.433 122.452C225.433 126.982 225.621 128.114 226.439 128.429C227.006 128.617 232.668 128.806 239.022 128.806C245.879 128.806 250.598 129.058 250.598 129.372C250.598 129.75 244.621 135.16 237.386 141.451C230.088 147.743 223.986 153.531 223.797 154.285C223.608 154.978 223.545 157.305 223.671 159.318L223.86 163.093L228.893 163.408C231.661 163.596 244.055 163.659 256.448 163.534L278.908 163.345V152.272L276.958 151.832C275.888 151.643 269.974 151.454 263.872 151.454H252.799L254.372 149.882C255.253 149.064 261.356 143.716 267.898 138.054L279.852 127.799V122.955C279.852 119.306 279.6 117.922 278.908 117.482C278.342 117.104 267.143 116.853 251.73 116.853H225.433V122.452Z" fill="black"/>
<path d="M281.802 117.356C281.613 117.671 281.299 127.799 281.047 139.879C280.67 159.256 280.732 161.961 281.55 162.653C282.305 163.219 284.822 163.408 290.924 163.282L299.354 163.093L299.543 140.382L299.669 117.671L294.51 117.293C287.338 116.727 282.179 116.727 281.802 117.356Z" fill="black"/>
<path d="M301.682 117.922C301.431 118.551 301.242 128.932 301.242 141.074V163.093L328.546 163.282C349.999 163.408 355.975 163.282 356.416 162.653C356.667 162.212 356.919 159.696 356.919 157.054V152.272L353.648 151.832C351.823 151.643 343.77 151.454 335.843 151.454C325.4 151.454 321.122 151.266 320.556 150.7C319.486 149.63 319.612 146.61 320.807 146.17C321.374 145.981 327.728 145.792 334.963 145.792H348.111L348.237 142.018C348.3 139.942 348.363 137.488 348.363 136.481L348.426 134.783L334.711 134.468C319.927 134.154 319.612 134.028 319.927 130.693L320.115 129.121L354.088 128.492V117.167L328.105 116.979C303.821 116.853 302.123 116.916 301.682 117.922Z" fill="black"/>
<path d="M358.555 117.859C358.366 118.426 358.177 128.743 358.177 140.822V162.779H376.233L376.673 159.885C376.862 158.249 377.051 155.732 377.051 154.285C377.051 151.895 377.365 151.329 380.448 148.435C382.398 146.547 384.286 145.289 384.726 145.478C385.229 145.667 386.551 147.365 387.683 149.253C388.815 151.077 391.395 154.915 393.471 157.683L397.183 162.779H408.192C414.987 162.779 419.202 162.527 419.202 162.15C419.202 161.835 417.755 159.507 415.993 156.991C409.765 148.057 403.034 137.928 401.901 135.726L400.769 133.524L405.739 128.995C408.444 126.478 412.156 123.207 413.917 121.76C420.02 116.727 420.209 116.853 406.745 116.853H394.855L391.143 120.061C389.13 121.886 387.306 123.521 387.117 123.71C386.299 124.717 377.869 131.952 377.491 131.952C377.24 131.952 377.051 129.624 377.051 126.73C377.051 123.899 376.862 120.502 376.673 119.181L376.233 116.853H367.614C360.253 116.853 358.869 116.979 358.555 117.859Z" fill="black"/>
</svg>
