<svg width="510" height="175" viewBox="0 0 510 175" fill="none" xmlns="http://www.w3.org/2000/svg">
<path d="M93.1082 109.835L93.4765 112.362C95.3175 125.065 99.8533 134.354 108.573 143.292C114.431 149.284 119.067 152.631 127.151 156.682C133.98 160.079 140.457 162.489 146.751 163.912C150.232 164.699 150.968 164.699 154.349 163.895C165.111 161.368 177.078 155.929 184.945 149.97C197.481 140.463 204.795 128.848 207.238 114.521C208.008 109.952 207.992 111.542 207.992 59.4894V10.5H93.0078L93.1082 109.835ZM206.602 60.3263C206.535 112.228 206.586 109.45 205.732 114.521C204.376 122.622 201.129 130.053 195.941 136.949C191.857 142.371 185.564 148.146 179.873 151.677C171.371 156.949 161.764 160.832 152.307 162.807C150.667 163.159 150.567 163.159 149.211 162.891C139.671 161 129.796 157.016 120.959 151.543C116.557 148.815 110.18 143.242 106.715 139.124C99.7026 130.756 95.8699 121.45 94.7652 110.086C94.5644 108.06 94.5141 99.7086 94.5141 59.8242V12.0063H206.653L206.602 60.3263Z" fill="black"/>
<path d="M97.0247 20.241L97.5101 20.7264C98.1294 21.3289 98.8323 21.3624 99.4851 20.8101L99.9537 20.4084L100.054 14.6843H99.2005V16.8434C99.2005 19.287 99.1001 19.9732 98.7486 20.1238C98.1294 20.3414 98.0289 19.923 98.0289 17.2618V14.6843H97.0247V20.241Z" fill="black"/>
<path d="M100.707 21.0444H101.544L101.577 17.2785L102.481 20.9607L103.887 21.0611V14.6843H102.883L102.849 18.4501L102.414 16.5588L101.979 14.6843H100.707V21.0444Z" fill="black"/>
<path d="M104.556 21.0444H105.393V14.6843H104.556V21.0444Z" fill="black"/>
<path d="M105.895 14.9688C105.895 15.1362 106.096 16.4752 106.314 17.948C106.548 19.4209 106.732 20.7264 106.732 20.8268C106.732 20.9607 106.967 21.0444 107.301 21.0444C107.988 21.0444 107.921 21.2452 108.49 17.8643C108.724 16.4417 108.958 15.1362 109.008 14.9688C109.092 14.701 109.025 14.6675 108.54 14.7178L107.988 14.768L107.72 16.6425C107.586 17.6802 107.418 18.5673 107.368 18.6175C107.318 18.6677 107.201 18.0484 107.084 17.2451C106.732 14.6843 106.732 14.6843 106.297 14.6843C106.029 14.6843 105.895 14.7847 105.895 14.9688Z" fill="black"/>
<path d="M109.41 21.0444H110.665C111.887 21.0444 111.921 21.0276 111.921 20.6259C111.921 20.241 111.871 20.2075 111.084 20.2075H110.247V18.1991H111C111.72 18.1991 111.753 18.1823 111.753 17.697C111.753 17.2116 111.72 17.1948 111 17.1948H110.247V15.6885H111C111.72 15.6885 111.753 15.6718 111.753 15.1864V14.6843H109.41V21.0444Z" fill="black"/>
<path d="M112.423 21.0444H112.841C113.26 21.0444 113.26 21.0276 113.26 19.7221C113.26 18.3162 113.377 18.0652 113.912 18.3497C114.163 18.4836 114.247 18.8016 114.348 19.7891C114.465 21.0276 114.465 21.0444 114.917 21.0444H115.385L115.302 19.7389C115.251 19.0359 115.118 18.2995 115 18.1321C114.799 17.8476 114.816 17.7472 115.067 17.4794C115.268 17.2618 115.352 16.8768 115.352 16.2408C115.352 15.0023 114.984 14.6843 113.494 14.6843H112.423V21.0444ZM114.398 16.3245C114.465 16.994 114.197 17.3622 113.661 17.3622C113.293 17.3622 113.26 17.2953 113.26 16.5086V15.6718L113.812 15.722C114.281 15.7722 114.348 15.8391 114.398 16.3245Z" fill="black"/>
<path d="M116.356 15.1027C116.038 15.404 115.938 15.6718 115.938 16.2241C115.954 17.1446 116.172 17.5296 117.159 18.2828C117.829 18.8016 117.946 18.969 117.946 19.4543C117.946 19.923 117.879 20.0569 117.544 20.1406C116.975 20.2745 116.841 20.1573 116.708 19.3707C116.624 18.8518 116.523 18.7012 116.272 18.7012C115.82 18.7012 115.72 18.9522 115.854 19.7389C116.088 21.1281 117.26 21.6302 118.264 20.7766C118.733 20.3916 118.783 20.241 118.783 19.4209C118.783 18.2828 118.632 18.015 117.695 17.3622C116.858 16.7764 116.574 16.1404 116.992 15.7387C117.377 15.3538 117.779 15.5881 117.779 16.1906C117.779 16.6425 117.829 16.6927 118.298 16.6927C118.816 16.6927 118.833 16.6927 118.749 15.9396C118.632 14.9186 118.398 14.6843 117.494 14.6843C116.942 14.6843 116.657 14.7847 116.356 15.1027Z" fill="black"/>
<path d="M119.285 21.0444H120.122V14.6843H119.285V21.0444Z" fill="black"/>
<path d="M120.791 21.0444H121.946C122.833 21.0444 123.185 20.9774 123.486 20.7264C123.871 20.4251 123.888 20.2912 123.938 18.0484L124.005 15.6885L123.503 15.1864C123.034 14.7345 122.9 14.6843 121.896 14.6843H120.791V21.0444ZM122.934 17.7639C122.984 19.8226 122.884 20.2075 122.281 20.2075C121.98 20.2075 121.963 20.0401 121.963 17.9313V15.6718L122.432 15.722L122.884 15.7722L122.934 17.7639Z" fill="black"/>
<path d="M125.578 14.9688C125.528 15.1362 125.26 16.4751 124.976 17.948C124.691 19.4209 124.423 20.7264 124.39 20.8268C124.34 20.9774 124.49 21.0444 124.792 21.0444C125.21 21.0444 125.277 20.9774 125.377 20.3749C125.478 19.7389 125.511 19.7054 126.047 19.7054C126.649 19.7054 126.817 19.9063 126.817 20.6427C126.817 20.9774 126.9 21.0444 127.319 21.0444C127.603 21.0444 127.821 20.9774 127.821 20.8937C127.821 20.8101 127.553 19.4209 127.235 17.7974C126.917 16.1739 126.649 14.8014 126.649 14.768C126.649 14.7178 126.432 14.6843 126.164 14.6843C125.829 14.6843 125.645 14.7847 125.578 14.9688ZM126.382 18.0652C126.482 18.6342 126.465 18.7012 126.147 18.7012C125.779 18.7012 125.729 18.4334 125.93 17.2785C126.03 16.676 126.047 16.6593 126.147 17.0275C126.214 17.2618 126.315 17.7304 126.382 18.0652Z" fill="black"/>
<path d="M128.323 21.0444H129.311C129.863 21.0444 130.432 20.9942 130.583 20.944C131.152 20.7096 131.336 19.9732 131.336 17.7806C131.336 15.6718 131.336 15.655 130.85 15.1697C130.415 14.7345 130.248 14.6843 129.344 14.6843H128.323V21.0444ZM130.248 17.8476C130.248 19.5715 130.198 19.9565 129.98 20.0904C129.829 20.1908 129.578 20.2075 129.428 20.1573C129.193 20.0736 129.16 19.7389 129.16 17.8643V15.6718L129.712 15.722L130.248 15.7722V17.8476Z" fill="black"/>
<path d="M134.449 14.9688C134.415 15.1362 134.181 16.4417 133.93 17.8643C133.696 19.287 133.461 20.5925 133.411 20.7431C133.344 20.9774 133.428 21.0444 133.83 21.0444C134.315 21.0444 134.348 21.0109 134.348 20.3749C134.348 19.7221 134.365 19.7054 134.917 19.7054C135.52 19.7054 135.687 19.9063 135.687 20.6427C135.687 20.9774 135.771 21.0444 136.189 21.0444C136.491 21.0444 136.692 20.9607 136.692 20.8268C136.692 20.7096 136.474 19.3372 136.189 17.7806C135.922 16.2074 135.687 14.8851 135.687 14.8014C135.687 14.7345 135.436 14.6843 135.118 14.6843C134.717 14.6843 134.516 14.768 134.449 14.9688ZM135.252 17.8141C135.353 18.6342 135.336 18.7012 135.018 18.7012C134.683 18.7012 134.666 18.6342 134.784 17.8978C134.968 16.5588 135.085 16.5421 135.252 17.8141Z" fill="black"/>
<path d="M137.21 17.1446C137.21 19.8728 137.378 20.6762 138.031 20.9942C138.7 21.3289 139.185 21.2452 139.721 20.7264L140.206 20.241V14.6843H139.202V17.2283C139.202 18.6342 139.135 19.8895 139.052 20.0234C138.968 20.1573 138.784 20.2075 138.583 20.1406C138.148 20.0067 138.031 19.3372 138.031 16.7262V14.6843H137.194L137.21 17.1446Z" fill="black"/>
<path d="M140.541 15.1864C140.541 15.655 140.575 15.6885 141.211 15.6885H141.88V21.0444H142.717V15.6885H143.303C143.838 15.6885 143.889 15.655 143.889 15.1864V14.6843H140.541V15.1864Z" fill="black"/>
<path d="M144.943 14.9353C144.441 15.2868 144.223 16.1739 144.223 17.7806C144.24 20.492 144.675 21.3289 145.981 21.1615C147.119 20.9942 147.236 20.7096 147.236 17.8811C147.236 15.5211 147.219 15.404 146.851 15.0525C146.382 14.6173 145.479 14.5671 144.943 14.9353ZM146.198 15.722C146.516 16.04 146.466 19.7724 146.148 20.0401C146.014 20.1573 145.78 20.2075 145.646 20.1406C145.445 20.0736 145.395 19.6719 145.395 17.8978C145.395 16.7095 145.445 15.6885 145.512 15.6383C145.679 15.4542 145.981 15.5044 146.198 15.722Z" fill="black"/>
<path d="M147.905 21.0611L148.374 21.0109L148.826 20.9607L148.993 17.4459L149.395 19.2368L149.797 21.0444H151.085V14.6843H150.249L150.215 18.6175L149.847 17.1112C149.646 16.2743 149.412 15.404 149.362 15.1362C149.244 14.7345 149.161 14.6843 148.575 14.6843H147.905V21.0611Z" fill="black"/>
<path d="M152.24 15.1195C151.855 15.5379 151.839 15.6383 151.839 17.8476C151.839 19.7556 151.889 20.2075 152.14 20.5925C152.642 21.3624 153.747 21.3959 154.433 20.6762C154.734 20.3414 154.768 20.0904 154.768 17.9146C154.768 15.5881 154.751 15.4877 154.349 15.1027C153.78 14.5169 152.793 14.5337 152.24 15.1195ZM153.747 15.7555C153.881 15.9061 153.931 16.6425 153.897 17.948C153.847 19.605 153.797 19.9565 153.563 20.1071C153.328 20.241 153.194 20.2243 152.977 19.9899C152.726 19.7389 152.676 19.3874 152.676 17.8811C152.676 16.5923 152.742 15.9898 152.91 15.8057C153.178 15.4542 153.496 15.4375 153.747 15.7555Z" fill="black"/>
<path d="M155.437 21.0444H156.274L156.291 19.1531C156.291 17.0777 156.408 17.1446 156.86 19.5046C157.144 21.0109 157.161 21.0611 157.596 21.0109C157.998 20.9607 158.048 20.8603 158.383 19.2033L158.751 17.4459L158.785 21.0444H159.621V14.6675L159.002 14.7178L158.366 14.768L158.015 16.6593C157.814 17.697 157.613 18.584 157.563 18.6342C157.529 18.6677 157.412 18.1823 157.295 17.5296C157.195 16.8936 157.027 15.9898 156.927 15.5211C156.743 14.6843 156.743 14.6843 156.09 14.6843H155.437V21.0444Z" fill="black"/>
<path d="M161.228 15.1362C161.161 15.404 160.91 16.8266 160.659 18.3162L160.174 21.0444H160.659C161.094 21.0444 161.128 20.9942 161.128 20.3582V19.6887L161.764 19.7389C162.35 19.7891 162.383 19.8226 162.433 20.4084C162.483 20.9942 162.534 21.0444 162.986 21.0444C163.588 21.0444 163.588 21.1615 162.969 17.697C162.684 16.1739 162.467 14.8851 162.467 14.8014C162.467 14.7345 162.216 14.6843 161.898 14.6843C161.412 14.6843 161.312 14.7512 161.228 15.1362ZM162.032 17.7304C162.149 18.651 162.132 18.7012 161.797 18.7012C161.462 18.7012 161.446 18.6342 161.546 17.9815C161.68 17.1614 161.814 16.6425 161.881 16.7262C161.898 16.7597 161.981 17.2116 162.032 17.7304Z" fill="black"/>
<path d="M165.479 21.0444H166.484C167.655 21.0444 168.408 20.7264 168.559 20.174C168.609 19.9565 168.659 18.8686 168.659 17.7304C168.659 15.6718 168.659 15.655 168.174 15.1697C167.722 14.7345 167.572 14.6843 166.584 14.6843H165.479V21.0444ZM167.622 17.7639C167.672 19.8226 167.572 20.2075 166.969 20.2075C166.668 20.2075 166.651 20.0401 166.651 17.9313V15.6718L167.12 15.722L167.572 15.7722L167.622 17.7639Z" fill="black"/>
<path d="M169.162 21.0444H170.501C171.823 21.0444 171.839 21.0444 171.839 20.6259C171.839 20.241 171.773 20.2075 171.086 20.2075H170.333V18.1991H171.003C171.639 18.1991 171.672 18.1656 171.672 17.697C171.672 17.2283 171.639 17.1948 171.003 17.1948H170.333V15.6885H171.086C171.806 15.6885 171.839 15.6718 171.839 15.1864V14.6843H169.162V21.0444Z" fill="black"/>
<path d="M174.467 14.8851C173.999 15.2534 173.848 15.973 173.848 17.8309C173.848 19.8393 174.049 20.7933 174.517 21.0444C174.702 21.1448 175.338 21.1615 176.091 21.0946C177.346 20.9942 177.363 20.9942 177.363 20.5255C177.363 20.1741 177.279 20.0402 177.061 20.0402C176.794 20.0402 176.777 19.8561 176.827 17.7974C176.894 15.5546 176.894 15.5379 176.476 15.1195C175.99 14.6341 174.969 14.5169 174.467 14.8851ZM175.856 15.8392C175.94 16.0233 176.024 16.9271 176.024 17.8643C176.024 18.8016 175.94 19.7054 175.856 19.8895C175.589 20.3582 175.036 20.2912 174.835 19.7389C174.584 19.1029 174.702 16.1404 175.003 15.8057C175.304 15.4375 175.639 15.4542 175.856 15.8392Z" fill="black"/>
<path d="M177.53 17.312C177.53 19.6385 177.564 20.0234 177.865 20.492C178.467 21.4795 179.723 21.4126 180.241 20.3749C180.493 19.8895 180.543 19.3372 180.543 17.2283V14.6843H179.739L179.672 17.2785C179.622 20.0067 179.488 20.4753 178.903 20.1071C178.651 19.9397 178.618 19.5715 178.568 17.2953L178.518 14.6843H177.53V17.312Z" fill="black"/>
<path d="M181.212 21.0444H182.468C183.689 21.0444 183.723 21.0276 183.723 20.6259C183.723 20.241 183.656 20.2075 182.97 20.2075H182.216V18.1991H182.886C183.522 18.1991 183.555 18.1656 183.555 17.697C183.555 17.2283 183.522 17.1948 182.886 17.1948H182.216V15.6885H182.97C183.689 15.6885 183.723 15.6718 183.723 15.1864V14.6843H181.212V21.0444Z" fill="black"/>
<path d="M184.225 21.0444H184.643C185.062 21.0444 185.062 21.0276 185.062 19.7054C185.062 18.6342 185.112 18.333 185.33 18.2493C185.815 18.0652 186.15 18.651 186.233 19.8393C186.317 20.9105 186.334 20.9607 186.769 21.0109L187.221 21.0611L187.12 19.6719C187.07 18.902 186.953 18.1991 186.886 18.0986C186.802 17.9982 186.853 17.697 187.003 17.3789C187.338 16.7095 187.238 15.4877 186.819 15.019C186.568 14.7512 186.3 14.6843 185.363 14.6843H184.225V21.0444ZM186.284 16.04C186.401 16.2408 186.401 16.4751 186.233 16.8434C186.066 17.2618 185.932 17.3622 185.547 17.3622C185.079 17.3622 185.062 17.3287 185.062 16.5086V15.6718L185.581 15.722C185.882 15.7555 186.2 15.8893 186.284 16.04Z" fill="black"/>
<path d="M187.74 21.0444H188.995C190.217 21.0444 190.25 21.0276 190.25 20.6427C190.25 20.2577 190.167 20.2243 189.464 20.174L188.66 20.1238V18.2828L189.38 18.2325C190.033 18.1823 190.083 18.1489 190.083 17.6802C190.083 17.2116 190.049 17.1948 189.33 17.1948H188.577V15.6885H189.33C190.049 15.6885 190.083 15.6718 190.083 15.1864V14.6843H187.74V21.0444Z" fill="black"/>
<path d="M190.585 15.1864C190.585 15.655 190.635 15.6885 191.171 15.6885H191.757V21.0444H192.593V15.6885H193.179C193.715 15.6885 193.765 15.655 193.765 15.1864V14.6843H190.585V15.1864Z" fill="black"/>
<path d="M195.104 14.8014C195.104 14.8851 194.87 16.1739 194.602 17.697C193.983 21.0611 193.983 21.0444 194.501 21.0444C194.836 21.0444 194.92 20.9439 195.02 20.3749C195.121 19.7556 195.171 19.7054 195.69 19.7054C196.209 19.7054 196.259 19.7556 196.359 20.3749C196.46 20.9607 196.527 21.0444 196.928 21.0444H197.38L196.928 18.3999C196.677 16.9605 196.41 15.5211 196.359 15.2199C196.276 14.7345 196.209 14.6843 195.69 14.6843C195.372 14.6843 195.104 14.7345 195.104 14.8014ZM196.025 17.9815C196.125 18.651 196.108 18.7012 195.774 18.7012C195.422 18.7012 195.405 18.6342 195.506 18.0652C195.556 17.7304 195.606 17.2618 195.623 17.0275C195.623 16.6425 195.64 16.6425 195.757 16.9438C195.84 17.1279 195.958 17.5965 196.025 17.9815Z" fill="black"/>
<path d="M197.949 21.0444H198.954V19.6217C198.954 18.8351 199.004 18.1991 199.054 18.1991C199.104 18.1991 199.288 18.2828 199.472 18.3664C199.723 18.5171 199.79 18.7347 199.79 19.4209C199.79 20.7598 199.924 21.0778 200.443 21.0109C200.878 20.9607 200.878 20.944 200.828 19.7891C200.795 19.1363 200.677 18.4167 200.56 18.1823C200.376 17.8309 200.393 17.697 200.577 17.4459C200.929 16.9438 200.862 15.4877 200.46 15.0525C200.175 14.7512 199.924 14.6843 199.037 14.6843H197.949V21.0444ZM199.924 16.3245C199.991 16.9605 199.723 17.3622 199.272 17.3622C199.004 17.3622 198.954 17.2283 198.954 16.5086C198.954 15.6885 198.97 15.6718 199.422 15.722C199.807 15.7555 199.891 15.8559 199.924 16.3245Z" fill="black"/>
<path d="M201.966 15.0525C201.481 15.5881 201.38 16.0567 201.38 17.8643C201.397 20.0736 201.531 20.6427 202.134 20.9607C202.87 21.3456 203.439 21.2787 203.991 20.7264L204.477 20.241V17.8643C204.477 15.5881 204.46 15.4876 204.058 15.1027C203.506 14.5504 202.468 14.5169 201.966 15.0525ZM203.439 17.7137C203.473 19.4376 203.439 19.856 203.222 20.0401C203.021 20.2075 202.92 20.2075 202.719 20.0401C202.519 19.8728 202.468 19.4041 202.468 17.7806C202.468 16.6592 202.519 15.6885 202.585 15.6215C202.652 15.5546 202.853 15.5211 203.054 15.5546C203.372 15.6048 203.389 15.7387 203.439 17.7137Z" fill="black"/>
<path d="M107.017 24.3416C106.95 24.3918 106.9 42.836 106.9 65.3139C106.9 108.345 106.9 108.563 107.636 112.68C108.222 115.977 109.644 120.446 110.933 123.007C112.289 125.701 114.348 128.898 115.988 130.84C117.092 132.162 120.808 135.811 122.348 137.083C129.344 142.89 138.8 147.577 148.106 149.87L150.583 150.472L152.542 150.004C157.747 148.782 165.764 145.535 170.919 142.539C179.354 137.668 186.401 130.639 189.748 123.726C191.472 120.178 192.476 117.216 193.246 113.416C194.117 109.081 194.1 110.638 194.1 65.8495V24.2244H150.617C126.7 24.2244 107.067 24.2746 107.017 24.3416ZM191.556 25.7307C191.539 25.8144 188.677 28.7267 185.229 32.1745C179.237 38.1831 178.869 38.5179 176.961 39.7229C175.873 40.3924 174.936 40.9615 174.869 40.9615C174.819 40.9615 174.066 38.3003 173.195 35.0533C172.325 31.823 171.555 28.9108 171.471 28.6095C171.388 28.325 171.27 28.0739 171.203 28.0739C171.137 28.0739 170.367 30.936 169.496 34.434C168.191 39.7564 167.89 40.7941 167.672 40.7104C167.521 40.6602 166.082 39.8234 164.458 38.8526C162.852 37.8986 161.479 37.112 161.412 37.112C161.362 37.112 162.216 38.6685 163.304 40.5765C164.408 42.4846 165.279 44.0578 165.262 44.0746C165.245 44.1081 162.098 44.878 158.282 45.8152C154.466 46.7525 151.27 47.5726 151.203 47.6396C151.035 47.807 150.5 47.6731 158.115 49.33C161.563 50.0665 164.525 50.7359 164.676 50.8029C164.944 50.9033 164.81 51.1878 163.722 53.0122L162.483 55.0876L135.487 82.0845C110.532 107.039 108.49 109.048 108.322 108.696C108.155 108.328 107.971 26.2329 108.138 25.781C108.205 25.5968 115.921 25.5634 149.931 25.5634C177.246 25.5634 191.606 25.6136 191.556 25.7307ZM192.727 73.5151L192.677 110.169L192.209 112.261C190.886 118.019 190.334 119.743 188.828 122.722C185.832 128.647 180.978 134.154 174.953 138.438C172.057 140.497 166.919 143.325 162.801 145.1C159.504 146.539 157.546 147.208 151.621 148.916L150.55 149.217L148.491 148.648C140.792 146.539 133.445 143.292 127.269 139.258C122.666 136.246 117.444 131.124 114.465 126.706C112.055 123.124 109.544 116.747 108.841 112.395L108.59 110.839L163.053 56.3261L165.279 54.8198C166.517 53.9997 167.555 53.3469 167.588 53.3804C167.622 53.4139 168.408 56.5772 169.346 60.3932C170.283 64.2093 171.07 67.3559 171.12 67.4061C171.27 67.5734 171.488 66.8538 173.178 60.3096C174.149 56.5772 174.986 53.5143 175.053 53.5143C175.12 53.5143 176.492 54.3344 178.116 55.3554C180.827 57.0458 181.38 57.3471 181.38 57.1128C181.38 57.0793 180.559 55.6734 179.555 53.9829C178.551 52.2925 177.748 50.8866 177.781 50.8698C177.815 50.8364 180.794 50.1334 184.392 49.33C188.008 48.5099 191.003 47.807 191.054 47.7567C191.104 47.7065 191.104 47.6228 191.07 47.5894C191.037 47.5726 187.924 46.7693 184.158 45.832C180.375 44.8947 177.262 44.0913 177.229 44.0578C177.179 44.0244 177.865 42.8863 178.752 41.5305C180.308 39.1539 180.526 38.9028 186.518 32.7938L192.677 26.5174L192.727 31.6891C192.744 34.5344 192.744 53.3469 192.727 73.5151ZM171.003 39.907V46.0663L168.592 43.6562L169.747 38.7187C170.383 35.9906 170.919 33.7645 170.952 33.7645C170.986 33.7645 171.003 36.5262 171.003 39.907ZM167.153 43.5055C167.153 43.7064 167.019 43.8068 166.751 43.8068C166.417 43.8068 166.166 43.5223 165.329 42.1331C164.76 41.1958 164.308 40.3924 164.308 40.3255C164.325 40.0744 167.136 43.2377 167.153 43.5055ZM177.53 40.3422C177.53 40.359 177.011 40.8945 176.375 41.5305C175.354 42.5348 175.22 42.6185 175.137 42.3172C175.07 42.0159 175.254 41.8151 176.241 41.1289C177.463 40.292 177.53 40.2585 177.53 40.3422ZM179.505 45.8152C182.15 46.4512 184.459 47.0538 184.643 47.1375C184.861 47.2379 182.685 47.3048 178.551 47.3048L172.124 47.3216L172.526 46.8529C173.095 46.1835 174.584 44.6436 174.635 44.6436C174.668 44.6436 176.844 45.1625 179.505 45.8152ZM169.664 47.7902C169.664 47.8572 169.111 48.443 168.459 49.0957L167.237 50.284L162.383 49.079C159.722 48.4262 157.412 47.8404 157.278 47.7902C157.144 47.7233 159.872 47.6731 163.354 47.6731C166.818 47.6563 169.664 47.7065 169.664 47.7902ZM172.04 61.4644L172.007 48.7442L174.551 51.2883L172.04 61.4644ZM177.329 51.4556C177.497 51.7234 177.815 52.2255 178.032 52.5938C178.4 53.2465 178.384 53.2298 177.396 52.259C176.827 51.7067 176.358 51.2046 176.358 51.1376C176.358 50.8196 177.028 51.0539 177.329 51.4556ZM167.32 52.1753C167.32 52.3762 165.329 53.7821 164.726 53.9997C164.643 54.0331 165.128 53.4808 165.814 52.7779C167.019 51.5561 167.32 51.4389 167.32 52.1753Z" fill="black"/>
<path d="M135.721 27.6555C135.235 27.7894 134.599 28.0237 134.298 28.1744C133.394 28.643 131.52 30.6012 130.8 31.8063C130.181 32.844 129.997 33.0114 128.926 33.547C127.838 34.0993 127.737 34.116 127.57 33.8482C127.135 33.0783 125.946 31.7728 125.043 31.0364C122.314 28.8271 120.088 28.6597 119.001 30.5678C118.749 30.9862 118.549 31.3544 118.532 31.3711C118.515 31.4046 117.879 31.2875 117.109 31.1536C115.285 30.8021 112.055 30.869 111.67 31.2707C111.335 31.5887 111.502 32.0741 111.988 32.1578C113.896 32.526 114.314 32.6599 114.967 33.162C115.369 33.4633 116.172 33.9989 116.774 34.3503C117.377 34.7018 118.13 35.2374 118.448 35.5387C119.369 36.409 120.172 36.6768 121.143 36.4425C121.913 36.2584 121.996 36.2584 122.465 36.6601C123.068 37.1622 124.022 37.5137 124.557 37.4132C124.942 37.3296 124.942 37.363 124.942 38.3505C124.925 38.9196 124.976 39.9573 125.059 40.6602L125.193 41.949L124.574 42.7691C123.704 43.9574 123.787 44.5098 124.959 45.1123C125.277 45.2629 125.595 45.5642 125.662 45.7483C125.762 46.0496 125.662 46.2002 125.076 46.6019C124.139 47.2546 123.971 47.8739 123.854 50.8531C123.754 53.2633 123.771 53.3135 124.222 54.2842C124.658 55.2215 124.658 55.3554 124.557 57.0291C124.49 57.9998 124.356 59.7238 124.256 60.8786L124.055 62.954L123.386 63.339C123.017 63.5566 122.616 63.7909 122.482 63.8746C122.281 63.9917 122.281 64.1591 122.515 64.9959L122.8 65.9667L121.478 67.3224L123.034 69.5819C124.105 71.1217 124.708 71.8582 124.959 71.8916C125.377 71.9586 125.394 72.059 125.059 72.5444C124.708 73.0465 124.992 73.4816 125.846 73.8164L126.482 74.0674V75.4231C126.482 76.1763 126.499 76.7789 126.532 76.7789C126.549 76.7789 127.135 76.6617 127.821 76.5445L129.076 76.2935L130.666 77.85L132.273 76.2767H135.152L135.252 75.6909C135.369 75.1219 135.386 75.1051 136.173 75.1051C136.909 75.1051 137.043 75.0382 137.579 74.4524C137.897 74.1009 138.215 73.5486 138.282 73.2473C138.332 72.9293 138.416 72.5611 138.466 72.4272C138.516 72.2096 139.052 72.1762 141.914 72.1762H145.311L145.361 71.7577C145.395 71.5401 145.345 71.0715 145.244 70.7368C145.06 70.151 145.01 70.1008 143.905 69.833C142.633 69.5317 142.382 69.3309 141.93 68.3266C141.679 67.7408 141.629 66.9374 141.545 62.3515L141.462 57.0458L140.96 56.527C140.39 55.9412 139.972 55.8073 137.361 55.4391C134.784 55.0709 134.851 55.1043 135.001 54.552C135.085 54.301 135.235 53.2633 135.353 52.2256C135.47 51.1879 135.637 50.2673 135.687 50.1669C135.805 49.9828 137.06 50.0999 142.901 50.8531L144.324 51.0372L144.725 52.962C145.177 55.1043 145.177 55.1043 145.663 55.255C145.997 55.3554 146.081 55.2382 146.483 54.1001L146.951 52.8448H148.558L148.458 51.8741C148.408 51.3552 148.324 50.5518 148.257 50.0999L148.157 49.2631L146.784 48.7777L145.428 48.2923L146.131 47.3216C147.169 45.9324 147.454 44.8445 147.37 42.7356C147.32 41.1289 147.269 40.928 146.667 39.6895C145.813 37.999 144.642 36.794 143.052 36.0408C142.399 35.7228 141.562 35.4215 141.194 35.3546L140.524 35.2374L140.658 34.1328C140.96 31.7059 140.625 29.7644 139.754 28.7267C138.851 27.6555 137.244 27.2371 135.721 27.6555ZM123.185 30.7351C123.62 30.936 124.356 31.4716 124.842 31.89C125.746 32.7269 127.051 34.2667 126.917 34.3838C126.884 34.4173 126.365 34.116 125.762 33.7143C124.256 32.6766 123.754 32.593 123.084 33.229C122.365 33.8984 121.929 34.0993 121.21 34.0993C120.339 34.0993 119.452 33.2122 119.452 32.3586C119.452 31.6222 119.804 30.869 120.323 30.5008C120.842 30.1326 122.164 30.233 123.185 30.7351ZM136.29 32.5093C136.641 32.8775 136.708 33.0616 136.658 33.8148C136.608 34.5679 136.558 34.6851 136.24 34.7353C135.955 34.7855 135.805 34.6851 135.704 34.3838C135.604 34.1495 135.235 33.7813 134.867 33.5637L134.181 33.162L134.65 32.7269C135.068 32.3252 135.403 32.1411 135.738 32.1076C135.805 32.0908 136.056 32.275 136.29 32.5093ZM125.076 34.0156C125.444 34.2332 125.846 34.5345 125.98 34.6684C126.515 35.3211 124.825 34.7855 124.022 34.0491C123.202 33.3127 123.787 33.2959 125.076 34.0156ZM134.181 34.2667C135.185 34.9864 135.235 36.4425 134.248 36.4425C133.712 36.4425 132.842 35.9404 132.842 35.6391C132.842 35.4717 132.993 35.5052 133.428 35.773C134.014 36.1412 134.516 36.1245 134.516 35.7563C134.516 35.6558 134.248 35.3044 133.947 35.0031C133.595 34.6516 133.394 34.3169 133.461 34.183C133.579 33.865 133.612 33.865 134.181 34.2667ZM140.357 35.6893C142.918 36.2919 145.043 37.9153 146.081 40.0577C146.617 41.1456 146.65 41.313 146.65 42.9699C146.65 44.5432 146.6 44.8278 146.198 45.6479C145.947 46.15 145.445 46.9032 145.094 47.3049C144.474 48.0245 144.424 48.0413 143.955 47.8572L143.453 47.6396L144.123 46.3174C145.244 44.0579 145.161 41.7314 143.872 39.974C142.767 38.4342 140.19 37.045 137.478 36.5094C136.307 36.2751 136.022 36.158 136.022 35.9236C136.022 35.773 136.123 35.5889 136.24 35.5554C136.692 35.3713 139.353 35.455 140.357 35.6893ZM132.691 37.0283C133.712 37.5639 133.612 38.953 132.541 38.953C131.972 38.953 131.336 38.7857 131.336 38.635C131.352 38.2334 131.62 38.1329 132.139 38.317C133.06 38.6685 133.311 37.8819 132.407 37.4802C132.189 37.363 132.005 37.1789 132.005 37.0283C132.005 36.7103 132.072 36.7103 132.691 37.0283ZM138.148 39.2041C139.386 39.7564 140.591 41.0117 140.96 42.1164C141.328 43.2545 141.244 44.9282 140.759 46.0161L140.39 46.8027L138.985 46.401L138.951 44.9784C138.951 44.1248 138.817 43.2043 138.633 42.6854C138.248 41.5306 137.127 40.292 135.905 39.6895C135.369 39.4217 134.901 39.1874 134.867 39.1706C134.834 39.1372 134.884 38.9363 134.984 38.7187L135.169 38.317L136.223 38.5514C136.809 38.6853 137.679 38.9865 138.148 39.2041ZM132.156 39.8066C132.809 40.041 133.076 40.6268 132.825 41.1958C132.608 41.6645 132.173 41.8151 131.486 41.6812C130.666 41.5138 130.901 41.1623 131.754 41.2628C132.357 41.3297 132.524 41.2795 132.608 41.0452C132.742 40.6937 132.156 40.1246 131.654 40.1246C131.486 40.1246 131.336 40.0075 131.336 39.8736C131.336 39.5723 131.453 39.5723 132.156 39.8066ZM129.327 40.8109L130.097 41.1456L130.03 42.2335C129.947 43.5725 130.298 44.5934 131.118 45.3968L131.704 45.9659L131.436 46.6521C131.152 47.3885 130.382 48.6606 130.231 48.6606C130.047 48.6606 129.344 47.7233 129.327 47.4387C129.327 47.2044 129.177 47.1542 128.44 47.1542C127.302 47.1542 126.917 46.786 126.633 45.3466C126.415 44.3424 126.398 44.3089 125.896 44.3089C124.942 44.3089 124.875 44.1081 125.545 43.1206C126.047 42.3674 126.147 42.0661 126.147 41.3464V40.4761L127.034 40.4259C128.122 40.3422 128.373 40.3924 129.327 40.8109ZM134.549 42.3841C134.901 42.7858 135.353 44.175 135.353 44.8445C135.353 45.2797 135.302 45.3131 134.984 45.2127C134.382 45.0286 134.231 44.8445 134.114 44.1248C134.047 43.7399 133.863 43.1708 133.696 42.8193C133.461 42.3674 133.411 42.1164 133.545 41.9155C133.729 41.5808 133.947 41.6979 134.549 42.3841ZM132.189 42.3005C132.624 42.3005 132.742 42.4009 133.009 43.0034C133.512 44.1248 133.461 44.5265 132.725 44.8612L132.089 45.1458L131.62 44.6102C131.135 44.0411 130.566 42.4344 130.75 42.1498C130.817 42.0327 131.001 42.0327 131.269 42.1331C131.503 42.2335 131.922 42.3005 132.189 42.3005ZM134.733 46.0998C135.102 46.2839 135.169 46.3843 135.018 46.6354C134.867 46.9366 134.315 47.422 133.445 48.0413C132.825 48.4764 132.608 48.9618 131.938 51.5561C131.62 52.8114 131.252 54.0666 131.135 54.3177C130.8 55.0039 130.147 55.0039 129.059 54.2842C128.072 53.6147 127.302 52.6775 126.783 51.4556C126.599 51.0205 126.348 50.6523 126.248 50.6523C126.147 50.6355 125.946 50.6021 125.812 50.5853C125.679 50.5686 125.377 50.5351 125.16 50.5184C124.792 50.5016 124.775 50.4514 124.875 49.7819C125.043 48.7108 125.277 47.9241 125.528 47.5894C125.762 47.2714 125.779 47.2714 126.515 47.6229C126.917 47.8237 127.386 47.9911 127.553 47.9911C128.072 47.9911 128.808 48.4932 129.093 49.0288C129.244 49.3133 129.377 49.9326 129.394 50.4012C129.394 50.8698 129.495 51.2548 129.612 51.2883C129.829 51.372 129.846 51.3552 131.503 48.4095C132.173 47.2044 132.842 46.0998 132.993 45.9324C133.261 45.5977 133.88 45.6646 134.733 46.0998ZM141.964 48.2254L147.487 49.7652L147.705 50.6523C147.989 51.8239 147.905 52.0414 147.219 51.8406C146.918 51.7569 146.667 51.69 146.65 51.7234C146.633 51.7402 146.483 52.1084 146.315 52.5603C146.148 52.9955 145.997 53.3302 145.964 53.2967C145.93 53.2633 145.78 52.644 145.629 51.9075C145.479 51.1879 145.294 50.5184 145.228 50.4514C145.094 50.3008 137.026 49.1794 136.072 49.1627C135.637 49.1627 135.47 49.2631 135.269 49.6648C135.135 49.9326 135.018 50.2673 135.018 50.4179C135.018 50.6021 134.817 50.669 134.164 50.669C133.361 50.669 133.311 50.6523 133.411 50.2841C133.461 50.0832 133.512 49.7819 133.512 49.6146C133.512 49.4305 133.712 49.2464 134.014 49.1459C134.298 49.0455 134.516 48.8949 134.516 48.8279C134.516 48.6438 136.189 46.6521 136.323 46.6521C136.39 46.6688 138.934 47.3551 141.964 48.2254ZM126.315 52.6105C126.499 53.0457 126.649 53.4139 126.649 53.4474C126.649 53.4808 126.281 53.5143 125.829 53.5143C124.942 53.5143 124.808 53.3804 124.808 52.5268C124.808 51.941 124.909 51.8406 125.494 51.8406C125.896 51.8406 126.013 51.9578 126.315 52.6105ZM134.432 52.4599C134.281 53.1294 134.148 53.1963 133.227 53.1461L132.39 53.0959L132.624 52.5436C132.825 52.0414 132.892 52.008 133.696 52.008C134.549 52.008 134.549 52.008 134.432 52.4599ZM128.239 55.188C128.306 55.2884 127.888 55.3554 127.085 55.3554C126.398 55.3554 125.779 55.2717 125.729 55.188C125.662 55.0876 126.08 55.0206 126.884 55.0206C127.57 55.0206 128.189 55.0876 128.239 55.188ZM133.394 55.3052C133.093 55.3387 132.591 55.3387 132.306 55.3052C132.005 55.2717 132.24 55.2382 132.842 55.2382C133.445 55.2382 133.679 55.2717 133.394 55.3052ZM140.022 56.778C140.206 56.8283 140.524 57.0793 140.709 57.3136C141.027 57.7153 141.043 57.9831 141.043 62.5523C141.043 67.7576 141.127 68.4605 141.947 69.4313C142.181 69.7158 142.382 70.0171 142.382 70.1008C142.382 70.1844 141.83 70.2514 141.16 70.2514H139.922L139.805 68.5609C139.704 67.0546 139.654 66.8036 139.185 66.1341C138.014 64.4269 137.897 63.8578 138.081 60.7949C138.114 60.1924 138.081 60.1255 137.696 60.092C137.462 60.0585 135.805 60.3932 134.014 60.8452L130.75 61.6318L130.114 63.5566C129.311 66.0002 129.26 66.586 129.829 66.7533C130.064 66.8203 131.001 67.1048 131.922 67.3726C132.842 67.6571 133.796 67.9249 134.03 67.9751C134.348 68.0421 134.499 68.2095 134.566 68.5609C134.666 69.0631 135.068 69.4313 136.441 70.3016C137.378 70.9041 137.813 71.5401 137.629 72.0255C137.512 72.3268 137.478 72.3268 137.227 71.9418C137.06 71.7075 136.591 71.1719 136.173 70.7535C134.884 69.448 133.897 69.3476 128.658 70.0003C124.992 70.4522 124.775 70.4188 124.574 69.3811C124.524 69.0798 124.54 67.8915 124.641 66.7366C124.942 63.021 124.842 63.339 126.147 62.4352C126.783 61.9833 127.386 61.4477 127.486 61.2468C127.603 60.9623 127.754 60.8786 127.955 60.9623C128.926 61.3305 129.093 61.2803 129.428 60.4435L129.762 59.6568L132.491 59.7238L132.926 58.8869L133.344 58.0333H134.215C135.051 58.0333 135.118 57.9998 135.905 57.1463L136.708 56.2592L138.198 56.46C139.001 56.5772 139.838 56.7111 140.022 56.778ZM136.976 62.3348C136.976 63.9917 137.227 64.7951 138.131 66.2847C138.951 67.6069 139.169 69.0631 138.767 70.3686C138.533 71.105 138.449 71.2389 138.349 70.9878C137.763 69.4647 137.545 68.7283 137.445 68.1593C137.227 66.9207 137.21 66.904 135.47 67.0044C134.064 67.1048 133.796 67.0713 132.323 66.586C131.436 66.3014 130.599 66.0671 130.432 66.0671C130.064 66.0671 130.097 65.7324 130.716 63.8913L131.252 62.318L134.014 61.6151C135.537 61.2301 136.809 60.8954 136.859 60.8954C136.909 60.8786 136.959 61.5314 136.976 62.3348ZM136.323 67.9417C136.407 68.0588 136.574 68.4438 136.658 68.7785L136.825 69.4145L136.34 69.1635C135.838 68.8957 135.52 68.4438 135.52 68.0086C135.52 67.6906 136.072 67.6571 136.323 67.9417ZM144.859 71.2054C144.91 71.3728 144.324 71.423 142.315 71.423C140.089 71.423 139.704 71.3895 139.704 71.1719C139.704 70.9543 140.056 70.9209 142.248 70.9543C144.089 70.9878 144.792 71.0548 144.859 71.2054Z" fill="black"/>
<path d="M126.884 42.2168C126.733 42.585 127.252 43.1038 127.503 42.8528C127.754 42.6017 127.62 42.0661 127.269 41.9992C127.118 41.9657 126.934 42.0661 126.884 42.2168Z" fill="black"/>
<path d="M115.218 53.0122C113.176 53.3637 111.285 54.8365 110.297 56.8282C109.678 58.0501 109.661 58.1672 109.661 59.8577C109.661 61.4979 109.695 61.7155 110.18 62.7197C110.816 64.0587 111.486 64.862 112.64 65.6152C113.845 66.4019 114.95 66.7366 116.356 66.7366C119.888 66.7366 122.683 64.4269 123.319 60.979C123.838 58.1839 122.197 55.0039 119.57 53.7151C118.699 53.28 116.774 52.7946 116.189 52.8616C116.105 52.8783 115.653 52.9452 115.218 53.0122Z" fill="black"/>
<path d="M148.106 88.1768C147.42 88.5115 146.566 89.499 146.566 89.9509C146.566 90.0514 146.115 90.3526 145.546 90.6037C144.407 91.1225 143.186 92.3443 142.868 93.2983C142.75 93.6833 142.7 94.6038 142.75 95.9261C142.851 98.2693 143.152 99.24 144.307 100.93C144.859 101.751 144.993 102.052 144.859 102.286C144.608 102.738 143.905 104.88 143.621 106.069C142.935 108.931 143.202 113.433 144.223 116.329L144.692 117.651L144.056 119.023C143.704 119.776 143.319 120.73 143.202 121.132C143.052 121.634 142.834 121.935 142.499 122.12C141.713 122.538 141.043 123.141 140.792 123.659C140.474 124.262 140.474 125.701 140.775 126.304C141.093 126.906 142.098 127.793 142.633 127.927C142.868 127.978 143.102 128.212 143.186 128.48C143.654 129.835 145.177 130.756 147.169 130.89C149.964 131.091 152.14 130.388 154.684 128.429C154.818 128.329 155.504 128.48 156.542 128.798C158.785 129.517 160.81 129.835 163.053 129.835C165.429 129.835 167.387 129.501 169.865 128.664L171.823 127.994L172.727 128.614C173.513 129.166 173.664 129.35 173.748 129.919C173.831 130.421 174.066 130.773 174.685 131.375C176.057 132.697 177.53 132.647 178.953 131.241C179.555 130.656 179.823 130.505 180.292 130.505C182.166 130.505 183.857 128.697 184.242 126.287C184.61 124.044 184.074 121.785 182.417 118.421C181.631 116.864 181.614 116.797 181.832 116.178C182.367 114.655 182.752 112.144 182.752 110.169C182.752 107.843 182.434 105.851 181.714 103.826L181.212 102.42L181.781 101.566C182.434 100.596 183.003 99.2065 183.154 98.1521C183.221 97.7337 183.438 97.2483 183.723 96.947C184.392 96.2106 184.576 95.7754 184.593 94.8716C184.593 93.9678 184.275 93.2481 183.488 92.3109C183.204 91.9761 182.836 91.5075 182.652 91.2564C182.484 91.0054 181.865 90.5869 181.296 90.3191C180.409 89.9007 180.041 89.817 178.852 89.817C176.794 89.817 175.321 90.1685 172.542 91.3903L170.969 92.0598L169.446 91.5409C167.22 90.8045 165.412 90.5032 163.053 90.5032C160.776 90.5032 158.651 90.8213 156.893 91.4071L155.722 91.8087L154.132 91.2732C152.592 90.771 152.525 90.7208 152.374 90.1685C152.04 88.8798 150.734 87.8421 149.412 87.8253C149.094 87.8253 148.508 87.9927 148.106 88.1768ZM179.589 91.156C180.208 91.2397 180.827 91.407 180.961 91.5075C181.179 91.6916 181.078 91.7753 180.392 92.11C179.505 92.5117 178.819 93.3653 178.618 94.3026C178.3 95.8759 179.873 97.8676 181.447 97.8676H181.865L181.597 98.7379C181.296 99.7756 180.76 100.88 180.576 100.88C180.493 100.88 180.325 100.629 180.175 100.328C179.221 98.3362 175.538 94.6206 173.162 93.2816L172.442 92.8632L173.346 92.4615C174.802 91.8255 176.342 91.3401 177.346 91.1895C177.865 91.1058 178.317 91.0388 178.367 91.0388C178.417 91.0221 178.969 91.089 179.589 91.156ZM146.566 91.9259C146.566 92.2941 147.587 93.3653 148.19 93.6164C148.91 93.9344 150.148 93.9176 150.801 93.5829C151.102 93.449 151.571 93.0473 151.855 92.7293L152.391 92.1267L153.161 92.3443L153.914 92.5452L152.207 93.6833C151.27 94.3026 149.964 95.3403 149.311 95.9763C148.09 97.1646 146.182 99.6082 145.981 100.211C145.83 100.696 145.696 100.629 145.177 99.8258C144.424 98.6709 144.056 97.2148 144.056 95.3737C144.073 93.9009 144.106 93.7168 144.525 93.0975C145.244 92.0598 146.566 91.2899 146.566 91.9259ZM166.417 92.0933C167.136 92.2272 168.107 92.4615 168.559 92.6121L169.379 92.8799L168.057 93.7335C167.32 94.1854 166.115 95.0055 165.379 95.5411L164.023 96.5119L162.149 95.2733C161.111 94.5871 159.705 93.7 159.002 93.3318C158.132 92.8464 157.814 92.5954 157.981 92.495C159.086 91.8757 164.057 91.6414 166.417 92.0933ZM157.178 93.9678C158.517 94.5704 161.663 96.378 162.45 96.9972L162.852 97.3152L161.814 98.1521C160.86 98.922 160.676 99.0057 159.739 99.0726C159.153 99.1228 158.383 99.307 158.015 99.4911L157.328 99.8258L156.676 99.3404C156.324 99.0894 155.989 98.7881 155.923 98.6877C155.856 98.5873 155.521 98.4366 155.169 98.3697C154.801 98.286 153.948 98.1019 153.261 97.9513C151.554 97.5663 150.148 97.6667 149.713 98.2023C149.495 98.4868 149.412 98.7546 149.479 99.0726C149.529 99.3237 149.495 99.5747 149.412 99.625C149.311 99.6752 149.244 100.027 149.244 100.395C149.244 100.964 149.194 101.048 148.859 101.048C148.642 101.048 148.29 101.232 148.09 101.449L147.721 101.834L148.106 101.935C148.307 102.002 148.659 102.002 148.859 101.951C149.261 101.851 149.345 102.069 149.278 102.972C149.244 103.223 149.462 103.408 150.165 103.726C150.868 104.044 151.085 104.228 151.085 104.512C151.085 104.73 151.136 104.897 151.219 104.897C151.286 104.897 151.521 104.947 151.738 105.014C152.106 105.115 152.123 105.081 152.006 104.412C151.872 103.625 152.056 103.525 152.525 104.144C152.692 104.378 152.977 104.562 153.127 104.562C153.295 104.562 153.429 104.629 153.429 104.73C153.429 104.813 153.579 104.897 153.763 104.897C154.249 104.897 154.182 105.265 153.579 105.834C151.855 107.458 147.47 112.914 146.215 115.006C145.897 115.525 145.596 115.944 145.546 115.944C145.479 115.944 145.311 115.508 145.177 114.973C143.219 107.943 145.897 100.161 151.822 95.6081C152.96 94.7377 155.303 93.3653 155.671 93.3486C155.755 93.3486 156.425 93.6163 157.178 93.9678ZM172.676 94.5536C174.266 95.5244 176.794 97.8843 178.049 99.5413C181.045 103.508 182.183 109.266 180.995 114.404L180.794 115.274L179.087 112.73C178.149 111.324 176.727 109.349 175.907 108.328C173.48 105.299 168.86 100.495 166.099 98.1019L165.128 97.265L165.931 96.696C167.254 95.7587 170.735 93.6833 171.003 93.6833C171.153 93.6833 171.906 94.0682 172.676 94.5536ZM166.316 100.144C171.086 104.211 175.053 108.747 178.568 114.186C180.426 117.048 180.325 116.747 179.806 117.868C178.685 120.329 176.459 123.074 174.25 124.747C172.007 126.438 168.71 127.911 166.433 128.245L165.647 128.363V127.459C165.647 126.672 165.714 126.488 166.115 126.103C166.551 125.685 166.584 125.567 166.517 124.747L166.45 123.844L168.425 121.852C170.333 119.961 171.003 119.007 171.237 117.919C171.321 117.567 171.555 117.35 172.258 116.998C172.777 116.764 173.363 116.329 173.563 116.061C174.199 115.224 174.919 114.487 175.404 114.186C175.823 113.918 175.873 113.818 175.823 113.031L175.773 112.178L175.086 112.128C174.501 112.077 174.25 111.927 173.496 111.174C172.358 110.052 172.174 109.818 172.174 109.533C172.174 109.399 171.856 109.014 171.471 108.68C170.819 108.111 170.685 108.06 169.931 108.127C169.295 108.178 168.994 108.111 168.559 107.843C168.258 107.659 168.007 107.391 167.99 107.274C167.99 107.173 167.906 107.073 167.806 107.073C167.705 107.073 167.521 106.956 167.387 106.822C167.187 106.638 166.735 106.571 165.563 106.571C164.592 106.571 163.956 106.504 163.873 106.387C163.806 106.27 163.471 106.236 163.036 106.286C162.35 106.353 162.299 106.337 162.299 105.968C162.299 105.767 162.165 105.483 162.015 105.366C161.814 105.215 161.697 104.88 161.68 104.328C161.663 103.876 161.563 103.424 161.462 103.324C161.379 103.24 161.295 102.956 161.295 102.705C161.295 102.437 161.111 102.069 160.793 101.767L160.291 101.265L161.58 100.194C164.14 98.0684 163.99 98.1688 164.291 98.4199C164.442 98.5371 165.345 99.307 166.316 100.144ZM151.253 100.294C151.253 100.529 151.337 100.864 151.454 101.048C151.688 101.416 151.588 101.6 151.203 101.466C150.918 101.349 150.751 100.679 150.868 100.194C151.002 99.7254 151.253 99.8091 151.253 100.294ZM159.036 100.512C158.935 100.596 158.433 101.048 157.914 101.55C157.128 102.269 156.927 102.387 156.843 102.152C156.659 101.667 158.031 100.612 159.119 100.395C159.153 100.378 159.119 100.445 159.036 100.512ZM158.567 106.152C158.835 106.286 159.32 106.403 159.655 106.403C160.157 106.403 160.274 106.47 160.324 106.772C160.358 106.989 160.542 107.224 160.76 107.324C160.96 107.408 161.128 107.542 161.128 107.609C161.128 107.692 161.278 107.742 161.462 107.742C161.931 107.742 161.931 108.78 161.462 109.215C161.178 109.483 161.094 109.818 161.011 111.207L160.91 112.864L161.931 113.902C162.5 114.471 163.036 114.939 163.119 114.939C163.22 114.939 163.421 115.123 163.555 115.341C163.789 115.693 163.822 116.228 163.772 118.672L163.722 121.601L163.253 122.036C162.5 122.739 162.216 123.894 162.718 124.312C162.868 124.429 162.969 124.798 162.969 125.216C162.969 125.601 163.103 126.086 163.253 126.321C163.421 126.555 163.521 126.906 163.504 127.107C163.454 127.392 163.538 127.492 163.772 127.492C164.107 127.492 164.308 127.793 164.308 128.279C164.308 128.513 164.023 128.53 162.098 128.446C160.76 128.396 159.337 128.212 158.534 128.011C153.596 126.789 149.529 123.626 146.751 118.873L146.064 117.718L146.516 116.965C147.939 114.504 150.868 110.738 154.031 107.291L155.454 105.751L156.776 105.834C157.513 105.885 158.316 106.019 158.567 106.152ZM181.982 120.73C182.401 121.718 182.819 123.057 182.919 123.676C183.405 126.438 182.083 129.166 180.275 129.166C179.806 129.166 179.739 129.099 179.656 128.563C179.438 127.241 178.233 126.321 176.693 126.321C175.706 126.321 175.07 126.605 174.45 127.325C174.032 127.827 174.015 127.827 173.597 127.559C173.363 127.409 173.178 127.258 173.178 127.241C173.178 127.208 173.764 126.773 174.484 126.27C176.743 124.68 179.07 122.069 180.308 119.743C180.693 119.006 180.978 118.655 181.078 118.755C181.162 118.839 181.564 119.726 181.982 120.73ZM146.583 121.132C147.889 123.074 150.215 125.45 151.973 126.622C152.692 127.091 153.362 127.492 153.445 127.492C154.165 127.492 152.458 128.513 150.583 129.183C149.696 129.501 149.194 129.568 147.805 129.568C145.947 129.534 145.378 129.333 144.742 128.48L144.407 128.045L145.027 127.643C145.763 127.157 146.349 126.321 146.5 125.534C146.717 124.396 145.964 122.94 144.876 122.371C144.608 122.237 144.391 122.019 144.391 121.885C144.391 121.45 145.278 119.274 145.395 119.408C145.462 119.475 145.997 120.262 146.583 121.132Z" fill="black"/>
<path d="M203.891 46.401C202.97 46.9868 202.167 47.489 202.1 47.489C202.033 47.489 201.883 47.2881 201.765 47.0371C201.648 46.8027 201.263 46.3676 200.912 46.083C200.326 45.6144 200.142 45.5642 199.138 45.5642C198.15 45.5642 197.933 45.6311 197.397 46.0328C196.326 46.8529 196.092 47.5392 196.142 49.715L196.192 51.5895L200.929 51.6398L205.648 51.6732V50.5016H197.447V49.079C197.447 47.7567 197.481 47.6396 197.899 47.2379C198.535 46.6688 199.74 46.6521 200.393 47.2044C200.761 47.5224 200.862 47.7735 200.929 48.5601C200.962 49.079 201.062 49.4974 201.113 49.4639C201.698 49.2129 205.531 46.719 205.598 46.5517C205.632 46.4513 205.648 46.1165 205.615 45.832L205.565 45.3131L203.891 46.401Z" fill="black"/>
<path d="M95.5184 50.8364H96.69V46.9868H99.7026V50.8364H100.858L100.958 47.0705H103.803L103.904 50.8364H105.059V45.8152H95.5184V50.8364Z" fill="black"/>
<path d="M95.5686 55.2884C95.3845 55.7571 95.6523 59.2886 95.9033 59.9079C96.7737 62 99.3344 63.1214 101.728 62.4519C102.615 62.2009 102.966 61.9833 103.736 61.2301C104.908 60.0752 105.059 59.6066 105.059 56.9789V55.0206H100.372C96.2213 55.0206 95.669 55.0541 95.5686 55.2884ZM103.887 57.5647C103.887 58.5689 103.786 59.1547 103.569 59.6568C102.95 60.9958 101.075 61.749 99.2842 61.3807C97.4934 61.0125 96.69 59.8242 96.69 57.5647V56.1922H103.887V57.5647Z" fill="black"/>
<path d="M199.121 55.5562C197.146 56.2425 195.941 58.0166 195.941 60.2259C195.941 61.5146 196.276 62.2678 197.246 63.2888C199.69 65.8161 203.69 65.3307 205.23 62.318C205.648 61.4979 205.715 61.1464 205.715 60.1422C205.682 56.6441 202.452 54.4014 199.121 55.5562ZM202.82 56.9621C204.795 58.0501 205.213 60.8117 203.673 62.4519C202.067 64.1256 199.908 64.1591 198.15 62.4854C197.832 62.2009 197.481 61.7657 197.347 61.5146C196.995 60.8452 197.046 59.3221 197.447 58.5354C197.832 57.7823 198.836 56.8785 199.64 56.5772C200.477 56.2592 201.816 56.4266 202.82 56.9621Z" fill="black"/>
<path d="M97.3595 66.4353C95.9703 66.837 95.351 67.7241 95.351 69.3476C95.351 70.5526 95.736 71.3393 96.5728 71.8916C97.2423 72.3435 97.259 72.3435 101.075 72.3937L104.891 72.4439V71.2556H101.46C97.7611 71.2556 97.1586 71.1552 96.623 70.402C95.9368 69.4313 96.5895 67.9249 97.8281 67.5734C98.1628 67.4898 99.9035 67.4061 101.678 67.4061H104.891V66.2345L101.427 66.2512C99.5018 66.2512 97.6775 66.3349 97.3595 66.4353Z" fill="black"/>
<path d="M195.974 69.2806L196.025 69.833L199.874 69.7827C203.205 69.7325 203.673 69.7493 203.389 69.9501C203.205 70.084 201.447 71.1887 199.506 72.4105C195.991 74.603 195.941 74.6365 195.941 75.2056V75.7746H205.648V74.7704L201.849 74.7369L198.033 74.6867L201.799 72.3435C205.548 70.0171 205.565 70.0003 205.615 69.3643L205.665 68.745H195.924L195.974 69.2806Z" fill="black"/>
<path d="M98.4808 76.3437C97.7946 76.5947 97.5603 76.7621 96.7234 77.5153C95.8029 78.3521 95.4682 79.189 95.3845 80.7957C95.3175 82.118 95.351 82.2853 95.8029 83.1389C96.2381 83.9591 97.4599 85.1474 97.8783 85.1474C98.1461 85.1474 98.0624 83.8586 97.7779 83.7582C97.644 83.6913 97.3092 83.3398 97.0247 82.9548C96.5895 82.3356 96.5226 82.118 96.5226 81.1138C96.5226 79.8083 96.7067 79.2225 97.326 78.553C98.0122 77.8333 98.9662 77.4483 100.171 77.4483C101.46 77.4483 102.113 77.6994 102.933 78.553C104.205 79.8585 104.356 81.4318 103.351 82.8377C103.067 83.2394 102.732 83.6243 102.598 83.6913C102.381 83.8252 102.28 85.3148 102.481 85.3148C102.548 85.3148 102.916 85.047 103.318 84.729C104.356 83.8754 105.142 82.2017 105.125 80.8794C105.109 78.2684 102.866 76.1094 100.205 76.1261C99.6022 76.1261 98.8323 76.2265 98.4808 76.3437Z" fill="black"/>
<path d="M198.702 80.1095C197.899 80.4777 196.744 81.6159 196.326 82.4527C196.108 82.9046 196.025 83.4569 196.025 84.5783C196.025 86.0512 196.041 86.1181 196.661 87.0554C198.769 90.2355 203.606 89.9509 205.314 86.5366C206.418 84.344 205.33 81.2979 203.054 80.2267C201.899 79.6744 199.774 79.6242 198.702 80.1095ZM202.267 81.1807C202.954 81.4652 203.891 82.3356 204.259 83.0218C204.728 83.8754 204.644 85.4319 204.092 86.3692C203.238 87.8253 201.263 88.5115 199.657 87.909C197.866 87.2395 197.112 86.252 197.112 84.5951C197.112 83.1892 197.598 82.2351 198.686 81.4987C199.405 81.0301 199.623 80.9631 200.627 80.9631C201.247 80.9631 201.983 81.0635 202.267 81.1807Z" fill="black"/>
<path d="M98.3469 89.0639C96.623 89.6831 95.351 91.5577 95.351 93.4992C95.351 94.9553 95.8531 96.0265 97.008 97.0809C98.0457 98.0015 98.8323 98.2693 100.456 98.2693C101.945 98.2693 102.916 97.8174 103.971 96.6625C104.841 95.6917 105.142 94.8549 105.125 93.3486C105.109 91.6414 104.238 90.2355 102.648 89.3317C101.878 88.8798 101.644 88.8295 100.372 88.8463C99.5855 88.8463 98.6817 88.9467 98.3469 89.0639ZM101.527 90.1016C101.812 90.1685 102.381 90.5033 102.782 90.8547C105.176 92.9636 103.937 96.7629 100.74 97.1479C98.598 97.3989 96.5226 95.6415 96.5226 93.5996C96.5226 92.2774 97.3092 90.9719 98.5143 90.3359C99.1336 90.0011 100.506 89.9007 101.527 90.1016Z" fill="black"/>
<path d="M196.225 93.2983C196.158 93.3486 196.108 93.6163 196.108 93.8841V94.3528H200.293V98.3529L196.192 98.4534L196.142 98.989L196.092 99.5413H205.648V98.3697H201.297V94.3528H205.648V93.1812H200.995C198.435 93.1812 196.276 93.2314 196.225 93.2983Z" fill="black"/>
<path d="M100.004 105.885C97.6272 106.136 95.6355 106.387 95.5853 106.454C95.4682 106.571 95.8196 111.056 95.9703 111.291C96.0038 111.374 96.2715 111.425 96.5561 111.425H97.0582L96.8239 107.424L97.2088 107.341C97.4264 107.291 98.0791 107.224 98.6482 107.173C99.8198 107.073 99.7696 107.006 99.937 108.663C100.171 110.939 100.171 110.922 100.807 110.922H101.393L101.276 110.035C101.226 109.567 101.109 108.713 101.042 108.161C100.975 107.609 100.941 107.123 100.975 107.09C101.075 106.973 103.72 106.688 103.82 106.772C103.87 106.822 103.987 107.659 104.088 108.596C104.188 109.55 104.322 110.404 104.389 110.471C104.456 110.538 104.707 110.554 104.958 110.487C105.343 110.404 105.393 110.32 105.326 109.851C105.276 109.567 105.159 108.445 105.042 107.357C104.891 105.717 104.807 105.399 104.573 105.416C104.423 105.433 102.364 105.65 100.004 105.885Z" fill="black"/>
<path d="M204.226 108.512C204.176 109.065 204.075 109.784 204.025 110.136L203.941 110.789L203.238 110.688C200.728 110.353 196.058 109.902 195.857 109.985C195.506 110.119 195.522 111.09 195.874 111.09C196.008 111.09 198.083 111.324 200.493 111.609C202.887 111.893 204.878 112.077 204.929 112.044C205.029 111.943 205.514 107.876 205.431 107.809C205.397 107.776 205.146 107.692 204.862 107.642L204.343 107.542L204.226 108.512Z" fill="black"/>
<path d="M100.924 114.32C98.598 115.073 96.6565 115.743 96.6063 115.793C96.5561 115.86 96.5895 116.094 96.7067 116.312L96.8908 116.73L99.1838 116.011C103.535 114.605 104.054 114.454 103.937 114.655C103.87 114.772 102.548 116.312 100.991 118.069L98.1628 121.299L98.3637 121.885C98.4641 122.203 98.6482 122.471 98.7486 122.471C98.8491 122.471 99.9202 122.17 101.109 121.818C102.314 121.467 104.272 120.881 105.443 120.53L107.603 119.894L107.502 119.391C107.435 119.124 107.368 118.856 107.318 118.822C107.268 118.772 105.644 119.241 103.686 119.843C101.745 120.463 100.121 120.931 100.071 120.898C100.037 120.848 101.326 119.341 102.95 117.55C104.573 115.743 105.895 114.22 105.895 114.153C105.895 113.818 105.477 112.931 105.31 112.948C105.226 112.964 103.251 113.584 100.924 114.32Z" fill="black"/>
<path d="M194.953 114.538C194.87 114.906 194.585 115.977 194.351 116.914C194.1 117.868 193.966 118.705 194.033 118.772C194.25 118.973 202.987 121.166 203.088 121.065C203.222 120.948 204.309 116.931 204.309 116.58C204.309 116.245 203.322 115.843 203.222 116.161C203.188 116.278 202.954 117.082 202.703 117.952C202.468 118.822 202.217 119.592 202.15 119.643C202 119.793 199.573 119.057 199.506 118.839C199.456 118.689 199.891 116.714 200.226 115.592C200.309 115.257 199.472 114.822 199.288 115.107C199.221 115.207 198.97 116.044 198.702 116.965C198.451 117.868 198.167 118.622 198.066 118.622C197.882 118.622 195.556 117.952 195.472 117.868C195.439 117.835 195.606 116.998 195.857 116.027C196.092 115.04 196.276 114.203 196.242 114.169C196.192 114.136 195.941 114.052 195.64 114.002C195.154 113.902 195.121 113.935 194.953 114.538Z" fill="black"/>
<path d="M191.02 125.216C190.719 125.685 190.434 125.484 194.769 127.844C197.832 129.501 198.033 129.367 192.409 129.668L188.543 129.902L188.225 130.404C187.974 130.806 187.957 130.957 188.125 131.107C188.225 131.208 190.049 132.262 192.158 133.434L195.991 135.559L196.292 135.175C196.46 134.957 196.61 134.723 196.61 134.672C196.61 134.622 195.221 133.836 193.514 132.932C191.824 132.045 190.3 131.208 190.15 131.107C189.916 130.94 190.418 130.873 192.778 130.773C194.384 130.722 196.426 130.622 197.33 130.555C198.92 130.455 198.987 130.438 199.221 129.986C199.339 129.735 199.456 129.45 199.456 129.367C199.456 129.199 191.74 124.814 191.455 124.814C191.372 124.814 191.171 124.998 191.02 125.216Z" fill="black"/>
<path d="M106.28 127.961C104.138 129.317 102.381 130.471 102.381 130.555C102.381 130.656 103.117 131.877 104.322 133.819C104.556 134.17 104.59 134.17 105.075 133.936L105.577 133.668L105.192 133.049C104.992 132.714 104.607 132.095 104.356 131.676C103.987 131.091 103.92 130.89 104.088 130.739C104.205 130.639 105.795 129.635 107.603 128.496L110.916 126.455L110.632 125.969C110.465 125.701 110.297 125.484 110.247 125.5C110.197 125.5 108.406 126.605 106.28 127.961Z" fill="black"/>
<path d="M109.912 134.371C107.653 135.66 105.761 136.781 105.678 136.848C105.611 136.915 105.745 137.149 105.962 137.367L106.381 137.752L107.603 137.032C108.272 136.631 108.875 136.296 108.925 136.262C109.008 136.212 111.586 138.17 112.055 138.622C112.088 138.656 111.904 139.325 111.636 140.129L111.168 141.585L111.569 141.903C111.787 142.07 112.021 142.221 112.088 142.221C112.172 142.221 112.925 140.095 113.762 137.501L115.302 132.781L114.866 132.396C114.615 132.179 114.331 132.011 114.214 132.011C114.097 132.011 112.172 133.082 109.912 134.371ZM113.176 135.509C112.841 136.53 112.523 137.367 112.473 137.367C112.222 137.367 110.08 135.626 110.197 135.526C110.481 135.258 113.661 133.534 113.728 133.601C113.762 133.635 113.511 134.505 113.176 135.509Z" fill="black"/>
<path d="M184.56 133.953L182.802 135.71L185.397 138.221C186.819 139.593 188.392 141.083 188.878 141.501L189.782 142.288L190.936 141.049C191.572 140.363 192.309 139.526 192.593 139.191L193.079 138.589L192.694 138.221L192.309 137.869L189.715 140.731L188.677 139.76C188.125 139.225 187.623 138.723 187.589 138.639C187.556 138.572 188.125 137.903 188.844 137.183L190.15 135.877L189.748 135.442C189.531 135.208 189.296 135.024 189.246 135.024C189.179 135.024 188.61 135.626 187.974 136.363C187.338 137.099 186.735 137.702 186.652 137.702C186.551 137.702 186.033 137.25 185.497 136.714L184.509 135.71L185.815 134.354L187.137 132.999L186.719 132.597L186.317 132.179L184.56 133.953Z" fill="black"/>
<path d="M121.712 139.744C121.662 139.961 121.143 142.12 120.557 144.564C119.57 148.631 119.503 149.016 119.737 149.284C119.888 149.451 120.072 149.585 120.172 149.585C120.339 149.585 128.122 144.095 128.256 143.878C128.29 143.811 128.122 143.61 127.854 143.426L127.386 143.091L124.222 145.401C122.465 146.673 121.026 147.694 120.992 147.66C120.959 147.627 121.36 145.903 121.863 143.811C122.381 141.719 122.8 139.995 122.8 139.945C122.8 139.911 122.582 139.777 122.298 139.627C121.829 139.376 121.796 139.392 121.712 139.744Z" fill="black"/>
<path d="M177.815 140.095L177.329 140.463L177.764 142.941C177.999 144.296 178.2 145.451 178.2 145.501C178.2 145.552 177.179 145.066 175.94 144.413L173.664 143.225L173.178 143.593C172.894 143.794 172.676 143.978 172.676 143.995C172.676 144.028 173.999 144.715 175.639 145.518L178.585 146.991L179.505 148.246C180.007 148.932 180.476 149.568 180.543 149.635C180.677 149.786 181.547 149.435 181.547 149.217C181.547 149.133 181.112 148.464 180.559 147.727L179.572 146.388L179.221 144.095C178.635 140.38 178.501 139.71 178.384 139.71C178.333 139.71 178.066 139.878 177.815 140.095Z" fill="black"/>
<path d="M128.591 148.799C127.252 150.941 126.147 152.765 126.147 152.866C126.147 152.949 127.101 153.569 128.256 154.255C130.248 155.426 130.348 155.477 130.583 155.175C130.716 154.991 130.834 154.774 130.834 154.656C130.834 154.539 130.114 154.02 129.244 153.502C128.373 152.983 127.654 152.531 127.654 152.497C127.654 152.33 129.227 150.087 129.344 150.087C129.411 150.087 130.08 150.472 130.834 150.941C131.587 151.409 132.29 151.811 132.407 151.861C132.574 151.928 133.009 151.309 133.009 151.008C133.009 150.974 132.34 150.522 131.503 150.004C130.683 149.485 129.997 149.016 129.997 148.949C129.997 148.732 131.352 146.572 131.486 146.572C131.57 146.572 132.34 146.991 133.194 147.493L134.767 148.414L135.051 148.045C135.219 147.828 135.353 147.61 135.353 147.543C135.353 147.46 132.507 145.702 131.152 144.966C131.085 144.932 129.947 146.656 128.591 148.799Z" fill="black"/>
<path d="M164.76 147.861C164.207 147.945 160.575 149.786 160.575 149.97C160.575 150.054 161.613 151.945 162.885 154.205C165.111 158.155 165.195 158.288 165.546 158.071C165.73 157.937 166.45 157.519 167.136 157.117C168.793 156.163 169.714 155.226 169.998 154.205C170.367 152.882 170.266 152.029 169.597 150.656C168.927 149.317 167.973 148.464 166.651 147.995C165.948 147.744 165.663 147.727 164.76 147.861ZM166.534 149.183C168.325 149.786 169.58 152.665 168.76 154.255C168.425 154.891 167.488 155.694 166.45 156.213C165.764 156.565 165.58 156.598 165.463 156.414C165.111 155.878 162.132 150.455 162.132 150.355C162.132 150.238 164.057 149.25 164.643 149.066C165.295 148.865 165.697 148.899 166.534 149.183Z" fill="black"/>
<path d="M137.863 148.882C136.39 152.112 134.348 157.016 134.466 157.117C134.533 157.184 134.75 157.301 134.951 157.351C135.252 157.452 135.369 157.318 135.721 156.498C135.955 155.962 136.692 154.288 137.361 152.765C138.031 151.242 138.6 149.97 138.633 149.937C138.8 149.736 141.027 151.008 141.278 151.426C141.763 152.246 141.545 153.251 140.742 153.887C140.39 154.171 139.57 154.154 138.717 153.853C138.198 153.686 138.031 153.669 138.031 153.82C138.031 153.937 138.164 155.108 138.315 156.431C138.616 158.975 138.667 159.075 139.637 159.36C139.972 159.46 139.972 159.443 139.771 158.088C139.654 157.318 139.52 156.431 139.47 156.096L139.37 155.493L140.206 155.376C140.893 155.293 141.194 155.125 141.78 154.556C142.6 153.769 142.834 153.083 142.65 151.878C142.432 150.389 141.83 149.886 138.934 148.765L138.081 148.43L137.863 148.882Z" fill="black"/>
<path d="M156.157 150.707C155.939 150.74 155.772 150.807 155.772 150.824C155.772 150.874 153.83 159.611 153.68 160.263C153.596 160.598 153.646 160.632 154.165 160.632C154.818 160.632 154.801 160.648 155.119 158.958C155.22 158.355 155.387 157.786 155.454 157.686C155.538 157.585 156.374 157.401 157.312 157.284C158.266 157.167 159.103 157.067 159.186 157.05C159.27 157.05 159.688 157.636 160.107 158.372C160.826 159.627 160.91 159.711 161.379 159.661C161.663 159.627 161.914 159.56 161.948 159.544C161.981 159.51 160.927 157.485 159.605 155.041C157.077 150.355 157.195 150.506 156.157 150.707ZM157.713 154.037C158.232 155.008 158.584 155.862 158.517 155.945C158.433 156.012 157.78 156.146 157.061 156.23C155.789 156.38 155.755 156.38 155.839 156.046C155.889 155.845 156.09 154.924 156.291 153.97C156.492 153.033 156.692 152.263 156.709 152.263C156.743 152.263 157.178 153.066 157.713 154.037Z" fill="black"/>
<path d="M145.479 151.627C145.261 152.33 143.688 160.498 143.771 160.581C143.956 160.749 146.968 161.318 147.822 161.335C149.295 161.368 150.985 160.28 151.604 158.908C152.19 157.619 152.173 155.359 151.588 154.205C150.868 152.782 149.596 152.062 147.002 151.61C145.73 151.376 145.562 151.376 145.479 151.627ZM148.073 153.033C149.512 153.368 150.265 153.937 150.684 155.041C151.035 155.979 150.918 157.636 150.416 158.623C150.048 159.343 149.127 160.046 148.324 160.196C147.855 160.297 145.311 159.945 145.127 159.761C145.06 159.678 146.131 153.535 146.315 152.966C146.416 152.698 146.617 152.715 148.073 153.033Z" fill="black"/>
<line x1="228.492" y1="16.5" x2="228.492" y2="158.5" stroke="#A5A5A5"/>
<path d="M249.408 48.404H251.664V59.084C251.664 62.036 252.552 64.772 256.032 64.772C259.512 64.772 260.4 62.036 260.4 59.084V48.404H262.656V59.852C262.656 63.836 260.184 66.884 256.032 66.884C251.88 66.884 249.408 63.836 249.408 59.852V48.404ZM265.559 66.5V47.54L279.143 61.772V48.404H281.399V67.244L267.815 53.012V66.5H265.559ZM286.803 48.404V66.5H284.547V48.404H286.803ZM290.773 48.404L296.173 61.796L301.549 48.404H304.021L296.173 67.46L288.301 48.404H290.773ZM305.548 66.5V48.404H315.268V50.468H307.804V55.532H315.052V57.596H307.804V64.436H315.268V66.5H305.548ZM323.608 58.628L329.32 66.5H326.584L321.256 58.844H320.32V66.5H318.064V48.404H320.8C322.408 48.404 324.136 48.428 325.576 49.244C327.088 50.132 327.952 51.836 327.952 53.564C327.952 56.156 326.224 58.316 323.608 58.628ZM320.32 50.42V56.972H321.04C323.344 56.972 325.84 56.54 325.84 53.66C325.84 50.828 323.152 50.42 320.92 50.42H320.32ZM340.935 50.756L339.135 51.836C338.463 50.708 337.599 50.132 336.231 50.132C334.791 50.132 333.207 51.116 333.207 52.7C333.207 54.116 334.599 54.86 335.727 55.292L337.023 55.796C339.591 56.804 341.511 58.22 341.511 61.244C341.511 64.532 338.967 66.884 335.727 66.884C332.799 66.884 330.519 64.724 330.135 61.82L332.415 61.34C332.391 63.332 333.975 64.772 335.919 64.772C337.863 64.772 339.255 63.14 339.255 61.244C339.255 59.3 337.695 58.46 336.135 57.812L334.887 57.284C332.823 56.396 330.951 55.22 330.951 52.7C330.951 49.772 333.543 48.02 336.279 48.02C338.295 48.02 339.951 49.004 340.935 50.756ZM346.17 48.404V66.5H343.914V48.404H346.17ZM349.372 66.5V48.404H353.116C358.66 48.404 363.268 51.332 363.268 57.356C363.268 63.524 358.756 66.5 353.044 66.5H349.372ZM351.628 50.468V64.436H352.42C357.028 64.436 361.012 62.708 361.012 57.452C361.012 52.172 357.028 50.468 352.42 50.468H351.628ZM376.397 61.964H368.093L366.029 66.5H363.605L372.245 47.636L380.885 66.5H378.461L376.397 61.964ZM375.461 59.9L372.245 52.58L369.029 59.9H375.461ZM382.208 66.5V48.404H385.952C391.496 48.404 396.104 51.332 396.104 57.356C396.104 63.524 391.592 66.5 385.88 66.5H382.208ZM384.464 50.468V64.436H385.256C389.864 64.436 393.848 62.708 393.848 57.452C393.848 52.172 389.864 50.468 385.256 50.468H384.464ZM260.592 91.964H252.288L250.224 96.5H247.8L256.44 77.636L265.08 96.5H262.656L260.592 91.964ZM259.656 89.9L256.44 82.58L253.224 89.9H259.656ZM266.283 78.404H268.539V89.084C268.539 92.036 269.427 94.772 272.907 94.772C276.387 94.772 277.275 92.036 277.275 89.084V78.404H279.531V89.852C279.531 93.836 277.059 96.884 272.907 96.884C268.755 96.884 266.283 93.836 266.283 89.852V78.404ZM287.522 80.468V96.5H285.266V80.468H280.97V78.404H291.818V80.468H287.522ZM301.803 78.02C306.987 78.02 311.283 82.268 311.283 87.452C311.283 92.828 307.035 96.884 301.803 96.884C296.571 96.884 292.323 92.828 292.323 87.452C292.323 82.268 296.619 78.02 301.803 78.02ZM301.803 94.772C305.715 94.772 309.027 91.58 309.027 87.452C309.027 83.468 306.051 80.132 301.803 80.132C297.555 80.132 294.579 83.468 294.579 87.452C294.579 91.58 297.891 94.772 301.803 94.772ZM303.027 72.62L305.019 73.676L301.083 77.252L300.027 76.604L303.027 72.62ZM313.254 96.5V77.54L326.838 91.772V78.404H329.094V97.244L315.51 83.012V96.5H313.254ZM340.522 78.02C345.706 78.02 350.002 82.268 350.002 87.452C350.002 92.828 345.754 96.884 340.522 96.884C335.29 96.884 331.042 92.828 331.042 87.452C331.042 82.268 335.338 78.02 340.522 78.02ZM340.522 94.772C344.434 94.772 347.746 91.58 347.746 87.452C347.746 83.468 344.77 80.132 340.522 80.132C336.274 80.132 333.298 83.468 333.298 87.452C333.298 91.58 336.61 94.772 340.522 94.772ZM360.685 96.884L355.261 84.548H355.213L353.101 96.5H350.773L354.469 77.636L360.685 91.892L366.901 77.636L370.597 96.5H368.269L366.157 84.548H366.109L360.685 96.884ZM383.475 91.964H375.171L373.107 96.5H370.683L379.323 77.636L387.963 96.5H385.539L383.475 91.964ZM382.539 89.9L379.323 82.58L376.107 89.9H382.539ZM249.528 126.5V108.404H253.272C258.816 108.404 263.424 111.332 263.424 117.356C263.424 123.524 258.912 126.5 253.2 126.5H249.528ZM251.784 110.468V124.436H252.576C257.184 124.436 261.168 122.708 261.168 117.452C261.168 112.172 257.184 110.468 252.576 110.468H251.784ZM265.681 126.5V108.404H275.401V110.468H267.937V115.532H275.185V117.596H267.937V124.436H275.401V126.5H265.681ZM302.798 126.884H300.062L298.502 125.276C297.014 126.308 295.07 126.884 293.342 126.884C288.11 126.884 283.862 122.828 283.862 117.452C283.862 112.268 288.158 108.02 293.342 108.02C298.526 108.02 302.822 112.268 302.822 117.452C302.822 120.02 301.766 122.444 299.99 124.124L302.798 126.884ZM295.598 119.684L298.454 122.516C299.846 121.268 300.566 119.18 300.566 117.452C300.566 113.468 297.59 110.132 293.342 110.132C289.094 110.132 286.118 113.468 286.118 117.452C286.118 121.58 289.43 124.772 293.342 124.772C294.446 124.772 295.838 124.436 296.942 123.74L292.79 119.684H295.598ZM304.697 108.404H306.953V119.084C306.953 122.036 307.841 124.772 311.321 124.772C314.801 124.772 315.689 122.036 315.689 119.084V108.404H317.945V119.852C317.945 123.836 315.473 126.884 311.321 126.884C307.169 126.884 304.697 123.836 304.697 119.852V108.404ZM321.064 126.5V108.404H330.784V110.468H323.32V115.532H330.568V117.596H323.32V124.436H330.784V126.5H321.064ZM339.124 118.628L344.836 126.5H342.1L336.772 118.844H335.836V126.5H333.58V108.404H336.316C337.924 108.404 339.652 108.428 341.092 109.244C342.604 110.132 343.468 111.836 343.468 113.564C343.468 116.156 341.74 118.316 339.124 118.628ZM335.836 110.42V116.972H336.556C338.86 116.972 341.356 116.54 341.356 113.66C341.356 110.828 338.668 110.42 336.436 110.42H335.836ZM346.611 126.5V108.404H356.331V110.468H348.867V115.532H356.115V117.596H348.867V124.436H356.331V126.5H346.611ZM352.611 102.62L354.603 103.676L350.667 107.252L349.611 106.604L352.611 102.62ZM363.998 110.468V126.5H361.742V110.468H357.446V108.404H368.294V110.468H363.998ZM379.022 121.964H370.718L368.654 126.5H366.23L374.87 107.636L383.51 126.5H381.086L379.022 121.964ZM378.086 119.9L374.87 112.58L371.654 119.9H378.086ZM390.569 118.628L396.281 126.5H393.545L388.217 118.844H387.281V126.5H385.025V108.404H387.761C389.369 108.404 391.097 108.428 392.537 109.244C394.049 110.132 394.913 111.836 394.913 113.564C394.913 116.156 393.185 118.316 390.569 118.628ZM387.281 110.42V116.972H388.001C390.305 116.972 392.801 116.54 392.801 113.66C392.801 110.828 390.113 110.42 387.881 110.42H387.281ZM406.264 108.02C411.448 108.02 415.744 112.268 415.744 117.452C415.744 122.828 411.496 126.884 406.264 126.884C401.032 126.884 396.784 122.828 396.784 117.452C396.784 112.268 401.08 108.02 406.264 108.02ZM406.264 124.772C410.176 124.772 413.488 121.58 413.488 117.452C413.488 113.468 410.512 110.132 406.264 110.132C402.016 110.132 399.04 113.468 399.04 117.452C399.04 121.58 402.352 124.772 406.264 124.772Z" fill="black"/>
</svg>
